<?xml version="1.0" encoding="UTF-8" standalone="no"?>
<!-- Created with Inkscape (http://www.inkscape.org/) -->

<svg
   width="192"
   height="192"
   viewBox="0 0 50.799998 50.800002"
   version="1.1"
   id="svg8"
   inkscape:version="1.3.2 (091e20ef0f, 2023-11-25)"
   sodipodi:docname="icon.svg"
   xmlns:inkscape="http://www.inkscape.org/namespaces/inkscape"
   xmlns:sodipodi="http://sodipodi.sourceforge.net/DTD/sodipodi-0.dtd"
   xmlns="http://www.w3.org/2000/svg"
   xmlns:svg="http://www.w3.org/2000/svg"
   xmlns:rdf="http://www.w3.org/1999/02/22-rdf-syntax-ns#"
   xmlns:cc="http://creativecommons.org/ns#"
   xmlns:dc="http://purl.org/dc/elements/1.1/">
  <defs
     id="defs2" />
  <sodipodi:namedview
     id="base"
     pagecolor="#ffffff"
     bordercolor="#666666"
     borderopacity="1.0"
     inkscape:pageopacity="0.0"
     inkscape:pageshadow="2"
     inkscape:zoom="1"
     inkscape:cx="92.999998"
     inkscape:cy="-19.499999"
     inkscape:document-units="px"
     inkscape:current-layer="layer1"
     showgrid="true"
     inkscape:window-width="1440"
     inkscape:window-height="831"
     inkscape:window-x="0"
     inkscape:window-y="32"
     inkscape:window-maximized="1"
     inkscape:showpageshadow="2"
     inkscape:pagecheckerboard="0"
     inkscape:deskcolor="#d1d1d1">
    <inkscape:grid
       type="xygrid"
       id="grid608"
       originx="-120.66768"
       originy="34.68457"
       spacingy="1"
       spacingx="1"
       units="mm"
       visible="true" />
  </sodipodi:namedview>
  <metadata
     id="metadata5">
    <rdf:RDF>
      <cc:Work
         rdf:about="">
        <dc:format>image/svg+xml</dc:format>
        <dc:type
           rdf:resource="http://purl.org/dc/dcmitype/StillImage" />
      </cc:Work>
    </rdf:RDF>
  </metadata>
  <g
     inkscape:label="Capa 1"
     inkscape:groupmode="layer"
     id="layer1"
     transform="translate(-120.66769,-81.267389)">
    <path
       style="fill:#ffffff;fill-opacity:1;stroke-width:0.0683492"
       d="m 125.89972,131.04265 c -0.26205,-0.0543 -0.76743,-0.24172 -1.12306,-0.41633 -0.54008,-0.26515 -0.74307,-0.41471 -1.23213,-0.90791 -0.48948,-0.49358 -0.6371,-0.6974 -0.89993,-1.24248 -0.56875,-1.17951 -0.52243,0.76197 -0.52243,-21.89483 0,-22.656799 -0.0462,-20.715308 0.52243,-21.894818 0.26283,-0.545085 0.41045,-0.748897 0.89993,-1.242492 0.48948,-0.493593 0.69159,-0.642454 1.23213,-0.907493 1.16925,-0.573318 -0.72336,-0.526813 21.44008,-0.526813 22.16343,0 20.27083,-0.04651 21.44007,0.526813 0.54055,0.265039 0.74266,0.4139 1.23214,0.907493 0.48948,0.493595 0.6371,0.697407 0.89992,1.242492 0.56876,1.17951 0.52245,-0.761981 0.52245,21.894818 0,22.6568 0.0462,20.71532 -0.52245,21.89483 -0.26282,0.54508 -0.41044,0.7489 -0.89992,1.24248 -0.48948,0.4936 -0.69159,0.64245 -1.23214,0.90751 -1.16988,0.57362 0.73184,0.5275 -21.48825,0.52122 -16.94953,-0.005 -19.86083,-0.0199 -20.26884,-0.10446 z"
       id="path1701"
       inkscape:connector-curvature="0" />
    <path
       style="fill:#000000;fill-opacity:0.941176;stroke-width:0.0783044"
       d="m 140.23861,111.54446 c -0.33232,-0.0973 -0.63494,-0.42369 -0.75156,-0.81055 -0.0701,-0.23258 -0.0976,-1.08857 -0.0976,-3.03798 v -2.71418 l 0.19485,-0.39334 c 0.25421,-0.51322 0.55305,-0.66844 1.28721,-0.6686 0.64998,-1.5e-4 1.01409,0.16336 1.24581,0.55947 0.14643,0.25032 0.15742,0.43336 0.18127,3.01997 0.028,3.03857 -0.01,3.42137 -0.36546,3.76592 -0.353,0.34139 -1.07571,0.46049 -1.69451,0.27929 z m 0.78755,-3.81027 c 0,-2.77866 -0.003,-2.83111 -0.15587,-2.83111 -0.15252,0 -0.15633,0.0593 -0.17641,2.75306 -0.0113,1.51419 -0.003,2.80013 0.0191,2.85768 0.0219,0.0575 0.10126,0.0927 0.1764,0.078 0.1272,-0.0247 0.13662,-0.22206 0.13662,-2.85766 z m 10.17949,3.76029 c -0.18068,-0.0899 -0.31545,-0.24492 -0.42581,-0.48991 -0.14955,-0.33201 -0.16371,-0.53592 -0.19189,-2.76401 -0.0411,-3.24177 0.0565,-3.83449 0.68601,-4.17431 0.3743,-0.20201 1.26485,-0.20201 1.63916,0 0.43101,0.23264 0.5726,0.55889 0.6092,1.4038 l 0.0317,0.73111 h -0.62967 -0.62965 l -0.0227,-0.64905 c -0.0206,-0.58897 -0.0371,-0.64903 -0.17852,-0.64903 -0.15299,0 -0.15588,0.0525 -0.15588,2.83217 0,2.77974 0.003,2.83219 0.15588,2.83219 0.14942,0 0.15676,-0.0596 0.17712,-1.43575 0.0183,-1.24264 0.006,-1.43576 -0.0974,-1.43576 -0.0931,0 -0.11867,-0.1018 -0.11867,-0.47204 v -0.47202 h 0.74042 0.74043 v 2.39948 2.39948 h -0.31428 c -0.25306,0 -0.32798,-0.0344 -0.38475,-0.17701 -0.0388,-0.0973 -0.0727,-0.1368 -0.0755,-0.0877 -0.01,0.15303 -0.5174,0.3434 -0.913,0.34154 -0.20786,-8e-4 -0.49689,-0.0609 -0.64229,-0.13324 z m 15.18518,0.065 c -0.40567,-0.13382 -0.55968,-0.267 -0.72296,-0.62519 -0.15735,-0.34519 -0.16886,-0.51024 -0.19425,-2.78203 -0.0426,-3.82762 0.0711,-4.16673 1.41454,-4.2174 1.14717,-0.0434 1.47602,0.32331 1.52126,1.69582 l 0.0266,0.80637 h -0.62777 -0.62779 l -0.0223,-0.76704 c -0.0206,-0.70709 -0.0346,-0.76706 -0.17818,-0.76706 -0.153,0 -0.15589,0.0525 -0.15589,2.83218 0,2.77973 0.003,2.83218 0.15589,2.83218 0.1462,0 0.15722,-0.0598 0.17776,-0.96373 l 0.0218,-0.96373 h 0.62875 0.62877 l -0.0271,1.04241 c -0.0295,1.13465 -0.11601,1.40897 -0.54609,1.73255 -0.23034,0.17328 -1.12114,0.26079 -1.47304,0.14467 z m -42.3944,-3.78501 v -3.77623 h 0.62351 0.62352 v 1.37675 1.37676 h 0.19486 0.19484 v -1.37676 -1.37675 h 0.6235 0.62353 v 3.77623 3.77624 h -0.62353 -0.6235 v -1.88813 -1.88811 h -0.19484 -0.19486 v 1.88811 1.88813 h -0.62352 -0.62351 z m 7.01455,0.003 v -3.79389 l 1.11062,0.0269 c 0.99878,0.0243 1.13511,0.0447 1.35364,0.20202 0.44701,0.32184 0.45845,0.41071 0.45845,3.56194 0,2.5435 -0.0153,2.90552 -0.13359,3.16934 -0.19696,0.43915 -0.51028,0.54434 -1.75644,0.58977 l -1.03268,0.0375 z m 1.61837,0.0364 c 0.0188,-2.44482 0.01,-2.6833 -0.11231,-2.77317 -0.0731,-0.0542 -0.16134,-0.0984 -0.196,-0.0984 -0.0347,0 -0.063,1.25925 -0.063,2.79831 v 2.7983 l 0.17535,-0.0252 0.17538,-0.0251 z m 2.66827,-0.0438 v -3.78726 l 1.03269,0.0294 c 1.12931,0.0322 1.41931,0.12137 1.67497,0.51523 0.11661,0.17964 0.13712,0.40179 0.13712,1.48486 0,1.15323 -0.0144,1.28968 -0.15229,1.44348 -0.15117,0.16861 -0.15099,0.18216 0.0244,1.83737 0.0971,0.91712 0.19645,1.80026 0.22071,1.96251 l 0.0441,0.29504 h -0.62275 -0.62273 l -0.0451,-0.41303 c -0.025,-0.22718 -0.10563,-1.07681 -0.17953,-1.88812 -0.0739,-0.81131 -0.16299,-1.47509 -0.19799,-1.47509 -0.0351,0 -0.073,0.84081 -0.0845,1.86846 l -0.0208,1.86843 -0.60403,0.023 -0.60403,0.023 z m 1.54321,-0.95538 c 0.14937,-0.15079 0.12551,-1.59283 -0.0289,-1.74874 -0.0673,-0.068 -0.15503,-0.12363 -0.19484,-0.12363 -0.0407,0 -0.0723,0.43067 -0.0723,0.98338 0,1.00072 0.0467,1.14082 0.29618,0.88899 z m 9.52416,0.95634 v -3.77967 l 0.56331,0.0232 0.56328,0.0232 0.29404,0.511 0.29405,0.51102 v -0.53069 -0.53068 h 0.6235 0.62352 v 3.77623 3.77624 h -0.61306 -0.61306 l -0.0406,-2.26181 c -0.0378,-2.10941 -0.053,-2.29891 -0.22478,-2.81251 l -0.18415,-0.5507 -0.0205,2.81252 -0.0205,2.8125 h -0.62251 -0.62254 z m 8.57333,0.003 v -3.77624 h 1.20807 1.20805 v 0.47203 0.47203 h -0.58454 -0.58455 v 0.90472 0.90472 h 0.54558 0.54555 v 0.51136 0.51137 h -0.54555 -0.54558 v 1.37675 1.37674 h 0.58455 0.58454 v 0.51138 0.51137 h -1.20805 -1.20807 z m 3.5852,0 v -3.77624 h 0.66249 0.66249 v 3.26486 3.26486 h 0.54557 0.54556 v 0.51138 0.51137 h -1.20805 -1.20806 z m 3.42932,0 v -3.77624 h 1.20806 1.20807 v 0.47203 0.47203 h -0.58455 -0.58454 v 0.90472 0.90472 h 0.54557 0.54558 v 0.51136 0.51137 h -0.54558 -0.54557 v 1.37675 1.37674 h 0.58454 0.58455 v 0.51138 0.51137 h -1.20807 -1.20806 z m -33.59181,-0.0393 v -3.7369 h 0.62351 0.62351 v 3.73689 3.7369 h -0.62351 -0.62351 z m 15.35404,0 v -3.7369 h 0.6235 0.62352 v 3.73689 3.7369 h -0.62352 -0.6235 z"
       id="path746"
       inkscape:connector-curvature="0" />
    <path
       style="fill:#28aaef;fill-opacity:0.941176;stroke-width:0.0814666"
       d="m 133.26951,101.64666 c 0.1503,-0.47693 1.03955,-2.023149 1.70859,-2.970945 0.84019,-1.19022 1.50268,-1.973591 3.91778,-4.632569 2.56743,-2.826692 3.65347,-4.208527 4.73526,-6.024968 0.94977,-1.594739 1.73891,-3.518021 2.13105,-5.193714 0.18729,-0.800324 0.37329,-1.025169 0.69209,-0.836647 0.0611,0.03613 0.23747,0.546268 0.39198,1.133674 0.83936,3.19095 2.28854,5.795238 4.97859,8.946887 0.44821,0.525125 1.41494,1.607261 3.30568,3.700285 0.98927,1.095117 2.22787,2.676682 2.80074,3.576305 0.50098,0.786682 1.09273,1.894842 1.22907,2.301692 l 0.0594,0.177 h -13.00302 -13.00298 z m 6.82948,-2.242158 c 0.0972,-0.855984 0.50723,-2.234604 1.00809,-3.38963 l 0.46616,-1.074981 -0.3149,0.314685 c -2.01858,2.017284 -3.31669,3.563268 -3.68823,4.392523 l -0.12924,0.288437 h 1.29891 1.2989 z"
       id="path748"
       inkscape:connector-curvature="0" />
    <path
       style="fill:#ff660f;fill-opacity:0.941176;stroke-width:0.0814666"
       d="m 140.95327,127.28352 c -0.53358,-0.12676 -1.35927,-0.35912 -1.83485,-0.51634 l -0.8647,-0.28586 v -1.64222 -1.64221 l -0.40073,-0.19117 c -0.22038,-0.1051 -0.73282,-0.38654 -1.13874,-0.62532 l -0.73803,-0.43412 -1.57554,0.78109 c -1.34594,0.66724 -1.5949,0.766 -1.70843,0.67775 -1.25112,-0.97275 -3.21208,-2.87372 -3.21208,-3.11384 0,-0.0631 0.38035,-0.72796 0.84525,-1.47748 l 0.84526,-1.36277 -0.50788,-0.78411 c -0.27934,-0.43125 -0.57042,-0.90638 -0.64685,-1.05584 -0.0764,-0.14947 -0.21876,-0.29173 -0.31629,-0.31614 -0.0975,-0.0244 -0.5949,-0.0451 -1.10529,-0.0459 -0.51039,-8e-4 -1.23856,-0.0241 -1.61817,-0.0517 l -0.69021,-0.0502 -0.17208,-0.44111 c -0.0947,-0.24263 -0.19626,-0.53848 -0.22583,-0.65747 l -0.0537,-0.21635 h 3.83076 3.83076 l 0.19436,0.3737 c 0.30198,0.58065 1.01881,1.57002 1.63806,2.26089 0.30982,0.34563 0.56332,0.67311 0.56332,0.72771 0,0.0546 0.0387,0.0992 0.086,0.0992 0.0472,0 0.39845,0.25207 0.78033,0.56017 2.11059,1.70281 4.27646,2.6874 7.02144,3.19184 1.17554,0.21603 3.91452,0.19346 5.10385,-0.0422 2.59618,-0.51413 4.82522,-1.54037 6.7653,-3.11474 0.40342,-0.32738 0.79253,-0.5952 0.8647,-0.5952 0.0732,0 0.13122,-0.0668 0.13122,-0.15108 0,-0.083 0.20455,-0.37513 0.45457,-0.64904 0.53008,-0.58069 1.26273,-1.58557 1.61692,-2.21771 l 0.24845,-0.44335 3.81734,-1.7e-4 c 2.48197,-1.6e-4 3.81734,0.0272 3.81734,0.0783 0,0.0577 -0.4614,1.0416 -0.54224,1.15623 -0.006,0.008 -0.80488,0.0892 -1.77546,0.17931 -0.97058,0.0903 -1.77167,0.17185 -1.78019,0.18138 -0.009,0.01 -0.12033,0.21189 -0.24843,0.44963 -0.12811,0.23774 -0.42017,0.7138 -0.64903,1.05791 l -0.41613,0.62568 0.16621,0.2795 c 0.65271,1.09759 1.44901,2.54016 1.44901,2.62499 0,0.18495 -1.5092,1.68834 -2.45923,2.44974 -0.72547,0.58143 -0.96385,0.73203 -1.07172,0.67708 -0.0763,-0.0389 -0.76321,-0.40882 -1.52644,-0.82217 l -1.38769,-0.75153 -0.25736,0.15786 c -0.14154,0.0867 -0.66015,0.37068 -1.15247,0.63084 l -0.89512,0.47296 -0.0614,1.62879 c -0.0338,0.89582 -0.0744,1.64103 -0.0902,1.65604 -0.0758,0.0715 -1.86427,0.59477 -2.61371,0.76466 -1.05999,0.24031 -2.19716,0.26721 -2.27336,0.0539 -0.0271,-0.0757 -0.38209,-0.66663 -0.78902,-1.31317 l -0.73985,-1.17549 -1.3372,-0.004 -1.33719,-0.004 -0.88066,1.31777 -0.88065,1.31774 -0.56307,-0.003 c -0.33363,-0.002 -0.95845,-0.0974 -1.53325,-0.23406 z"
       id="path742"
       inkscape:connector-curvature="0" />
    <path
       style="fill:#f5620e;fill-opacity:0.980392;stroke-width:0.0814666"
       d="m 140.5138,116.2418 c -0.38259,-0.10339 -0.47504,-0.38123 -0.44023,-1.32303 0.0385,-1.044 0.0655,-1.0696 1.12586,-1.0696 0.91929,0 1.06992,0.0781 1.08644,0.56359 0.009,0.25387 -0.019,0.30568 -0.17384,0.32623 -0.11879,0.0157 -0.21784,-0.0343 -0.27915,-0.14115 -0.0844,-0.14708 -0.15821,-0.16302 -0.65951,-0.14245 l -0.56447,0.0232 v 0.59004 0.59003 h 0.58937 c 0.49425,0 0.59397,-0.0221 0.6178,-0.13767 0.0234,-0.11293 -0.0333,-0.13768 -0.31518,-0.13768 -0.33733,0 -0.34363,-0.005 -0.34363,-0.27895 v -0.27889 l 0.56944,0.0233 0.56943,0.0233 0.0218,0.43269 c 0.0272,0.53931 -0.11055,0.79901 -0.48802,0.91995 -0.34403,0.11022 -0.94319,0.11809 -1.31614,0.0172 z m -3.89316,-1.19288 0.0233,-1.19975 h 0.25309 0.25308 l 0.0233,1.19975 0.0233,1.19973 h -0.29966 -0.29966 z m 0.82472,-0.0195 V 113.81 h 0.42677 0.42675 l 0.48012,0.9244 0.48013,0.9244 0.0422,-0.90472 c 0.042,-0.90211 0.0428,-0.90475 0.25308,-0.90475 h 0.21092 l 0.0233,1.19976 0.0233,1.19972 h -0.44934 -0.44935 l -0.47294,-0.92437 -0.47293,-0.92438 -0.008,0.92438 -0.008,0.92437 h -0.25308 -0.25308 z m 5.14603,0 V 113.81 h 0.92797 0.92797 v 0.31469 0.31469 h -0.67489 c -0.61864,0 -0.67487,0.0132 -0.67487,0.15735 0,0.14334 0.0563,0.15735 0.6327,0.15735 h 0.63271 v 0.27534 0.27535 h -0.63271 c -0.57647,0 -0.6327,0.0139 -0.6327,0.15735 0,0.14422 0.0563,0.15734 0.67487,0.15734 h 0.67489 v 0.31467 0.31468 h -0.92797 -0.92797 z m 2.10903,0 V 113.81 h 0.42676 0.42676 l 0.48011,0.9244 0.48013,0.9244 0.0241,-0.86431 c 0.0132,-0.47536 0.058,-0.89584 0.0993,-0.93437 0.0414,-0.0386 0.17281,-0.0472 0.2922,-0.0192 l 0.21708,0.0509 v 1.17857 1.17859 h -0.48931 -0.48934 l -0.47293,-0.92439 -0.47293,-0.9244 -0.008,0.9244 -0.008,0.92439 h -0.25308 -0.25308 z m 2.63409,0.0195 0.0233,-1.19975 0.23201,-0.0248 0.23199,-0.025 v 1.22464 1.22462 h -0.25528 -0.25529 z m 0.82472,-0.0195 V 113.81 h 0.92797 0.92797 v 0.31469 0.31469 h -0.67489 c -0.61864,0 -0.67488,0.0132 -0.67488,0.15735 0,0.14334 0.0563,0.15735 0.63271,0.15735 h 0.63271 v 0.27534 0.27535 h -0.63271 c -0.57647,0 -0.63271,0.0139 -0.63271,0.15735 0,0.14422 0.0563,0.15734 0.67488,0.15734 h 0.67489 v 0.31467 0.31468 h -0.92797 -0.92797 z m 2.10902,-0.007 v -1.22637 l 0.92396,0.0266 c 0.58553,0.0169 0.96207,0.0623 1.02796,0.1238 0.17081,0.15961 0.20034,1.00966 0.0428,1.23381 -0.0888,0.12643 -0.10293,0.20116 -0.0415,0.22025 0.0511,0.0157 0.11187,0.21321 0.13508,0.43856 l 0.0422,0.40969 h -0.25872 c -0.23726,0 -0.2609,-0.0241 -0.28491,-0.2904 l -0.0262,-0.2904 -0.52716,-0.004 -0.52716,-0.004 -9e-5,0.29502 c -8e-5,0.27533 -0.017,0.29501 -0.25317,0.29501 h -0.25309 v -1.22636 z m 1.58837,-0.30708 c -0.0267,-0.20744 -0.0467,-0.2156 -0.55499,-0.22592 l -0.52732,-0.0107 6e-5,0.25176 c 5e-5,0.2513 9.6e-4,0.2518 0.48513,0.27535 0.56964,0.0277 0.63402,-0.003 0.59712,-0.29045 z m 0.70827,0.3337 0.0233,-1.19974 h 0.25308 0.25309 l 0.0233,1.19974 0.0233,1.19975 h -0.29967 -0.29965 z m 1.00465,0.31469 c 0.189,-0.48679 0.40088,-1.03729 0.47085,-1.22337 0.12698,-0.33765 0.12794,-0.33826 0.51048,-0.31467 l 0.38324,0.0236 0.45099,1.18006 c 0.24805,0.64903 0.45099,1.18892 0.45099,1.19973 0,0.0108 -0.12876,0.0197 -0.28612,0.0197 -0.23484,0 -0.29561,-0.0352 -0.33906,-0.19667 -0.0505,-0.18755 -0.0818,-0.19668 -0.67488,-0.19668 -0.59307,0 -0.62441,0.01 -0.6749,0.19668 -0.0437,0.16226 -0.10387,0.19667 -0.34407,0.19667 h -0.29115 z m 1.30799,-0.2406 c -0.10044,-0.3732 -0.32072,-0.78078 -0.38578,-0.7138 -0.0557,0.0573 -0.34288,0.78602 -0.34288,0.87007 0,0.0139 0.17495,0.0253 0.38877,0.0253 0.36395,0 0.38565,-0.0116 0.33989,-0.1816 z"
       id="path744"
       inkscape:connector-curvature="0" />
  </g>
</svg>
