<?xml version="1.0" encoding="UTF-8" standalone="no"?>
<!-- Created with Inkscape (http://www.inkscape.org/) -->

<svg
   width="16"
   height="16"
   viewBox="0 0 4.2333332 4.2333335"
   version="1.1"
   id="svg8"
   inkscape:version="1.3.2 (091e20ef0f, 2023-11-25)"
   sodipodi:docname="favicon-16x16.svg"
   xmlns:inkscape="http://www.inkscape.org/namespaces/inkscape"
   xmlns:sodipodi="http://sodipodi.sourceforge.net/DTD/sodipodi-0.dtd"
   xmlns="http://www.w3.org/2000/svg"
   xmlns:svg="http://www.w3.org/2000/svg"
   xmlns:rdf="http://www.w3.org/1999/02/22-rdf-syntax-ns#"
   xmlns:cc="http://creativecommons.org/ns#"
   xmlns:dc="http://purl.org/dc/elements/1.1/">
  <defs
     id="defs2" />
  <sodipodi:namedview
     id="base"
     pagecolor="#ffffff"
     bordercolor="#666666"
     borderopacity="1.0"
     inkscape:pageopacity="0.0"
     inkscape:pageshadow="2"
     inkscape:zoom="16"
     inkscape:cx="16.0625"
     inkscape:cy="7.46875"
     inkscape:document-units="px"
     inkscape:current-layer="layer1"
     showgrid="true"
     inkscape:window-width="1440"
     inkscape:window-height="831"
     inkscape:window-x="0"
     inkscape:window-y="32"
     inkscape:window-maximized="1"
     inkscape:showpageshadow="2"
     inkscape:pagecheckerboard="0"
     inkscape:deskcolor="#d1d1d1">
    <inkscape:grid
       type="xygrid"
       id="grid608"
       originx="-120.66768"
       originy="34.68457"
       spacingy="1"
       spacingx="1"
       units="mm"
       visible="true" />
  </sodipodi:namedview>
  <metadata
     id="metadata5">
    <rdf:RDF>
      <cc:Work
         rdf:about="">
        <dc:format>image/svg+xml</dc:format>
        <dc:type
           rdf:resource="http://purl.org/dc/dcmitype/StillImage" />
      </cc:Work>
    </rdf:RDF>
  </metadata>
  <g
     inkscape:label="Capa 1"
     inkscape:groupmode="layer"
     id="layer1"
     transform="translate(-120.66769,-81.267389)">
    <path
       style="fill:#ffffff;fill-opacity:1;stroke-width:0.00532026"
       d="m 121.16432,85.269742 c -0.0203,-0.0044 -0.0592,-0.01896 -0.0867,-0.03267 -0.0417,-0.0208 -0.0575,-0.03254 -0.0951,-0.07124 -0.0379,-0.03873 -0.0492,-0.05472 -0.0695,-0.09749 -0.0438,-0.09254 -0.0402,0.05978 -0.0402,-1.717954 0,-1.777743 -0.003,-1.625407 0.0402,-1.717955 0.0203,-0.04277 0.0316,-0.05876 0.0695,-0.09749 0.0378,-0.03873 0.0533,-0.05041 0.0951,-0.07121 0.0903,-0.04499 -0.056,-0.04132 1.65559,-0.04132 1.71146,0 1.5653,-0.0036 1.6556,0.04132 0.0418,0.02079 0.0573,0.03248 0.0951,0.07121 0.0378,0.03873 0.0492,0.05473 0.0695,0.09749 0.0438,0.09254 0.0403,-0.05978 0.0403,1.717955 0,1.77774 0.003,1.625406 -0.0403,1.717954 -0.0203,0.04276 -0.0316,0.05876 -0.0695,0.09749 -0.0378,0.03873 -0.0536,0.05041 -0.0951,0.07121 -0.0903,0.04502 0.0564,0.0414 -1.65933,0.04089 -1.30884,-3.92e-4 -1.53364,-0.0015 -1.56514,-0.0082 z"
       id="path1701"
       inkscape:connector-curvature="0" />
    <path
       style="fill:#000000;fill-opacity:0.941176;stroke-width:0.00609518"
       d="m 122.27199,83.739838 c -0.0256,-0.0076 -0.0491,-0.03324 -0.058,-0.06361 -0.005,-0.01825 -0.007,-0.0854 -0.007,-0.238372 v -0.212965 l 0.0155,-0.03087 c 0.0196,-0.04027 0.0426,-0.05246 0.0995,-0.05246 0.0503,-1.2e-5 0.0783,0.01281 0.0962,0.04391 0.012,0.01964 0.012,0.03399 0.0138,0.236959 0.002,0.238418 -7.8e-4,0.268455 -0.0282,0.29549 -0.0274,0.02679 -0.0831,0.03613 -0.13092,0.02191 z m 0.0608,-0.298969 c 0,-0.218026 -2.3e-4,-0.22214 -0.0121,-0.22214 -0.012,0 -0.012,0.0046 -0.0137,0.216016 -8.9e-4,0.118809 -2.3e-4,0.21971 0.001,0.224224 0.002,0.0045 0.009,0.0073 0.0137,0.0062 0.01,-0.0019 0.01,-0.01743 0.01,-0.224223 z m 0.78606,0.295047 c -0.0137,-0.0071 -0.0244,-0.01923 -0.0328,-0.03843 -0.012,-0.02604 -0.012,-0.04204 -0.0155,-0.216874 -0.003,-0.254362 0.005,-0.30087 0.053,-0.327534 0.0289,-0.01585 0.0977,-0.01585 0.12662,0 0.0334,0.01826 0.0442,0.04385 0.047,0.110148 l 0.002,0.05737 h -0.0486 -0.0486 l -0.002,-0.05093 c -10e-4,-0.04621 -0.003,-0.05093 -0.0137,-0.05093 -0.012,0 -0.012,0.0041 -0.012,0.222223 0,0.21811 2.4e-4,0.222225 0.012,0.222225 0.012,0 0.012,-0.0046 0.0137,-0.112655 0.001,-0.0975 4.6e-4,-0.112655 -0.007,-0.112655 -0.007,0 -0.009,-0.0079 -0.009,-0.03703 v -0.03703 h 0.0572 0.0571 v 0.188272 0.188271 h -0.0242 c -0.0196,0 -0.0253,-0.0026 -0.0298,-0.01389 -0.003,-0.0076 -0.005,-0.01074 -0.005,-0.007 -7.7e-4,0.01201 -0.0399,0.02693 -0.0706,0.0268 -0.0155,-6.3e-5 -0.0384,-0.0047 -0.0495,-0.01049 z m 1.17259,0.005 c -0.0313,-0.01049 -0.0432,-0.02095 -0.0559,-0.04906 -0.012,-0.02709 -0.0137,-0.04003 -0.0155,-0.218288 -0.003,-0.30033 0.005,-0.326937 0.10923,-0.330915 0.0886,-0.0033 0.11389,0.02536 0.1175,0.133063 l 0.002,0.06327 h -0.0485 -0.0485 l -0.002,-0.06018 c -0.001,-0.05549 -0.003,-0.06019 -0.0137,-0.06019 -0.012,0 -0.012,0.0041 -0.012,0.222224 0,0.218108 2.2e-4,0.222223 0.012,0.222223 0.012,0 0.012,-0.0046 0.0137,-0.07562 l 0.002,-0.07562 h 0.0485 0.0485 l -0.002,0.08179 c -0.002,0.08903 -0.009,0.110554 -0.0421,0.135944 -0.0177,0.0136 -0.0865,0.02045 -0.11372,0.01136 z m -3.27369,-0.296986 v -0.296298 h 0.0482 0.0482 v 0.108026 0.108025 h 0.0155 0.0155 V 83.255706 83.14768 h 0.0482 0.0482 v 0.296299 0.296296 h -0.0482 -0.0482 v -0.148143 -0.148149 h -0.0155 -0.0155 v 0.148149 0.148148 h -0.0482 -0.0482 z m 0.54167,2.35e-4 v -0.297683 l 0.0857,0.0021 c 0.0771,0.0019 0.0877,0.0035 0.1046,0.01585 0.0346,0.02526 0.0354,0.03223 0.0354,0.279484 0,0.199571 -0.001,0.227977 -0.01,0.248678 -0.0155,0.03445 -0.0394,0.04272 -0.13573,0.04628 l -0.0796,0.003 z m 0.12489,0.0029 c 0.001,-0.19183 7.7e-4,-0.210543 -0.009,-0.217594 -0.005,-0.0043 -0.012,-0.0077 -0.0155,-0.0077 -0.003,0 -0.005,0.0988 -0.005,0.219567 v 0.219565 l 0.0138,-0.0019 0.0137,-0.0019 z m 0.20606,-0.0035 V 83.14643 l 0.0796,0.0022 c 0.0873,0.0025 0.10958,0.0095 0.12937,0.04043 0.009,0.0141 0.01,0.03153 0.01,0.116507 0,0.09049 -0.001,0.10119 -0.012,0.113261 -0.012,0.01323 -0.012,0.01429 0.002,0.144168 0.007,0.07196 0.0155,0.141254 0.0172,0.153985 l 0.003,0.02315 h -0.0482 -0.0482 l -0.003,-0.03241 c -0.002,-0.01783 -0.009,-0.08449 -0.0137,-0.14815 -0.005,-0.06365 -0.012,-0.115741 -0.0155,-0.115741 -0.003,0 -0.005,0.06599 -0.007,0.146606 l -0.001,0.146604 -0.0466,0.0017 -0.0466,0.0017 z m 0.11921,-0.07495 c 0.012,-0.01183 0.01,-0.124979 -0.002,-0.137212 -0.005,-0.0052 -0.012,-0.0098 -0.0155,-0.0098 -0.003,0 -0.005,0.03379 -0.005,0.07716 0,0.07851 0.003,0.08951 0.0229,0.06976 z m 0.73545,0.07504 v -0.296568 l 0.0435,0.0017 0.0435,0.0017 0.0227,0.0401 0.0227,0.0401 v -0.04163 -0.04163 h 0.0482 0.0482 v 0.296297 0.296299 h -0.0473 -0.0473 l -0.003,-0.17747 c -0.003,-0.165512 -0.003,-0.180382 -0.0173,-0.220681 l -0.0137,-0.04322 -0.001,0.220681 -10e-4,0.22068 h -0.048 -0.048 z m 0.66205,2.36e-4 V 83.14757 h 0.0932 0.0933 v 0.03703 0.03703 h -0.045 -0.0451 v 0.07098 0.07099 h 0.0421 0.0421 v 0.04012 0.04011 h -0.0421 -0.0421 v 0.108026 0.108024 h 0.0451 0.045 v 0.04013 0.04011 h -0.0933 -0.0932 z m 0.27684,0 V 83.14757 h 0.051 0.051 v 0.256173 0.256175 h 0.0421 0.0422 v 0.04012 0.04011 h -0.0932 -0.0933 z m 0.26481,0 V 83.14757 h 0.0932 0.0933 v 0.03703 0.03703 h -0.0451 -0.045 v 0.07098 0.07099 h 0.0421 0.0421 v 0.04012 0.04011 h -0.0421 -0.0421 v 0.108026 0.108024 h 0.045 0.0451 v 0.04013 0.04011 h -0.0933 -0.0932 z m -2.59396,-0.003 v -0.293212 h 0.0482 0.0482 v 0.293211 0.293211 h -0.0482 -0.0482 z m 1.18564,0 v -0.293212 h 0.0482 0.0482 v 0.293211 0.293211 h -0.0482 -0.0482 z"
       id="path746"
       inkscape:connector-curvature="0" />
    <path
       style="fill:#28aaef;fill-opacity:0.941176;stroke-width:0.00634133"
       d="m 121.73269,82.963218 c 0.012,-0.03743 0.0804,-0.158746 0.13194,-0.233111 0.0649,-0.09339 0.11613,-0.154857 0.30254,-0.363492 0.19826,-0.221791 0.28212,-0.330217 0.36567,-0.472743 0.0733,-0.125129 0.13435,-0.276037 0.16463,-0.407519 0.0137,-0.06279 0.0289,-0.08044 0.0536,-0.06565 0.005,0.0029 0.0184,0.04285 0.0303,0.08895 0.0649,0.250373 0.17673,0.454717 0.38445,0.702008 0.0346,0.04122 0.10925,0.126113 0.25527,0.290339 0.0764,0.08593 0.17204,0.210023 0.21627,0.280611 0.0387,0.06173 0.0844,0.148677 0.095,0.1806 l 0.005,0.01389 h -1.00409 -1.00411 z m 0.52737,-0.175928 c 0.007,-0.06717 0.0393,-0.175337 0.0778,-0.265965 l 0.036,-0.08434 -0.0242,0.0247 c -0.15585,0.158283 -0.25611,0.279589 -0.28481,0.344655 l -0.01,0.02263 h 0.10023 0.10034 z"
       id="path748"
       inkscape:connector-curvature="0" />
    <path
       style="fill:#ff660f;fill-opacity:0.941176;stroke-width:0.00634133"
       d="m 122.32547,84.974786 c -0.0411,-0.01 -0.10492,-0.02818 -0.14175,-0.04051 l -0.0667,-0.02243 v -0.128855 -0.128853 l -0.031,-0.01501 c -0.0172,-0.0083 -0.0566,-0.03032 -0.0879,-0.04907 l -0.0569,-0.03406 -0.12162,0.06128 c -0.10394,0.05236 -0.12317,0.06011 -0.13194,0.05317 -0.0968,-0.07633 -0.24806,-0.225484 -0.24806,-0.244322 0,-0.005 0.0294,-0.05712 0.0652,-0.115931 l 0.0652,-0.106927 -0.0393,-0.06152 c -0.0215,-0.03384 -0.0441,-0.07112 -0.0498,-0.08285 -0.005,-0.01173 -0.0172,-0.02289 -0.0244,-0.0248 -0.007,-0.0019 -0.0459,-0.0035 -0.0853,-0.0036 -0.0394,-6.4e-5 -0.0957,-0.0017 -0.1249,-0.004 l -0.0533,-0.0039 -0.0137,-0.03461 c -0.007,-0.01903 -0.0155,-0.04224 -0.0173,-0.05158 l -0.003,-0.01698 h 0.29582 0.2958 l 0.0155,0.02933 c 0.0234,0.04556 0.0786,0.123191 0.12644,0.1774 0.0239,0.02712 0.0435,0.0528 0.0435,0.0571 0,0.0044 0.003,0.0077 0.007,0.0077 0.003,0 0.0308,0.01979 0.0602,0.04396 0.1629,0.13361 0.33023,0.210864 0.54219,0.250445 0.0909,0.01696 0.30227,0.01517 0.39412,-0.0032 0.20048,-0.04035 0.3726,-0.120864 0.52241,-0.244395 0.0311,-0.0257 0.0612,-0.04669 0.0667,-0.04669 0.005,0 0.01,-0.0051 0.01,-0.01185 0,-0.0066 0.0155,-0.02943 0.0351,-0.05093 0.0409,-0.04556 0.0975,-0.124409 0.12489,-0.17401 l 0.0193,-0.03479 0.29477,-1.4e-5 c 0.19166,-1.3e-5 0.29478,0.0021 0.29478,0.0062 0,0.0045 -0.0357,0.08172 -0.0418,0.09072 -4.7e-4,6.28e-4 -0.0621,0.0071 -0.13711,0.01406 -0.075,0.0071 -0.13676,0.01349 -0.13745,0.01423 -7e-4,7.84e-4 -0.009,0.01662 -0.0193,0.03527 -0.01,0.01866 -0.0325,0.05601 -0.0501,0.08301 l -0.0322,0.04908 0.012,0.02192 c 0.0504,0.08613 0.11182,0.199311 0.11182,0.205967 0,0.01452 -0.11664,0.132475 -0.1899,0.192217 -0.0561,0.04563 -0.0745,0.05743 -0.0828,0.05313 -0.005,-0.003 -0.059,-0.03209 -0.11783,-0.06452 l -0.10722,-0.05897 -0.0197,0.01239 c -0.01,0.0069 -0.0509,0.0291 -0.0889,0.04949 l -0.0692,0.03711 -0.005,0.127803 c -0.003,0.07028 -0.005,0.128761 -0.007,0.129938 -0.005,0.0055 -0.14399,0.04666 -0.20182,0.06 -0.0819,0.01886 -0.16962,0.02097 -0.17554,0.0043 -0.002,-0.006 -0.0296,-0.05231 -0.0609,-0.103035 l -0.0571,-0.09222 -0.10318,-3.14e-4 -0.10318,-3.13e-4 -0.0679,0.103395 -0.0679,0.103395 -0.0435,-2.35e-4 c -0.0259,-1.58e-4 -0.074,-0.0076 -0.11836,-0.01837 z"
       id="path742"
       inkscape:connector-curvature="0" />
    <path
       style="fill:#f5620e;fill-opacity:0.980392;stroke-width:0.00634133"
       d="m 122.29246,84.108409 c -0.0296,-0.0081 -0.0366,-0.02991 -0.034,-0.103807 0.003,-0.08191 0.005,-0.08392 0.0869,-0.08392 0.071,0 0.0826,0.0062 0.084,0.04422 6.9e-4,0.01992 -0.001,0.02398 -0.0137,0.0256 -0.009,0.0013 -0.0172,-0.0026 -0.0215,-0.01108 -0.007,-0.01154 -0.012,-0.01279 -0.0509,-0.01118 l -0.0435,0.0017 v 0.04628 0.04629 h 0.0454 c 0.0382,0 0.0459,-0.0017 0.0477,-0.01079 0.002,-0.009 -0.002,-0.0108 -0.0244,-0.0108 -0.026,0 -0.0265,-3.92e-4 -0.0265,-0.02188 v -0.02188 l 0.0441,0.0017 0.0441,0.0017 0.002,0.03395 c 0.002,0.04231 -0.009,0.0627 -0.0376,0.07218 -0.0265,0.0087 -0.0727,0.0092 -0.10165,0.0014 z m -0.30063,-0.0936 0.002,-0.09414 h 0.0196 0.0196 l 0.002,0.09414 0.002,0.09414 h -0.0232 -0.023 z m 0.0637,-0.0014 v -0.09567 h 0.0331 0.0328 l 0.0372,0.07252 0.0372,0.07253 0.003,-0.07098 c 0.003,-0.07078 0.003,-0.07099 0.0196,-0.07099 h 0.0155 l 0.002,0.09414 0.002,0.09414 h -0.0348 -0.0348 l -0.0364,-0.07252 -0.0364,-0.07253 -6.2e-4,0.07253 -6.1e-4,0.07252 h -0.0196 -0.0196 z m 0.39737,0 v -0.09567 h 0.0718 0.0716 v 0.02469 0.02469 h -0.0521 c -0.0478,0 -0.0521,0.001 -0.0521,0.01236 0,0.01125 0.005,0.01235 0.0489,0.01235 h 0.0489 v 0.02161 0.02161 h -0.0489 c -0.0445,0 -0.0489,0.001 -0.0489,0.01236 0,0.01133 0.005,0.01235 0.0521,0.01235 h 0.0521 v 0.02469 0.02469 h -0.0716 -0.0718 z m 0.16292,0 v -0.09567 h 0.033 0.0331 l 0.037,0.07252 0.0372,0.07253 0.002,-0.06782 c 10e-4,-0.0373 0.005,-0.07028 0.007,-0.07332 0.003,-0.003 0.0138,-0.0037 0.0226,-0.0014 l 0.0172,0.0039 v 0.09246 0.09248 h -0.0378 -0.0379 l -0.0364,-0.07253 -0.0364,-0.07252 -6.2e-4,0.07252 -6.1e-4,0.07253 h -0.0196 -0.0196 z m 0.20341,0.0014 0.002,-0.09414 0.0179,-0.0019 0.0179,-0.0019 v 0.09609 0.09609 h -0.0196 -0.0197 z m 0.0636,-0.0014 v -0.09567 h 0.0715 0.0718 v 0.02469 0.02469 h -0.0521 c -0.0479,0 -0.0521,0.001 -0.0521,0.01236 0,0.01125 0.005,0.01235 0.0489,0.01235 h 0.0489 v 0.02161 0.02161 h -0.0489 c -0.0446,0 -0.0489,0.001 -0.0489,0.01236 0,0.01133 0.005,0.01235 0.0521,0.01235 h 0.0521 v 0.02469 0.02469 h -0.0718 -0.0715 z m 0.16291,-5.51e-4 v -0.09623 l 0.0714,0.0021 c 0.0453,0.0014 0.0743,0.0048 0.0793,0.0098 0.0138,0.01252 0.0155,0.07922 0.003,0.09681 -0.007,0.01 -0.009,0.01579 -0.003,0.01728 0.003,0.0013 0.009,0.01673 0.01,0.0344 l 0.003,0.03216 h -0.02 c -0.0182,0 -0.0202,-0.0017 -0.022,-0.0228 l -0.002,-0.02278 -0.0408,-3.15e-4 -0.0408,-3.14e-4 -2e-5,0.02315 c 0,0.02161 -0.001,0.02315 -0.0196,0.02315 h -0.0196 v -0.09623 z m 0.12266,-0.02409 c -0.002,-0.01628 -0.003,-0.01691 -0.0429,-0.01773 l -0.0408,-8.39e-4 v 0.01976 c 0,0.01972 7e-5,0.01977 0.0375,0.02161 0.0441,0.0022 0.0491,-2.34e-4 0.0461,-0.0228 z m 0.0547,0.02618 0.002,-0.09414 h 0.0196 0.0196 l 0.002,0.09414 0.002,0.09414 h -0.0232 -0.023 z m 0.0776,0.02469 c 0.0137,-0.0382 0.031,-0.08138 0.0363,-0.09599 0.01,-0.0265 0.01,-0.02654 0.0394,-0.0247 l 0.0296,0.0017 0.0348,0.09259 c 0.0191,0.05093 0.0349,0.09329 0.0349,0.09414 0,8.41e-4 -0.01,0.0014 -0.0221,0.0014 -0.0181,0 -0.0229,-0.0028 -0.0262,-0.01542 -0.003,-0.01472 -0.007,-0.01543 -0.0521,-0.01543 -0.0458,0 -0.0482,7.84e-4 -0.0521,0.01543 -0.003,0.01274 -0.009,0.01542 -0.0265,0.01542 h -0.0226 z m 0.101,-0.01888 c -0.009,-0.02928 -0.0248,-0.06127 -0.0298,-0.05601 -0.005,0.0044 -0.0265,0.06167 -0.0265,0.06827 0,0.001 0.0137,0.002 0.0301,0.002 0.028,0 0.0298,-9.27e-4 0.0263,-0.01425 z"
       id="path744"
       inkscape:connector-curvature="0" />
  </g>
</svg>
