<?xml version="1.0" encoding="UTF-8" standalone="no"?>
<!-- Created with Inkscape (http://www.inkscape.org/) -->

<svg
   width="48"
   height="48"
   viewBox="0 0 12.7 12.7"
   version="1.1"
   id="svg8"
   inkscape:version="1.3.2 (091e20ef0f, 2023-11-25)"
   sodipodi:docname="android-chrome-192x192 (copia).svg"
   xmlns:inkscape="http://www.inkscape.org/namespaces/inkscape"
   xmlns:sodipodi="http://sodipodi.sourceforge.net/DTD/sodipodi-0.dtd"
   xmlns="http://www.w3.org/2000/svg"
   xmlns:svg="http://www.w3.org/2000/svg"
   xmlns:rdf="http://www.w3.org/1999/02/22-rdf-syntax-ns#"
   xmlns:cc="http://creativecommons.org/ns#"
   xmlns:dc="http://purl.org/dc/elements/1.1/">
  <defs
     id="defs2" />
  <sodipodi:namedview
     id="base"
     pagecolor="#ffffff"
     bordercolor="#666666"
     borderopacity="1.0"
     inkscape:pageopacity="0.0"
     inkscape:pageshadow="2"
     inkscape:zoom="8"
     inkscape:cx="15.625"
     inkscape:cy="32.9375"
     inkscape:document-units="px"
     inkscape:current-layer="layer1"
     showgrid="true"
     inkscape:window-width="1440"
     inkscape:window-height="831"
     inkscape:window-x="0"
     inkscape:window-y="32"
     inkscape:window-maximized="1"
     inkscape:showpageshadow="2"
     inkscape:pagecheckerboard="0"
     inkscape:deskcolor="#d1d1d1">
    <inkscape:grid
       type="xygrid"
       id="grid608"
       originx="-120.66768"
       originy="34.68457"
       spacingy="1"
       spacingx="1"
       units="mm"
       visible="true" />
  </sodipodi:namedview>
  <metadata
     id="metadata5">
    <rdf:RDF>
      <cc:Work
         rdf:about="">
        <dc:format>image/svg+xml</dc:format>
        <dc:type
           rdf:resource="http://purl.org/dc/dcmitype/StillImage" />
      </cc:Work>
    </rdf:RDF>
  </metadata>
  <g
     inkscape:label="Capa 1"
     inkscape:groupmode="layer"
     id="layer1"
     transform="translate(-120.66769,-81.267389)">
    <path
       style="fill:#ffffff;fill-opacity:1;stroke-width:0.0164377"
       d="m 122.36392,93.886037 c -0.0608,-0.01352 -0.17817,-0.06021 -0.26074,-0.103711 -0.12539,-0.06605 -0.17251,-0.10331 -0.28606,-0.226182 -0.11364,-0.122962 -0.14791,-0.173738 -0.20893,-0.30953 -0.13204,-0.293843 -0.12129,0.189824 -0.12129,-5.454507 0,-5.644332 -0.0107,-5.160661 0.12129,-5.454504 0.0611,-0.135794 0.0953,-0.186568 0.20893,-0.309533 0.11364,-0.122966 0.16057,-0.160051 0.28606,-0.226078 0.27146,-0.142827 -0.16794,-0.131242 4.97765,-0.131242 5.14559,0 4.70619,-0.01159 4.97764,0.131242 0.1255,0.06603 0.17242,0.10312 0.28607,0.226078 0.11363,0.122965 0.14791,0.173739 0.20893,0.309533 0.13205,0.293843 0.1213,-0.189828 0.1213,5.454504 0,5.644331 0.0107,5.160664 -0.1213,5.454507 -0.0611,0.135792 -0.0953,0.186568 -0.20893,0.30953 -0.11365,0.122968 -0.16057,0.16005 -0.28607,0.226083 -0.2716,0.142902 0.16992,0.131411 -4.98882,0.129847 -3.9351,-0.0013 -4.61101,-0.005 -4.70573,-0.02603 z"
       id="path1701"
       inkscape:connector-curvature="0" />
    <path
       style="fill:#000000;fill-opacity:0.941176;stroke-width:0.0188317"
       d="m 125.69295,89.028588 c -0.0772,-0.02424 -0.14741,-0.105546 -0.17448,-0.201927 -0.0162,-0.05794 -0.0227,-0.271187 -0.0227,-0.75683 v -0.676166 l 0.0453,-0.098 c 0.059,-0.127855 0.12839,-0.166525 0.29884,-0.166564 0.15091,-3.8e-5 0.23544,0.04069 0.28923,0.139377 0.034,0.06236 0.0366,0.107964 0.0421,0.752343 0.006,0.756978 -0.002,0.852343 -0.0848,0.938179 -0.082,0.08504 -0.24975,0.114718 -0.39341,0.06957 z m 0.18284,-0.949226 c 0,-0.692229 -7e-4,-0.705295 -0.0361,-0.705295 -0.0354,0 -0.0363,0.01477 -0.0409,0.685849 -0.002,0.377221 -6.9e-4,0.697578 0.004,0.711916 0.005,0.01431 0.0235,0.02309 0.0409,0.01944 0.0295,-0.0061 0.0317,-0.05532 0.0317,-0.711908 z m 2.36334,0.936774 c -0.042,-0.0224 -0.0733,-0.06101 -0.0988,-0.122048 -0.0348,-0.08271 -0.0381,-0.133508 -0.0445,-0.688578 -0.01,-0.8076 0.0131,-0.95526 0.15927,-1.039917 0.0869,-0.05032 0.29366,-0.05032 0.38056,0 0.10007,0.05795 0.13294,0.139233 0.14143,0.349719 l 0.007,0.182136 h -0.14618 -0.14618 l -0.005,-0.161693 c -0.005,-0.146726 -0.008,-0.161688 -0.0415,-0.161688 -0.0355,0 -0.0362,0.01307 -0.0362,0.705558 0,0.692499 7e-4,0.705565 0.0362,0.705565 0.0347,0 0.0364,-0.01484 0.0411,-0.357679 0.004,-0.30957 10e-4,-0.35768 -0.0226,-0.35768 -0.0216,0 -0.0276,-0.02536 -0.0276,-0.117597 v -0.11759 h 0.1719 0.1719 v 0.597765 0.597766 h -0.0729 c -0.0587,0 -0.0761,-0.0085 -0.0894,-0.0441 -0.008,-0.02423 -0.0169,-0.03409 -0.0175,-0.02185 -0.002,0.03813 -0.12012,0.08555 -0.21196,0.08509 -0.0482,-2e-4 -0.11536,-0.01517 -0.14911,-0.0332 z m 3.52547,0.01619 c -0.0941,-0.03334 -0.12994,-0.06651 -0.16785,-0.15575 -0.0366,-0.086 -0.0392,-0.127113 -0.0451,-0.693067 -0.01,-0.95355 0.0165,-1.038029 0.3284,-1.050651 0.26634,-0.01081 0.34269,0.08054 0.35319,0.422466 l 0.006,0.200887 h -0.14575 -0.14576 l -0.005,-0.191089 c -0.005,-0.176153 -0.008,-0.191092 -0.0413,-0.191092 -0.0355,0 -0.0361,0.01307 -0.0361,0.705561 0,0.692495 7e-4,0.705562 0.0361,0.705562 0.0339,0 0.0365,-0.0149 0.0412,-0.240086 l 0.005,-0.240088 h 0.14598 0.14598 l -0.006,0.259687 c -0.006,0.282668 -0.0269,0.351008 -0.12678,0.431618 -0.0534,0.04317 -0.2603,0.06497 -0.34199,0.03604 z m -9.84252,-0.942935 v -0.940745 h 0.14476 0.14476 v 0.34298 0.342984 h 0.0453 0.0453 v -0.342984 -0.34298 h 0.14475 0.14478 v 0.940745 0.94075 h -0.14478 -0.14475 v -0.470373 -0.470372 h -0.0453 -0.0453 v 0.470372 0.470378 h -0.14476 -0.14476 z m 1.62854,7.49e-4 v -0.945146 l 0.25784,0.0067 c 0.23188,0.0061 0.26354,0.01116 0.31428,0.05032 0.10378,0.08017 0.10643,0.10232 0.10643,0.887362 0,0.633644 -0.003,0.723832 -0.0311,0.789556 -0.0457,0.109402 -0.11847,0.135607 -0.40779,0.146926 l -0.23975,0.0093 z m 0.37573,0.0091 c 0.004,-0.609061 0.002,-0.668472 -0.0261,-0.690861 -0.017,-0.0135 -0.0374,-0.02452 -0.0455,-0.02452 -0.008,0 -0.0146,0.313708 -0.0146,0.697123 v 0.697122 l 0.0407,-0.0063 0.0407,-0.0062 z m 0.61947,-0.01094 v -0.943482 l 0.23976,0.0074 c 0.26219,0.0081 0.32952,0.03024 0.38888,0.128356 0.027,0.04476 0.0318,0.100106 0.0318,0.369911 0,0.287297 -0.003,0.32129 -0.0353,0.359606 -0.0351,0.04199 -0.0351,0.04538 0.005,0.45773 0.0226,0.228476 0.0456,0.448487 0.0512,0.488907 l 0.0106,0.0735 h -0.14458 -0.14458 l -0.0106,-0.102899 c -0.005,-0.0566 -0.0245,-0.268259 -0.0417,-0.470376 -0.0172,-0.202116 -0.0379,-0.367479 -0.046,-0.367479 -0.008,0 -0.017,0.209465 -0.0196,0.465477 l -0.005,0.465468 -0.14024,0.0057 -0.14023,0.0057 z m 0.35828,-0.238007 c 0.0347,-0.03756 0.0292,-0.39681 -0.006,-0.435651 -0.0156,-0.01694 -0.036,-0.0308 -0.0453,-0.0308 -0.01,0 -0.0168,0.107294 -0.0168,0.244982 0,0.249303 0.0108,0.284205 0.0688,0.221469 z m 2.21119,0.238247 v -0.941592 l 0.13078,0.0057 0.13077,0.0057 0.0683,0.127302 0.0683,0.127306 v -0.13205 -0.132205 h 0.14476 0.14477 v 0.940746 0.940748 h -0.14234 -0.14233 l -0.01,-0.563469 c -0.008,-0.525502 -0.0123,-0.572712 -0.0522,-0.700662 l -0.0427,-0.137191 -0.004,0.700663 -0.004,0.700659 h -0.14453 -0.14454 z m 1.99043,7.47e-4 v -0.940749 h 0.28048 0.28046 v 0.117593 0.117594 h -0.1357 -0.13572 v 0.225387 0.225385 h 0.12666 0.12666 v 0.127393 0.127394 h -0.12666 -0.12666 v 0.342981 0.342977 h 0.13572 0.1357 v 0.127397 0.127394 h -0.28046 -0.28048 z m 0.83236,0 v -0.940749 h 0.15381 0.1538 v 0.813352 0.813352 h 0.12667 0.12666 v 0.127397 0.127394 h -0.28046 -0.28048 z m 0.79617,0 v -0.940749 h 0.28047 0.28047 v 0.117593 0.117594 h -0.13571 -0.1357 v 0.225387 0.225385 h 0.12665 0.12667 v 0.127393 0.127394 h -0.12667 -0.12665 v 0.342981 0.342977 h 0.1357 0.13571 v 0.127397 0.127394 h -0.28047 -0.28047 z m -7.79886,-0.0098 V 87.14849 h 0.14475 0.14476 v 0.930946 0.930948 h -0.14476 -0.14475 z m 3.56468,0 V 87.14849 h 0.14475 0.14476 v 0.930946 0.930948 h -0.14476 -0.14475 z"
       id="path746"
       inkscape:connector-curvature="0" />
    <path
       style="fill:#28aaef;fill-opacity:0.941176;stroke-width:0.0195923"
       d="m 124.07492,86.562817 c 0.0349,-0.118815 0.24134,-0.504012 0.39667,-0.74013 0.19507,-0.296512 0.34887,-0.491667 0.90957,-1.15408 0.59608,-0.704194 0.84822,-1.048441 1.09938,-1.50096 0.22049,-0.397284 0.4037,-0.876418 0.49475,-1.293874 0.0435,-0.199379 0.0866,-0.255392 0.16068,-0.208427 0.0142,0.009 0.0551,0.136088 0.091,0.282424 0.19487,0.794939 0.53133,1.443727 1.15586,2.228877 0.1041,0.13082 0.3285,0.400407 0.76747,0.921826 0.22966,0.272819 0.51723,0.666823 0.65023,0.890939 0.11631,0.195982 0.2537,0.472049 0.28535,0.573405 l 0.0138,0.0441 h -3.01885 -3.01884 z m 1.58557,-0.558573 c 0.0226,-0.213245 0.11776,-0.556691 0.23404,-0.844435 l 0.10823,-0.267803 -0.0731,0.07839 c -0.46865,0.502552 -0.77002,0.887692 -0.85629,1.094278 l -0.03,0.07185 h 0.30157 0.30156 z"
       id="path748"
       inkscape:connector-curvature="0" />
    <path
       style="fill:#ff660f;fill-opacity:0.941176;stroke-width:0.0195923"
       d="m 125.85906,92.949551 c -0.12387,-0.03158 -0.31557,-0.08946 -0.42599,-0.128633 l -0.20075,-0.07121 V 92.34059 91.931478 l -0.0931,-0.04762 c -0.0512,-0.02619 -0.17013,-0.0963 -0.26438,-0.155781 l -0.17133,-0.108147 -0.36579,0.194587 c -0.31248,0.166225 -0.37028,0.190829 -0.39665,0.168844 -0.29046,-0.242333 -0.74572,-0.715909 -0.74572,-0.775729 0,-0.01572 0.0883,-0.181352 0.19623,-0.368075 l 0.19624,-0.339497 -0.11791,-0.195341 c -0.0649,-0.107435 -0.13243,-0.2258 -0.15018,-0.263033 -0.0177,-0.03724 -0.0508,-0.07268 -0.0735,-0.07876 -0.0227,-0.0061 -0.13811,-0.01128 -0.2566,-0.01139 -0.1185,-2e-4 -0.28755,-0.0059 -0.37569,-0.01288 l -0.16024,-0.01251 -0.04,-0.109885 c -0.022,-0.06045 -0.0456,-0.134149 -0.0524,-0.163791 l -0.0125,-0.05389 h 0.88936 0.88937 l 0.0452,0.0931 c 0.0701,0.144655 0.23653,0.391129 0.3803,0.56324 0.0719,0.0861 0.13078,0.167687 0.13078,0.18129 0,0.01361 0.008,0.02472 0.0199,0.02472 0.0109,0 0.0926,0.06279 0.18117,0.139552 0.49,0.424209 0.99284,0.669493 1.63013,0.79516 0.27292,0.05382 0.90882,0.04819 1.18494,-0.01044 0.60275,-0.128082 1.12025,-0.383743 1.57067,-0.775954 0.0936,-0.08155 0.184,-0.148278 0.20075,-0.148278 0.017,0 0.0304,-0.01664 0.0304,-0.03765 0,-0.02067 0.0475,-0.09346 0.10548,-0.161691 0.12306,-0.144661 0.29316,-0.395001 0.37539,-0.55248 l 0.0577,-0.11045 0.88626,-4.2e-5 c 0.57622,-4e-5 0.88626,0.0069 0.88626,0.01951 0,0.01438 -0.10713,0.259486 -0.1259,0.288044 -0.001,0.0019 -0.18686,0.02222 -0.41219,0.04467 -0.22534,0.02249 -0.41133,0.04281 -0.41331,0.04518 -0.002,0.0025 -0.028,0.0528 -0.0577,0.112016 -0.0297,0.05923 -0.0975,0.177822 -0.15067,0.263549 l -0.0966,0.15587 0.0386,0.06963 c 0.15153,0.273435 0.33641,0.632813 0.33641,0.653945 0,0.04608 -0.35039,0.420605 -0.57095,0.610287 -0.16844,0.144847 -0.22378,0.182366 -0.24882,0.168676 -0.0177,-0.0097 -0.1772,-0.101855 -0.35439,-0.204822 l -0.32217,-0.187222 -0.0598,0.03932 c -0.0329,0.0216 -0.15327,0.09234 -0.26757,0.157158 l -0.20781,0.117824 -0.0143,0.405768 c -0.007,0.22317 -0.0173,0.408819 -0.021,0.412559 -0.0176,0.0178 -0.43281,0.148172 -0.60681,0.190494 -0.24609,0.05986 -0.5101,0.06657 -0.5278,0.01342 -0.006,-0.01886 -0.0887,-0.166073 -0.18318,-0.327141 l -0.17177,-0.292841 -0.31045,-9.97e-4 -0.31045,-9.97e-4 -0.20446,0.328287 -0.20446,0.32828 -0.13072,-7.47e-4 c -0.0775,-4.98e-4 -0.22252,-0.02426 -0.35597,-0.05831 z"
       id="path742"
       inkscape:connector-curvature="0" />
    <path
       style="fill:#f5620e;fill-opacity:0.980392;stroke-width:0.0195923"
       d="m 125.75747,90.198803 c -0.0888,-0.02575 -0.1103,-0.09496 -0.1022,-0.329597 0.008,-0.260084 0.0152,-0.266462 0.26139,-0.266462 0.21342,0 0.2484,0.01946 0.25223,0.140403 0.002,0.06325 -0.004,0.07616 -0.0404,0.08126 -0.0276,0.0039 -0.0506,-0.0085 -0.0648,-0.03516 -0.0196,-0.03664 -0.0367,-0.04061 -0.15312,-0.03549 l -0.13105,0.0057 v 0.146992 0.146991 h 0.13683 c 0.11475,0 0.1379,-0.0055 0.14344,-0.03429 0.005,-0.02813 -0.007,-0.0343 -0.0731,-0.0343 -0.0784,0 -0.0798,-0.0013 -0.0798,-0.0695 v -0.06949 l 0.13221,0.0057 0.1322,0.0057 0.005,0.107792 c 0.006,0.134356 -0.0257,0.199052 -0.11331,0.229182 -0.0798,0.02746 -0.21898,0.02942 -0.30556,0.0042 z m -0.90387,-0.297172 0.005,-0.298887 h 0.0587 0.0587 l 0.005,0.298887 0.005,0.29888 h -0.0696 -0.0695 z m 0.19147,-0.0048 v -0.303785 h 0.0991 0.099 l 0.11147,0.230289 0.11148,0.23029 0.01,-0.225386 c 0.01,-0.224737 0.01,-0.225395 0.0587,-0.225395 h 0.049 l 0.005,0.298887 0.005,0.298878 h -0.10432 -0.10432 l -0.1098,-0.23028 -0.1098,-0.230285 -0.002,0.230285 -0.002,0.23028 h -0.0587 -0.0587 z m 1.19473,0 v -0.303785 h 0.21545 0.21544 v 0.0784 0.0784 h -0.15668 c -0.14363,0 -0.15668,0.0034 -0.15668,0.03919 0,0.0357 0.013,0.03919 0.14689,0.03919 h 0.14689 v 0.0686 0.0686 h -0.14689 c -0.13384,0 -0.14689,0.0035 -0.14689,0.03919 0,0.03593 0.013,0.03919 0.15668,0.03919 h 0.15668 v 0.07839 0.07839 h -0.21544 -0.21545 z m 0.48966,0 v -0.303785 h 0.0991 0.0991 l 0.11146,0.230289 0.11148,0.23029 0.005,-0.215319 c 0.003,-0.118423 0.0135,-0.223174 0.023,-0.232775 0.01,-0.0097 0.0401,-0.01176 0.0678,-0.0048 l 0.0504,0.01268 v 0.293608 0.293614 h -0.1136 -0.1136 l -0.1098,-0.230287 -0.1098,-0.230289 -0.002,0.230289 -0.002,0.230287 h -0.0587 -0.0587 z m 0.61154,0.0048 0.005,-0.298887 0.0539,-0.0062 0.0538,-0.0062 v 0.305087 0.30508 h -0.0593 -0.0593 z m 0.19147,-0.0048 v -0.303785 h 0.21544 0.21544 v 0.0784 0.0784 h -0.15668 c -0.14363,0 -0.15668,0.0034 -0.15668,0.03919 0,0.0357 0.013,0.03919 0.14689,0.03919 h 0.14689 v 0.0686 0.0686 h -0.14689 c -0.13384,0 -0.14689,0.0035 -0.14689,0.03919 0,0.03593 0.013,0.03919 0.15668,0.03919 h 0.15668 v 0.07839 0.07839 h -0.21544 -0.21544 z m 0.48964,-0.0017 v -0.305519 l 0.21451,0.0067 c 0.13594,0.0042 0.22336,0.01552 0.23866,0.03083 0.0396,0.03976 0.0465,0.25153 0.01,0.30737 -0.0207,0.0315 -0.0239,0.05011 -0.01,0.05488 0.0119,0.0039 0.026,0.0531 0.0314,0.109253 l 0.01,0.102056 h -0.0601 c -0.0551,0 -0.0605,-0.0059 -0.0661,-0.07235 l -0.006,-0.07234 -0.12239,-9.98e-4 -0.12238,-9.95e-4 -2e-5,0.0735 c -2e-5,0.0686 -0.004,0.0735 -0.0588,0.0735 h -0.0587 V 89.89551 Z m 0.36877,-0.0765 c -0.006,-0.05167 -0.0108,-0.05372 -0.12885,-0.05628 l -0.12243,-0.0027 2e-5,0.06273 c 1e-5,0.06261 2.2e-4,0.06273 0.11263,0.0686 0.13225,0.007 0.14719,-7.46e-4 0.13863,-0.07235 z m 0.16444,0.08313 0.005,-0.298885 h 0.0587 0.0587 l 0.005,0.298885 0.005,0.298884 h -0.0695 -0.0695 z m 0.23323,0.07839 c 0.0439,-0.12127 0.0931,-0.258413 0.10932,-0.30477 0.0295,-0.08412 0.0297,-0.08427 0.11852,-0.07839 l 0.0889,0.0058 0.10474,0.293981 c 0.0576,0.161688 0.10474,0.296188 0.10474,0.29888 0,0.0027 -0.0299,0.005 -0.0665,0.005 -0.0545,0 -0.0686,-0.0087 -0.0788,-0.04899 -0.0118,-0.04673 -0.019,-0.049 -0.15668,-0.049 -0.13769,0 -0.14496,0.0025 -0.15669,0.049 -0.0106,0.04042 -0.0241,0.04899 -0.0798,0.04899 h -0.0676 z m 0.30368,-0.05995 c -0.0233,-0.09298 -0.0744,-0.19451 -0.0896,-0.177824 -0.0129,0.01427 -0.0796,0.195816 -0.0796,0.216754 0,0.0035 0.0406,0.0063 0.0902,0.0063 0.0845,0 0.0896,-0.003 0.0789,-0.04524 z"
       id="path744"
       inkscape:connector-curvature="0" />
  </g>
</svg>
