<?xml version="1.0" encoding="UTF-8" standalone="no"?>
<!-- Created with Inkscape (http://www.inkscape.org/) -->

<svg
   width="800"
   height="780.41101"
   viewBox="0 0 211.66666 206.48375"
   version="1.1"
   id="svg8"
   inkscape:version="1.3.2 (091e20ef0f, 2023-11-25)"
   sodipodi:docname="logo-min.svg"
   xmlns:inkscape="http://www.inkscape.org/namespaces/inkscape"
   xmlns:sodipodi="http://sodipodi.sourceforge.net/DTD/sodipodi-0.dtd"
   xmlns="http://www.w3.org/2000/svg"
   xmlns:svg="http://www.w3.org/2000/svg"
   xmlns:rdf="http://www.w3.org/1999/02/22-rdf-syntax-ns#"
   xmlns:cc="http://creativecommons.org/ns#"
   xmlns:dc="http://purl.org/dc/elements/1.1/">
  <defs
     id="defs2" />
  <sodipodi:namedview
     id="base"
     pagecolor="#ffffff"
     bordercolor="#666666"
     borderopacity="1.0"
     inkscape:pageopacity="0.0"
     inkscape:pageshadow="2"
     inkscape:zoom="0.49497474"
     inkscape:cx="177.78685"
     inkscape:cy="439.41636"
     inkscape:document-units="mm"
     inkscape:current-layer="layer1"
     showgrid="true"
     inkscape:window-width="1440"
     inkscape:window-height="831"
     inkscape:window-x="0"
     inkscape:window-y="32"
     inkscape:window-maximized="1"
     inkscape:showpageshadow="2"
     inkscape:pagecheckerboard="0"
     inkscape:deskcolor="#d1d1d1">
    <inkscape:grid
       type="xygrid"
       id="grid608"
       originx="-92.675797"
       originy="56.962456"
       spacingy="1"
       spacingx="1"
       units="mm"
       visible="true" />
  </sodipodi:namedview>
  <metadata
     id="metadata5">
    <rdf:RDF>
      <cc:Work
         rdf:about="">
        <dc:format>image/svg+xml</dc:format>
        <dc:type
           rdf:resource="http://purl.org/dc/dcmitype/StillImage" />
      </cc:Work>
    </rdf:RDF>
  </metadata>
  <g
     inkscape:label="Capa 1"
     inkscape:groupmode="layer"
     id="layer1"
     transform="translate(-92.675801,-80.608948)">
    <path
       style="fill:#000000;fill-opacity:0.941176;stroke-width:0.29434"
       d="m 175.50961,194.10363 c -1.35405,-0.33751 -2.58692,-1.46931 -3.06205,-2.81094 -0.28569,-0.80657 -0.39776,-3.77519 -0.39776,-10.53577 v -9.4127 l 0.79387,-1.36418 c 1.03575,-1.77979 2.25327,-2.3181 5.24445,-2.31865 2.64818,-5.4e-4 4.13166,0.56656 5.07576,1.94026 0.59661,0.86807 0.64137,1.50283 0.73847,10.47323 0.11418,10.53778 -0.037,11.86525 -1.4889,13.06023 -1.43826,1.18388 -4.3827,1.59699 -6.90384,0.96852 z m 3.20866,-13.21402 c 0,-9.63635 -0.01,-9.81822 -0.63509,-9.81822 -0.62139,0 -0.63688,0.20582 -0.71869,9.54757 -0.046,5.25118 -0.01,9.71087 0.0784,9.91038 0.0893,0.1995 0.41249,0.32128 0.71867,0.27065 0.51821,-0.0857 0.55666,-0.77012 0.55666,-9.91038 z m 41.47397,13.04071 c -0.73617,-0.3116 -1.28524,-0.84936 -1.73489,-1.69901 -0.60931,-1.15144 -0.66699,-1.85858 -0.78179,-9.58557 -0.16712,-11.24243 0.22981,-13.29803 2.79494,-14.47646 1.52504,-0.70061 5.15332,-0.70061 6.67836,0 1.75608,0.80673 2.33294,1.93819 2.48211,4.86836 l 0.12919,2.53549 h -2.56543 -2.56539 l -0.0921,-2.25089 c -0.0838,-2.04258 -0.15093,-2.25085 -0.72732,-2.25085 -0.62335,0 -0.63509,0.18187 -0.63509,9.82197 0,9.6401 0.01,9.82197 0.63509,9.82197 0.60871,0 0.63868,-0.20667 0.72163,-4.97918 0.0749,-4.30943 0.0215,-4.97923 -0.39693,-4.97923 -0.37924,0 -0.48349,-0.35298 -0.48349,-1.63698 v -1.63699 h 3.01668 3.01668 v 8.3214 8.3214 h -1.2804 c -1.03104,0 -1.33635,-0.11947 -1.56761,-0.61386 -0.15804,-0.33765 -0.29626,-0.4744 -0.30732,-0.30395 -0.0346,0.53071 -2.10802,1.19093 -3.71988,1.18444 -0.84686,-0.004 -2.0244,-0.21136 -2.61683,-0.46206 z m 61.86844,0.2259 c -1.65284,-0.46418 -2.28028,-0.92605 -2.94553,-2.16824 -0.64109,-1.19713 -0.68803,-1.76953 -0.7914,-9.64804 -0.17424,-13.2742 0.28924,-14.45018 5.7632,-14.62593 4.67382,-0.15005 6.01366,1.12124 6.19797,5.88106 l 0.10846,2.79656 h -2.55777 -2.55777 l -0.0909,-2.66014 c -0.0837,-2.4522 -0.14045,-2.6601 -0.72595,-2.6601 -0.62335,0 -0.63509,0.18187 -0.63509,9.82197 0,9.6401 0.01,9.82197 0.63509,9.82197 0.59565,0 0.64062,-0.2074 0.72424,-3.3422 l 0.0891,-3.34219 h 2.56173 2.56176 l -0.11062,3.61504 c -0.12031,3.93492 -0.47263,4.88629 -2.22495,6.00844 -0.93845,0.60098 -4.5678,0.90444 -6.00155,0.5018 z M 109.33463,181.02977 V 167.9338 h 2.54036 2.54036 v 4.77455 4.7746 h 0.79385 0.79388 v -4.7746 -4.77455 h 2.54036 2.54038 v 13.09597 13.09598 h -2.54038 -2.54036 v -6.54798 -6.548 h -0.79388 -0.79385 v 6.548 6.54798 h -2.54036 -2.54036 z m 28.57906,0.0107 V 167.8833 l 4.52503,0.0939 c 4.06934,0.0843 4.62472,0.15485 5.51513,0.70058 1.8212,1.11617 1.8678,1.42435 1.8678,12.35278 0,8.82086 -0.062,10.07637 -0.54428,10.99132 -0.80246,1.52294 -2.07899,1.88775 -7.15618,2.04528 l -4.2075,0.13049 V 181.0406 Z m 6.5938,0.12622 c 0.0766,-8.47863 0.0373,-9.30564 -0.45763,-9.61738 -0.29796,-0.18755 -0.65731,-0.34103 -0.7986,-0.34103 -0.14124,0 -0.2568,4.36705 -0.2568,9.70454 v 9.70455 l 0.71443,-0.0873 0.7145,-0.0873 z m 10.8712,-0.15182 V 167.8808 l 4.20746,0.10205 c 4.60111,0.11164 5.78266,0.42096 6.82427,1.78681 0.47508,0.62297 0.55868,1.39342 0.55868,5.14947 0,3.99939 -0.0587,4.47258 -0.62051,5.00601 -0.6159,0.58475 -0.61517,0.6317 0.0992,6.37199 0.39576,3.18061 0.80041,6.24332 0.89922,6.80605 l 0.17957,1.02312 h -2.53722 -2.53721 l -0.18391,-1.43239 c -0.10094,-0.78779 -0.43031,-3.73438 -0.73143,-6.54798 -0.30113,-2.81359 -0.6641,-5.11562 -0.80665,-5.11562 -0.14243,0 -0.29748,2.9159 -0.3443,6.47981 l -0.0851,6.47977 -2.46097,0.0796 -2.46097,0.0797 z m 6.28739,-3.31324 c 0.60865,-0.52294 0.5114,-5.52401 -0.11794,-6.06469 -0.27441,-0.23582 -0.63167,-0.42877 -0.79385,-0.42877 -0.16574,0 -0.29487,1.49358 -0.29487,3.41042 0,3.47052 0.19023,3.9564 1.20668,3.08304 z m 38.80404,3.31658 v -13.10796 l 2.29499,0.0802 2.29501,0.08 1.19799,1.7722 1.19801,1.77221 v -1.84041 -1.84039 h 2.54038 2.54034 v 13.09596 13.09597 h -2.49779 -2.49779 l -0.16554,-7.84393 c -0.15448,-7.31542 -0.21616,-7.97262 -0.91584,-9.75378 l -0.75025,-1.90983 -0.0836,9.75377 -0.0834,9.75377 h -2.53633 -2.53635 z m 34.92996,0.0125 V 167.9347 h 4.92195 4.92194 v 1.63697 1.63701 h -2.38157 -2.3816 v 3.13757 3.13759 h 2.22281 2.22283 v 1.77341 1.77342 h -2.22283 -2.22281 v 4.77456 4.77459 h 2.3816 2.38157 v 1.7734 1.77341 h -4.92194 -4.92195 z m 14.60708,0 V 167.9347 h 2.69913 2.69913 v 11.32255 11.32257 h 2.22285 2.22281 v 1.7734 1.77341 h -4.92198 -4.92194 z m 13.972,0 V 167.9347 h 4.92194 4.92195 v 1.63697 1.63701 h -2.38157 -2.3816 v 3.13757 3.13759 h 2.22281 2.22281 v 1.77341 1.77342 h -2.22281 -2.22281 v 4.77456 4.77459 h 2.3816 2.38157 v 1.7734 1.77341 h -4.92195 -4.92194 z m -136.86202,-0.13636 v -12.95962 h 2.54038 2.54036 v 12.95957 12.95954 h -2.54036 -2.54038 z m 62.55643,0 v -12.95962 h 2.54038 2.54036 v 12.95957 12.95954 h -2.54036 -2.54038 z"
       id="path746"
       inkscape:connector-curvature="0" />
    <path
       style="fill:#28aaef;fill-opacity:0.941176;stroke-width:0.29434"
       d="m 150.69201,159.77805 c 0.56579,-1.65392 3.91302,-7.01621 6.43139,-10.30316 3.16253,-4.12769 5.65625,-6.84443 14.74697,-16.06575 9.66411,-9.80296 13.75209,-14.59517 17.8241,-20.89456 3.57502,-5.53057 6.54547,-12.20051 8.02152,-18.011822 0.70496,-2.775513 1.4051,-3.55529 2.60506,-2.901488 0.22992,0.125335 0.89385,1.894456 1.47548,3.931597 3.15943,11.066193 8.61436,20.097853 18.73999,31.027793 1.68715,1.82114 5.32605,5.57396 12.44297,12.83256 3.72375,3.79787 8.38593,9.28273 10.54235,12.40263 1.88572,2.72819 4.11313,6.57134 4.62639,7.9822 l 0.2233,0.61389 H 199.42677 150.482 Z m 25.70703,-7.77572 c 0.36591,-2.96857 1.90924,-7.74963 3.79457,-11.75525 l 1.75465,-3.72804 -1.18529,1.09132 c -7.59821,6.99594 -12.48445,12.35742 -13.88299,15.23327 l -0.48641,1.0003 h 4.88918 4.88925 z"
       id="path748"
       inkscape:connector-curvature="0" />
    <path
       style="fill:#ff660f;fill-opacity:0.941176;stroke-width:0.29434"
       d="m 180.01116,248.68672 c -2.00848,-0.43965 -5.11644,-1.24545 -6.90661,-1.7907 l -3.25486,-0.99135 v -5.69525 -5.69518 l -1.50831,-0.66301 c -0.82961,-0.36467 -2.75847,-1.3405 -4.28638,-2.16854 l -2.77807,-1.50551 -5.93054,2.70876 c -5.06624,2.31401 -6.00337,2.65654 -6.43076,2.35042 -4.70934,-3.37344 -12.09062,-9.96602 -12.09062,-10.79873 0,-0.21882 1.43174,-2.52457 3.18165,-5.12394 l 3.18167,-4.72608 -1.91176,-2.71926 c -1.05147,-1.49557 -2.14711,-3.14332 -2.43481,-3.66167 -0.28769,-0.51834 -0.82343,-1.01169 -1.19052,-1.09637 -0.3671,-0.0846 -2.23931,-0.15645 -4.16045,-0.15929 -1.92118,-0.004 -4.66211,-0.0837 -6.091,-0.17915 l -2.59803,-0.17387 -0.64773,-1.52979 c -0.35627,-0.84138 -0.73877,-1.86742 -0.85005,-2.28008 l -0.20227,-0.7503 h 14.41946 14.41946 l 0.73155,1.29596 c 1.13671,2.01371 3.83492,5.44486 6.16587,7.84076 1.1662,1.19871 2.12038,2.33439 2.12038,2.52372 0,0.18932 0.14579,0.34422 0.32368,0.34422 0.17818,0 1.4998,0.87425 2.93729,1.94276 7.9445,5.90534 16.09708,9.31981 26.42952,11.06927 4.42482,0.74918 14.73472,0.6709 19.21151,-0.14596 9.7723,-1.78299 18.16267,-5.34205 25.46537,-10.80193 1.5185,-1.13532 2.98318,-2.06421 3.25484,-2.06421 0.27538,0 0.49392,-0.23183 0.49392,-0.52385 0,-0.28811 0.76997,-1.30103 1.71105,-2.25088 1.9953,-2.01393 4.75306,-5.4988 6.0863,-7.691 l 0.93516,-1.53762 14.36891,-5.5e-4 c 9.34246,-5.5e-4 14.3689,0.0944 14.3689,0.27146 0,0.20026 -1.73669,3.61226 -2.04095,4.00978 -0.0223,0.0291 -3.0297,0.30898 -6.68308,0.62185 -3.65337,0.31286 -6.66879,0.59597 -6.70089,0.62911 -0.0324,0.0331 -0.45289,0.7348 -0.93511,1.55925 -0.48219,0.82448 -1.58156,2.47546 -2.44304,3.66886 l -1.56632,2.16984 0.6256,0.9693 c 2.45688,3.80646 5.45428,8.80929 5.45428,9.10342 0,0.64145 -5.68083,5.85519 -9.25685,8.49573 -2.7308,2.01643 -3.62804,2.5387 -4.03412,2.34815 -0.28723,-0.13458 -2.87279,-1.41786 -5.74565,-2.8513 l -5.22343,-2.60628 -0.9687,0.5474 c -0.53278,0.30107 -2.48495,1.28554 -4.33808,2.1877 l -3.36935,1.6403 -0.23085,5.64859 c -0.12683,3.10672 -0.27977,5.69117 -0.33958,5.74319 -0.2852,0.24806 -7.01729,2.06264 -9.83833,2.65187 -3.98988,0.83338 -8.27033,0.92664 -8.55717,0.18651 -0.10173,-0.26262 -1.43822,-2.31195 -2.96994,-4.55409 l -2.7849,-4.07663 -5.03337,-0.016 -5.03337,-0.016 -3.31488,4.56995 -3.31485,4.56995 -2.1195,-0.0125 c -1.25579,-0.007 -3.60773,-0.33817 -5.77129,-0.81174 z"
       id="path742"
       inkscape:connector-curvature="0" />
    <path
       style="fill:#f5620e;fill-opacity:0.980392;stroke-width:0.29434"
       d="m 178.9954,210.39406 c -1.44012,-0.35871 -1.78807,-1.32218 -1.65704,-4.5883 0.14519,-3.6206 0.24663,-3.70935 4.23786,-3.70935 3.46027,0 4.02726,0.27099 4.08941,1.95456 0.0326,0.88042 -0.0715,1.06005 -0.65435,1.13134 -0.4471,0.0546 -0.81991,-0.11894 -1.05072,-0.48954 -0.31769,-0.51006 -0.59552,-0.56534 -2.48246,-0.49401 l -2.12475,0.0802 v 2.04626 2.04624 h 2.21848 c 1.86038,0 2.23575,-0.077 2.3255,-0.47744 0.0877,-0.39167 -0.12544,-0.47745 -1.18643,-0.47745 -1.26974,0 -1.29347,-0.0178 -1.29347,-0.96742 v -0.96737 l 2.14344,0.0807 2.14342,0.0807 0.0822,1.50059 c 0.10253,1.87036 -0.4161,2.77094 -1.83696,3.19036 -1.29496,0.38228 -3.55031,0.40953 -4.9541,0.0599 z m -14.65434,-4.13697 0.0875,-4.16068 h 0.95265 0.95262 l 0.0877,4.16068 0.0875,4.16072 h -1.12793 -1.12796 z m 3.10439,-0.0681 v -4.2289 h 1.60634 1.60639 l 1.80723,3.20582 1.80726,3.20577 0.15882,-3.1376 c 0.15824,-3.12847 0.161,-3.13757 0.95264,-3.13757 h 0.79389 l 0.0875,4.16071 0.0877,4.16072 h -1.69138 -1.69138 l -1.78019,-3.20581 -1.78019,-3.20579 -0.0296,3.20579 -0.0298,3.20581 h -0.9526 -0.95264 z m 19.37026,0 v -4.2289 h 3.49298 3.493 v 1.09132 1.09137 h -2.54038 c -2.32865,0 -2.54034,0.0455 -2.54034,0.54566 0,0.49715 0.21169,0.54564 2.38157,0.54564 h 2.3816 v 0.95491 0.95495 h -2.3816 c -2.16988,0 -2.38157,0.0483 -2.38157,0.54564 0,0.50021 0.21169,0.54569 2.54034,0.54569 h 2.54038 v 1.0913 1.09137 h -3.493 -3.49298 z m 7.93862,0 v -4.2289 h 1.60637 1.60637 l 1.80724,3.20582 1.80723,3.20577 0.0909,-2.99742 c 0.05,-1.64856 0.21811,-3.10675 0.37368,-3.24037 0.15546,-0.13369 0.65047,-0.16373 1.0999,-0.0667 l 0.81709,0.17618 v 4.0873 4.08731 h -1.84185 -1.84186 l -1.78019,-3.20581 -1.78017,-3.20577 -0.0298,3.20577 -0.0298,3.20581 h -0.95262 -0.95266 z m 9.91503,0.0681 0.0877,-4.16068 0.87324,-0.0862 0.87323,-0.0862 v 4.24703 4.24703 h -0.9609 -0.96089 z m 3.10431,-0.0681 v -4.2289 h 3.49302 3.49298 v 1.09132 1.09137 h -2.54036 c -2.32868,0 -2.54036,0.0455 -2.54036,0.54566 0,0.49715 0.21168,0.54564 2.38159,0.54564 h 2.3816 v 0.95491 0.95495 h -2.3816 c -2.16991,0 -2.38159,0.0483 -2.38159,0.54564 0,0.50021 0.21168,0.54569 2.54036,0.54569 h 2.54036 v 1.0913 1.09137 h -3.49298 -3.49302 z m 7.93866,-0.0242 v -4.25304 l 3.4779,0.0923 c 2.20395,0.0587 3.62129,0.21579 3.86933,0.42934 0.64296,0.55357 0.75408,3.50151 0.16139,4.27887 -0.33434,0.43842 -0.38746,0.69761 -0.15645,0.76374 0.19221,0.0549 0.42108,0.73951 0.50847,1.521 l 0.15883,1.42081 h -0.97385 c -0.89314,0 -0.98204,-0.0836 -1.07243,-1.00709 l -0.0986,-1.00714 -1.98427,-0.016 -1.9843,-0.016 -3.1e-4,1.02311 c -3.2e-4,0.95483 -0.064,1.02312 -0.953,1.02312 h -0.95267 v -4.25308 z m 5.9788,-1.06497 c -0.10036,-0.71936 -0.17601,-0.74767 -2.08909,-0.78351 l -1.98485,-0.0371 2e-4,0.87307 c 1.9e-4,0.8715 0.004,0.87324 1.8261,0.95495 2.14418,0.096 2.38651,-0.0125 2.24764,-1.0073 z m 2.66602,1.15733 0.0877,-4.16072 h 0.95263 0.95266 l 0.0877,4.16072 0.0877,4.16072 h -1.12796 -1.12798 z m 3.78161,1.09134 c 0.71142,-1.68816 1.50896,-3.59734 1.77233,-4.24264 0.478,-1.17104 0.48159,-1.1731 1.92149,-1.09132 l 1.44257,0.082 1.69756,4.09239 c 0.93367,2.25087 1.6976,4.12317 1.6976,4.16072 0,0.0377 -0.48466,0.0683 -1.077,0.0683 -0.88397,0 -1.11268,-0.12214 -1.27623,-0.68209 -0.19004,-0.6504 -0.30799,-0.6821 -2.54036,-0.6821 -2.23235,0 -2.35037,0.0316 -2.54036,0.6821 -0.16436,0.56271 -0.39102,0.68209 -1.29517,0.68209 h -1.09589 z m 4.92342,-0.83443 c -0.37808,-1.29427 -1.20722,-2.70776 -1.45211,-2.47549 -0.20981,0.19897 -1.29066,2.72596 -1.29066,3.01747 0,0.0483 0.65848,0.0878 1.46337,0.0878 1.36997,0 1.45162,-0.04 1.2794,-0.6298 z"
       id="path744"
       inkscape:connector-curvature="0" />
    <path
       style="fill:#000000;fill-opacity:0.941176;stroke-width:0.29434"
       d="m 201.40008,278.72344 v -1.50057 h 1.58772 c 1.30433,0 1.58589,-0.0851 1.57749,-0.47744 -0.004,-0.26262 -0.55087,-4.98944 -1.21164,-10.50409 l -1.20138,-10.02661 h 1.81964 1.8196 l 0.18055,1.97803 c 0.0992,1.08792 0.29506,3.6355 0.4352,5.6613 l 0.25481,3.68324 0.26573,-5.66129 0.26574,-5.66128 h 1.8665 c 1.56599,0 1.86652,0.077 1.86642,0.47746 -6e-5,0.26262 -0.56107,5.2235 -1.24666,11.02424 -0.84101,7.11536 -1.40508,10.81008 -1.73369,11.35608 -0.58381,0.97002 -1.22302,1.14291 -4.24369,1.1478 l -2.3022,0.004 z M 109.31195,263.85406 V 251.8494 h 2.22283 2.22279 v 4.50176 c 0,3.81966 0.0721,4.50171 0.47634,4.50171 0.40413,0 0.47632,-0.68205 0.47632,-4.50171 v -4.50176 h 2.22281 2.2228 v 12.00466 12.00464 h -2.2228 -2.22281 v -5.72948 c 0,-4.911 -0.0682,-5.72948 -0.47632,-5.72948 -0.40825,0 -0.47634,0.81848 -0.47634,5.72948 v 5.72948 h -2.22279 -2.22283 z m 11.43162,2.19568 v -9.83501 h 2.06805 2.06805 l -0.0834,9.75377 -0.0834,9.75381 -1.98469,0.0811 -1.98465,0.0811 z m 6.62425,9.28741 -0.74968,-0.52157 v -8.7261 c 0,-8.3411 0.0281,-8.75273 0.63467,-9.32863 0.53075,-0.50394 0.88145,-0.58212 2.14342,-0.47794 l 1.50878,0.12462 v -2.29204 -2.29206 l 1.98465,0.0812 1.98465,0.0811 v 11.86825 11.86825 l -1.98465,0.0811 c -1.27088,0.0521 -1.98465,-0.0252 -1.98465,-0.2142 0,-0.20756 -0.18272,-0.21142 -0.61422,-0.0142 -0.94002,0.43224 -2.09365,0.33786 -2.92297,-0.23911 z m 3.53719,-9.45294 c 0,-4.39755 -0.10904,-6.64257 -0.31753,-6.5319 -0.19734,0.10471 -0.31755,2.64024 -0.31755,6.70049 0,4.17272 0.11477,6.53191 0.31755,6.53191 0.20308,0 0.31753,-2.41538 0.31753,-6.7005 z m 5.71581,0.15254 v -9.82199 h 1.90528 c 1.27019,0 1.90528,0.10898 1.90528,0.32742 0,0.25465 0.0849,0.25465 0.38106,0 0.63597,-0.54648 2.62094,-0.39853 3.30089,0.24603 0.51549,0.48866 0.62037,1.09366 0.7095,4.0925 l 0.1047,3.51906 h -1.75983 -1.75984 l -0.0913,-2.52372 c -0.0523,-1.44827 -0.2266,-2.52371 -0.40884,-2.52371 -0.20285,0 -0.34791,2.9811 -0.40158,8.25321 l -0.0842,8.25318 h -1.90059 -1.90062 z m 10.36346,9.47366 c -0.8046,-0.50553 -1.13865,-2.11383 -1.14588,-5.51758 -0.01,-3.60753 0.31388,-4.21455 2.96323,-5.59412 l 1.79119,-0.93273 v -2.12503 c 0,-1.70702 -0.0938,-2.12504 -0.47632,-2.12504 -0.37802,0 -0.4763,0.39414 -0.4763,1.90985 v 1.90982 h -1.94221 -1.9422 l 0.129,-2.76136 c 0.12228,-2.61423 0.17601,-2.79599 1.00726,-3.41042 0.74126,-0.54784 1.21975,-0.64904 3.06839,-0.64904 2.6515,0 3.66919,0.35722 4.10952,1.44249 0.20578,0.50719 0.33334,4.14722 0.33334,9.51155 v 8.68993 h -1.90526 c -1.10167,0 -1.90526,-0.11911 -1.90526,-0.28242 0,-0.19468 -0.19082,-0.19468 -0.61422,0 -0.84221,0.38726 -2.32496,0.35462 -2.99434,-0.0658 z m 3.60854,-5.55099 c 0,-2.5452 -0.0579,-2.85678 -0.47632,-2.55851 -0.35666,0.25434 -0.4763,0.93659 -0.4763,2.71629 0,1.30712 0.0952,2.45844 0.21169,2.55848 0.58637,0.50385 0.74093,-0.0628 0.74093,-2.71626 z m 6.44799,5.24119 -0.89096,-0.65814 -0.0988,-9.16386 -0.0988,-9.16385 h 1.92005 1.92004 l 0.0841,8.25321 c 0.0537,5.27209 0.19873,8.25319 0.40159,8.25319 0.20282,0 0.34789,-2.9811 0.40159,-8.25319 l 0.0841,-8.25321 h 1.90063 1.90064 v 9.82199 9.82198 h -1.9053 c -1.10166,0 -1.90527,-0.11911 -1.90527,-0.28242 0,-0.19468 -0.19083,-0.19468 -0.61423,0 -1.00649,0.46282 -2.15205,0.32394 -3.09921,-0.3757 z m 14.82755,-9.16386 v -9.82199 h 1.90525 1.9053 v 9.82199 9.82198 h -1.9053 -1.90525 z m 6.60292,9.41375 c -0.55793,-0.26957 -0.92599,-0.72538 -1.04926,-1.29944 -0.1045,-0.48634 -0.14658,-4.4712 -0.0932,-8.85526 0.11457,-9.44056 -0.10687,-8.89771 3.67839,-9.02145 4.15037,-0.13546 4.78479,0.56814 4.81525,5.34189 l 0.0178,2.80956 -1.98465,-0.0812 -1.98467,-0.0811 -0.0915,-2.52371 c -0.0502,-1.38803 -0.22885,-2.52369 -0.39692,-2.52369 -0.18767,0 -0.30562,2.63278 -0.30562,6.8208 0,4.20049 0.11773,6.82084 0.30643,6.82084 0.17107,0 0.34643,-1.23539 0.39694,-2.79653 l 0.0905,-2.79654 1.98467,-0.0811 1.98465,-0.0811 -0.01,2.80958 c -0.01,3.13162 -0.33023,4.71732 -1.08987,5.36997 -0.72286,0.62109 -5.09218,0.73876 -6.27164,0.16889 z m 9.40293,-0.16534 c -0.52444,-0.49716 -0.61863,-1.09818 -0.70806,-4.5185 -0.11971,-4.57979 -0.0581,-4.7252 2.65269,-6.2717 l 1.7373,-0.99107 v -2.14404 c 0,-1.24746 -0.13275,-2.14406 -0.31751,-2.14406 -0.18154,0 -0.31757,0.81851 -0.31757,1.90985 v 1.90983 h -1.93416 -1.9342 l 0.10846,-2.85563 c 0.13768,-3.62959 0.29351,-3.79459 3.69009,-3.90561 2.92057,-0.0956 3.88477,0.25031 4.41829,1.58455 0.26037,0.65108 0.38464,3.61689 0.39695,9.4738 l 0.0178,8.52603 h -1.88653 c -1.0376,0 -1.97509,-0.12302 -2.08332,-0.27357 -0.13157,-0.18288 -0.39403,-0.18288 -0.79174,0 -0.98938,0.45496 -2.39839,0.31636 -3.04847,-0.29988 z m 3.68193,-5.30853 c 0,-1.85111 -0.11339,-2.82058 -0.31751,-2.71226 -0.1772,0.0942 -0.31757,1.367 -0.31757,2.88087 0,1.62627 0.12702,2.71222 0.31757,2.71222 0.19162,0 0.31751,-1.1422 0.31751,-2.88083 z m 26.18402,5.54093 c -0.0838,-0.18754 -0.11497,-5.55896 -0.0695,-11.93643 l 0.083,-11.59539 3.41359,-0.0775 3.41361,-0.0775 v 1.64625 1.64621 h -1.11139 -1.1114 v 2.86476 2.86476 h 1.1114 1.11139 v 1.7734 1.77341 h -1.11139 -1.1114 v 3.95607 3.95608 h 1.1114 1.11139 v 1.77342 1.77342 h -3.34415 c -2.38247,0 -3.38803,-0.0979 -3.49654,-0.34107 z m 15.41441,-0.0107 c -0.43713,-0.18951 -0.96416,-0.77003 -1.17286,-1.29196 -0.46143,-1.15397 -0.54836,-14.31097 -0.10549,-15.9536 0.4711,-1.74694 1.2691,-2.11403 4.35554,-2.00351 3.80095,0.136 3.72744,0.0274 3.85028,5.69578 l 0.10035,4.62911 h -2.24381 -2.24373 v 3.13756 c 0,1.90987 0.12426,3.13762 0.31754,3.13762 0.18529,0 0.31755,-0.90945 0.31755,-2.18266 v -2.18269 h 1.90527 1.90528 v 2.71059 c 0,3.25179 -0.25643,3.94346 -1.61246,4.34959 -1.36337,0.40838 -4.38524,0.38257 -5.37356,-0.0459 z m 3.17547,-13.97157 c 0,-1.36416 -0.13078,-2.31909 -0.31756,-2.31909 -0.18668,0 -0.31753,0.95493 -0.31753,2.31909 0,1.36415 0.13078,2.31908 0.31753,2.31908 0.18688,0 0.31756,-0.95493 0.31756,-2.31908 z m 6.66846,13.97157 c -0.43716,-0.18951 -0.96419,-0.77003 -1.1729,-1.29196 -0.46144,-1.15397 -0.54838,-14.31097 -0.10549,-15.9536 0.47111,-1.74694 1.26909,-2.11403 4.35554,-2.00351 3.68739,0.13191 3.7236,0.17529 3.85461,4.60437 l 0.1045,3.53787 h -1.9305 -1.93053 v -2.59191 c 0,-1.54607 -0.12801,-2.59192 -0.31751,-2.59192 -0.20325,0 -0.31755,2.4555 -0.31755,6.82082 0,4.36534 0.11438,6.82084 0.31755,6.82084 0.19162,0 0.31751,-1.1368 0.31751,-2.86474 v -2.86475 h 1.9053 1.90526 v 3.39264 c 0,1.86598 -0.13256,3.69252 -0.29488,4.05902 -0.17087,0.38624 -0.72477,0.79513 -1.31754,0.97266 -1.36339,0.40838 -4.38527,0.38257 -5.37354,-0.0459 z m 10.28835,-0.0373 c -0.54149,-0.20251 -1.09965,-0.59674 -1.24036,-0.87601 -0.14065,-0.27931 -0.32134,-3.85341 -0.40141,-7.94252 -0.08,-4.08905 -0.2721,-7.43467 -0.42677,-7.43467 -0.15468,0 -0.28119,-0.67528 -0.28119,-1.50059 0,-0.82532 0.1367,-1.50058 0.30418,-1.50058 0.16732,0 0.34592,-0.95151 0.39693,-2.11446 l 0.0926,-2.11445 1.98465,-0.0811 1.98467,-0.0811 v 2.19568 c 0,2.0138 0.0525,2.19571 0.63507,2.19571 0.55814,0 0.63512,0.18188 0.63512,1.50055 0,1.31869 -0.077,1.50058 -0.63512,1.50058 -0.61812,0 -0.63507,0.1819 -0.63507,6.82084 0,6.63893 0.0158,6.82081 0.63507,6.82081 0.55814,0 0.63512,0.18189 0.63512,1.50061 v 1.50054 l -1.34958,-0.0107 c -0.74227,-0.005 -1.7926,-0.17636 -2.33405,-0.3789 z m 4.63629,-9.43238 v -9.82199 h 1.90524 c 1.10166,0 1.90527,0.11911 1.90527,0.28244 0,0.19468 0.19083,0.19468 0.61423,0 0.70857,-0.32584 2.2408,-0.36681 2.75185,-0.0738 0.83958,0.48168 1.18416,1.71516 1.33021,4.76176 l 0.15408,3.21445 h -1.94885 -1.94888 v -2.59192 c 0,-2.39452 -0.28867,-3.21533 -0.75985,-2.16035 -0.10589,0.23736 -0.19281,3.98198 -0.19281,8.32139 v 7.88986 h -1.90527 -1.90524 z m 9.52634,0 v -9.82199 h 1.90526 1.90526 v 9.82199 9.82196 h -1.90526 -1.90526 z m 6.99224,9.48616 c -1.49922,-0.67958 -1.58432,-1.18156 -1.5893,-9.37724 -10e-4,-4.66083 0.12603,-7.98893 0.32867,-8.48842 0.44031,-1.08528 1.45798,-1.44249 4.1095,-1.44249 1.85733,0 2.32559,0.0999 3.08114,0.65837 0.875,0.64657 0.89294,0.71994 1.00301,4.09249 l 0.11201,3.43413 h -1.92602 -1.92598 l -0.0913,-2.50164 c -0.062,-1.7003 -0.21847,-2.53784 -0.48825,-2.61464 -0.3105,-0.0884 -0.39693,1.38184 -0.39693,6.75328 0,5.37146 0.0863,6.84167 0.39693,6.75319 0.27458,-0.0782 0.42482,-0.96819 0.48744,-2.88748 l 0.0905,-2.7744 h 1.92529 1.92531 l -0.11063,3.67599 c -0.10173,3.38549 -0.16732,3.72464 -0.82783,4.29194 -0.58773,0.50475 -1.13238,0.63111 -3.01664,0.69995 -1.46062,0.0533 -2.58676,-0.0464 -3.08704,-0.27303 z m 9.43631,-0.005 c -0.28749,-0.18757 -0.67203,-0.68665 -0.85454,-1.10909 -0.47326,-1.0953 -0.41789,-7.25233 0.0729,-8.099 0.2174,-0.37515 1.2822,-1.17319 2.36619,-1.77343 l 1.9709,-1.09133 -0.0686,-2.02436 c -0.0454,-1.33276 -0.20428,-2.06288 -0.46561,-2.13718 -0.29252,-0.0832 -0.39691,0.39538 -0.39691,1.81972 v 1.93257 h -1.90529 -1.90526 v -2.27837 c 0,-3.92889 0.60012,-4.54248 4.44285,-4.54248 1.85702,0 2.32571,0.0999 3.08114,0.65817 l 0.89097,0.65813 0.0952,9.16384 0.0954,9.16383 h -1.92114 c -1.11263,0 -1.92118,-0.11876 -1.92118,-0.28242 0,-0.19469 -0.19083,-0.19469 -0.61422,0 -0.83722,0.385 -2.32787,0.35549 -2.96256,-0.0585 z m 3.50906,-5.65694 c 0.081,-2.5073 0.0373,-2.77794 -0.39693,-2.46814 -0.64253,0.45818 -0.72892,5.57908 -0.0911,5.39734 0.2752,-0.0784 0.42486,-0.97685 0.488,-2.9292 z m -121.23456,-6.1432 v -11.86823 h 1.90529 1.90526 v 11.86823 11.86825 h -1.90526 -1.90529 z m 60.33359,0 v -11.86823 h 1.90528 1.90527 v 11.86823 11.86825 h -1.90527 -1.90528 z m -77.61582,-8.93527 c 0.9713,-2.64376 0.83545,-2.51667 2.78511,-2.60552 0.98743,-0.045 1.79531,9.8e-4 1.79531,0.10311 0,0.10187 -0.43914,0.84454 -0.97593,1.65061 -0.95252,1.43042 -1.01016,1.46558 -2.40299,1.46558 -1.33503,0 -1.41248,-0.0396 -1.2015,-0.61387 z m 85.73719,0 c 0.97132,-2.64376 0.83547,-2.51667 2.78512,-2.60552 0.98742,-0.045 1.79532,-0.0178 1.79532,0.0622 0,0.0791 -0.38699,0.82197 -0.86001,1.6506 l -0.86001,1.50661 h -1.54296 c -1.45525,0 -1.53016,-0.0349 -1.31746,-0.61386 z m -113.86392,-1.43211 v -1.50056 h 2.06404 2.06402 v 1.50056 1.50059 h -2.06402 -2.06404 z m 51.12479,0 v -1.50056 h 1.90525 1.9053 v 1.50056 1.50059 h -1.9053 -1.90525 z m 95.58112,0 v -1.50056 h 1.90526 1.90526 v 1.50056 1.50059 h -1.90526 -1.90526 z"
       id="path740"
       inkscape:connector-curvature="0" />
  </g>
</svg>
