<?xml version="1.0" encoding="UTF-8" standalone="no"?>
<!-- Created with Inkscape (http://www.inkscape.org/) -->

<svg
   width="180"
   height="180"
   viewBox="0 0 47.624998 47.625002"
   version="1.1"
   id="svg8"
   inkscape:version="1.3.2 (091e20ef0f, 2023-11-25)"
   sodipodi:docname="apple-touch-icon.svg"
   xmlns:inkscape="http://www.inkscape.org/namespaces/inkscape"
   xmlns:sodipodi="http://sodipodi.sourceforge.net/DTD/sodipodi-0.dtd"
   xmlns="http://www.w3.org/2000/svg"
   xmlns:svg="http://www.w3.org/2000/svg"
   xmlns:rdf="http://www.w3.org/1999/02/22-rdf-syntax-ns#"
   xmlns:cc="http://creativecommons.org/ns#"
   xmlns:dc="http://purl.org/dc/elements/1.1/">
  <defs
     id="defs2" />
  <sodipodi:namedview
     id="base"
     pagecolor="#ffffff"
     bordercolor="#666666"
     borderopacity="1.0"
     inkscape:pageopacity="0.0"
     inkscape:pageshadow="2"
     inkscape:zoom="1.4142136"
     inkscape:cx="118.79394"
     inkscape:cy="50.558135"
     inkscape:document-units="px"
     inkscape:current-layer="layer1"
     showgrid="true"
     inkscape:window-width="1440"
     inkscape:window-height="831"
     inkscape:window-x="0"
     inkscape:window-y="32"
     inkscape:window-maximized="1"
     inkscape:showpageshadow="2"
     inkscape:pagecheckerboard="0"
     inkscape:deskcolor="#d1d1d1">
    <inkscape:grid
       type="xygrid"
       id="grid608"
       originx="-120.66768"
       originy="34.68457"
       spacingy="1"
       spacingx="1"
       units="mm"
       visible="true" />
  </sodipodi:namedview>
  <metadata
     id="metadata5">
    <rdf:RDF>
      <cc:Work
         rdf:about="">
        <dc:format>image/svg+xml</dc:format>
        <dc:type
           rdf:resource="http://purl.org/dc/dcmitype/StillImage" />
      </cc:Work>
    </rdf:RDF>
  </metadata>
  <g
     inkscape:label="Capa 1"
     inkscape:groupmode="layer"
     id="layer1"
     transform="translate(-120.66769,-81.267389)">
    <path
       style="fill:#ffffff;fill-opacity:1;stroke-width:0.0641245"
       d="m 125.64041,128.34383 c -0.24406,-0.0513 -0.71476,-0.22844 -1.04599,-0.39345 -0.503,-0.25058 -0.69206,-0.39193 -1.14756,-0.85802 -0.45589,-0.46647 -0.59338,-0.65908 -0.83818,-1.17422 -0.52972,-1.1147 -0.48657,0.72011 -0.48657,-20.69179 0,-21.411895 -0.043,-19.577082 0.48657,-20.691783 0.2448,-0.515134 0.38229,-0.707747 0.83818,-1.174221 0.45589,-0.466472 0.64413,-0.607154 1.14756,-0.85763 1.08901,-0.541816 -0.67371,-0.497866 19.96871,-0.497866 20.64241,0 18.87969,-0.04395 19.96868,0.497866 0.50346,0.250476 0.6917,0.391158 1.14759,0.85763 0.45589,0.466474 0.59338,0.659087 0.83816,1.174221 0.52972,1.114701 0.4866,-0.720112 0.4866,20.691783 0,21.4119 0.043,19.57709 -0.4866,20.69179 -0.24478,0.51514 -0.38227,0.70775 -0.83816,1.17422 -0.45589,0.46647 -0.64413,0.60714 -1.14759,0.85764 -1.08959,0.5421 0.68163,0.49852 -20.01356,0.49258 -15.78632,-0.004 -18.49783,-0.0188 -18.87784,-0.0987 z"
       id="path1701"
       inkscape:connector-curvature="0" />
    <path
       style="fill:#000000;fill-opacity:0.941176;stroke-width:0.0734643"
       d="m 138.99526,109.91699 c -0.30951,-0.092 -0.59136,-0.4004 -0.69998,-0.76601 -0.0652,-0.2198 -0.0909,-1.02876 -0.0909,-2.87105 v -2.56505 l 0.18147,-0.37173 c 0.23676,-0.48502 0.5151,-0.63171 1.19888,-0.63186 0.60537,-1.4e-4 0.94449,0.15439 1.16031,0.52873 0.13638,0.23657 0.14661,0.40954 0.16883,2.85403 0.0261,2.87162 -0.009,3.23339 -0.34038,3.559 -0.32877,0.32263 -1.00188,0.43518 -1.57822,0.26394 z m 0.73351,-3.60091 c 0,-2.62598 -0.003,-2.67555 -0.14518,-2.67555 -0.14205,0 -0.1456,0.0561 -0.16431,2.60179 -0.0105,1.43099 -0.003,2.64627 0.0178,2.70067 0.0204,0.0544 0.0943,0.0876 0.1643,0.0737 0.11847,-0.0233 0.12724,-0.20986 0.12724,-2.70064 z m 9.48089,3.55368 c -0.16828,-0.085 -0.2938,-0.23147 -0.39659,-0.46299 -0.13928,-0.31377 -0.15247,-0.50648 -0.17872,-2.61214 -0.0383,-3.06365 0.0526,-3.6238 0.63893,-3.94495 0.34861,-0.1909 1.17805,-0.1909 1.52667,0 0.40143,0.21986 0.53331,0.52819 0.56739,1.32667 l 0.0295,0.69093 h -0.58645 -0.58644 l -0.0211,-0.61338 c -0.0191,-0.55661 -0.0345,-0.61337 -0.16626,-0.61337 -0.14249,0 -0.14518,0.0496 -0.14518,2.67655 0,2.62701 0.003,2.67658 0.14518,2.67658 0.13917,0 0.14601,-0.0563 0.16496,-1.35687 0.017,-1.17435 0.005,-1.35686 -0.0907,-1.35686 -0.0867,0 -0.11052,-0.0962 -0.11052,-0.44611 v -0.44608 h 0.6896 0.68962 v 2.26763 2.26765 h -0.29271 c -0.2357,0 -0.30548,-0.0325 -0.35836,-0.16729 -0.0361,-0.092 -0.0677,-0.12928 -0.0704,-0.0829 -0.009,0.14462 -0.48189,0.32453 -0.85034,0.32278 -0.1936,-7.6e-4 -0.46279,-0.0576 -0.59821,-0.12593 z m 14.14306,0.0614 c -0.37783,-0.12647 -0.52127,-0.25233 -0.67335,-0.59084 -0.14655,-0.32622 -0.15727,-0.48221 -0.18092,-2.62917 -0.0396,-3.61731 0.0663,-3.93778 1.31747,-3.98566 1.06844,-0.041 1.37472,0.30554 1.41686,1.60264 l 0.0248,0.76206 h -0.58469 -0.5847 l -0.0208,-0.7249 c -0.0192,-0.66823 -0.0323,-0.72491 -0.16594,-0.72491 -0.1425,0 -0.1452,0.0496 -0.1452,2.67657 0,2.62699 0.003,2.67655 0.1452,2.67655 0.13616,0 0.14642,-0.0565 0.16556,-0.91078 l 0.0203,-0.91076 h 0.5856 0.58562 l -0.0252,0.98513 c -0.0274,1.0723 -0.10805,1.33155 -0.50862,1.63735 -0.21453,0.16376 -1.04419,0.24646 -1.37194,0.13672 z m -39.48498,-3.57704 v -3.56874 h 0.58072 0.58074 v 1.3011 1.30112 h 0.18148 0.18147 v -1.30112 -1.3011 h 0.5807 0.58075 v 3.56874 3.56875 h -0.58075 -0.5807 v -1.78439 -1.78436 h -0.18147 -0.18148 v 1.78436 1.78439 h -0.58074 -0.58072 z m 6.53316,0.003 v -3.58542 l 1.0344,0.0254 c 0.93024,0.0229 1.05721,0.0422 1.26075,0.19093 0.41633,0.30415 0.42699,0.38814 0.42699,3.36622 0,2.40375 -0.0142,2.74587 -0.12443,2.9952 -0.18344,0.41502 -0.47526,0.51444 -1.6359,0.55737 l -0.96181,0.0355 z m 1.50731,0.0344 c 0.0175,-2.31049 0.009,-2.53587 -0.1046,-2.6208 -0.0681,-0.0512 -0.15027,-0.093 -0.18255,-0.093 -0.0324,0 -0.0587,1.19005 -0.0587,2.64455 v 2.64454 l 0.16331,-0.0238 0.16335,-0.0238 z m 2.48515,-0.0414 v -3.57916 l 0.96182,0.0278 c 1.0518,0.0304 1.32191,0.1147 1.56002,0.48693 0.10861,0.16976 0.12771,0.3797 0.12771,1.40326 0,1.08987 -0.0134,1.21882 -0.14184,1.36417 -0.14079,0.15934 -0.14063,0.17215 0.0227,1.73641 0.0904,0.86673 0.18297,1.70135 0.20557,1.85468 l 0.0411,0.27883 h -0.58001 -0.57999 l -0.042,-0.39034 c -0.0232,-0.21469 -0.0984,-1.01764 -0.1672,-1.78437 -0.0688,-0.76673 -0.15181,-1.39404 -0.18441,-1.39404 -0.0327,0 -0.068,0.79461 -0.0787,1.7658 l -0.0194,1.76576 -0.56258,0.0217 -0.56258,0.0217 z m 1.4373,-0.90288 c 0.13912,-0.1425 0.1169,-1.50531 -0.0269,-1.65265 -0.0627,-0.0643 -0.14438,-0.11684 -0.18147,-0.11684 -0.0379,0 -0.0674,0.407 -0.0674,0.92935 0,0.94572 0.0435,1.07812 0.27585,0.84014 z m 8.87054,0.90379 v -3.57199 l 0.52466,0.022 0.52462,0.022 0.27386,0.48293 0.27387,0.48293 v -0.50153 -0.50152 h 0.58071 0.58073 v 3.56874 3.56875 h -0.57099 -0.57099 l -0.0378,-2.13753 c -0.0352,-1.99351 -0.0494,-2.17259 -0.20936,-2.65797 l -0.1715,-0.52044 -0.0191,2.65798 -0.019,2.65796 h -0.57978 -0.57983 z m 7.98497,0.003 v -3.56947 h 1.12516 1.12515 v 0.4461 0.44609 h -0.54443 -0.54444 v 0.85501 0.85501 h 0.50814 0.50812 v 0.48327 0.48327 h -0.50812 -0.50814 v 1.3011 1.30109 h 0.54444 0.54443 v 0.48329 0.48327 h -1.12515 -1.12516 z m 3.33915,0 v -3.56947 h 0.61702 0.61703 v 3.08548 3.08546 h 0.50813 0.50812 v 0.48329 0.48327 h -1.12514 -1.12516 z m 3.19398,0 v -3.56947 h 1.12515 1.12517 v 0.4461 0.44609 h -0.54444 -0.54443 v 0.85501 0.85501 h 0.50813 0.50814 v 0.48327 0.48327 h -0.50814 -0.50813 v 1.3011 1.30109 h 0.54443 0.54444 v 0.48329 0.48327 h -1.12517 -1.12515 z m -31.28649,-0.0372 v -3.53157 h 0.58072 0.58072 v 3.53156 3.53158 h -0.58072 -0.58072 z m 14.30034,0 v -3.53157 h 0.5807 0.58073 v 3.53156 3.53158 h -0.58073 -0.5807 z"
       id="path746"
       inkscape:connector-curvature="0" />
    <path
       style="fill:#28aaef;fill-opacity:0.941176;stroke-width:0.076431"
       d="m 132.50443,100.56304 c 0.13999,-0.45072 0.96821,-1.911985 1.59134,-2.807704 0.78253,-1.124822 1.39956,-1.86515 3.64891,-4.378027 2.39123,-2.671376 3.40274,-3.977285 4.41029,-5.693919 0.88459,-1.507115 1.61957,-3.32472 1.98481,-4.90834 0.17443,-0.75635 0.34767,-0.96884 0.64459,-0.790677 0.0569,0.03415 0.22117,0.516252 0.36508,1.071383 0.78176,3.015619 2.13148,5.476813 4.63691,8.455291 0.41746,0.496272 1.31784,1.518948 3.07882,3.496969 0.92138,1.034944 2.07498,2.529608 2.60854,3.379801 0.4666,0.743457 1.01773,1.790723 1.14472,2.175223 l 0.0553,0.16727 h -12.11065 -12.11062 z m 6.36079,-2.118961 c 0.0905,-0.808951 0.47242,-2.111821 0.93891,-3.203383 l 0.43417,-1.015914 -0.29329,0.297393 c -1.88005,1.906443 -3.08907,3.367481 -3.43512,4.151172 l -0.12037,0.272588 h 1.20977 1.20976 z"
       id="path748"
       inkscape:connector-curvature="0" />
    <path
       style="fill:#ff660f;fill-opacity:0.941176;stroke-width:0.076431"
       d="m 139.66088,124.79126 c -0.49697,-0.1198 -1.26599,-0.33939 -1.70893,-0.48798 l -0.80536,-0.27015 v -1.55198 -1.55198 l -0.37323,-0.18067 c -0.20526,-0.0994 -0.68253,-0.3653 -1.06059,-0.59095 l -0.68738,-0.41028 -1.46742,0.73817 c -1.25357,0.63059 -1.48545,0.72392 -1.59118,0.64052 -1.16526,-0.91931 -2.99164,-2.71582 -2.99164,-2.94275 0,-0.0597 0.35425,-0.68797 0.78724,-1.3963 l 0.78725,-1.28789 -0.47303,-0.74103 c -0.26016,-0.40755 -0.53127,-0.85657 -0.60246,-0.99782 -0.0712,-0.14126 -0.20374,-0.2757 -0.29458,-0.29877 -0.0908,-0.023 -0.55407,-0.0426 -1.02944,-0.0434 -0.47535,-7.5e-4 -1.15355,-0.0228 -1.50711,-0.0489 l -0.64284,-0.0474 -0.16028,-0.41688 c -0.0882,-0.22929 -0.18279,-0.50888 -0.21033,-0.62134 l -0.05,-0.20446 h 3.56787 3.56786 l 0.18102,0.35316 c 0.28125,0.54875 0.94889,1.48376 1.52565,2.13667 0.28855,0.32664 0.52465,0.63613 0.52465,0.68772 0,0.0516 0.036,0.0938 0.0801,0.0938 0.0439,0 0.3711,0.23823 0.72678,0.52939 1.96574,1.60925 3.98298,2.53974 6.53958,3.01647 1.09486,0.20416 3.64587,0.18283 4.75358,-0.0399 2.41801,-0.48588 4.49408,-1.45573 6.30102,-2.94359 0.37573,-0.30939 0.73814,-0.5625 0.80535,-0.5625 0.0682,0 0.12222,-0.0631 0.12222,-0.14277 0,-0.0785 0.19051,-0.35452 0.42337,-0.61339 0.49371,-0.54877 1.17608,-1.49844 1.50596,-2.09585 l 0.2314,-0.41899 3.55536,-1.6e-4 c 2.31164,-1.5e-4 3.55537,0.0257 3.55537,0.074 0,0.0545 -0.42974,0.98437 -0.50503,1.09271 -0.005,0.007 -0.74965,0.0843 -1.65361,0.16945 -0.90397,0.0853 -1.65009,0.16241 -1.65802,0.17141 -0.008,0.01 -0.11208,0.20025 -0.23139,0.42493 -0.11931,0.22468 -0.39134,0.67458 -0.60448,0.99979 l -0.38757,0.5913 0.1548,0.26414 c 0.60792,1.03729 1.34956,2.40059 1.34956,2.48076 0,0.17478 -1.40562,1.59557 -2.29045,2.31514 -0.67568,0.54948 -0.89771,0.69181 -0.99817,0.63987 -0.0711,-0.0367 -0.71084,-0.38636 -1.42169,-0.77699 l -1.29246,-0.71024 -0.23969,0.14919 c -0.13183,0.0819 -0.61485,0.35031 -1.07338,0.59617 l -0.83369,0.44698 -0.0572,1.53929 c -0.0314,0.8466 -0.0693,1.55086 -0.084,1.56505 -0.0706,0.0676 -1.73634,0.56209 -2.43434,0.72264 -0.98725,0.22711 -2.04638,0.25253 -2.11735,0.0509 -0.0252,-0.0716 -0.35587,-0.63 -0.73487,-1.24102 l -0.68907,-1.1109 -1.24543,-0.004 -1.24543,-0.004 -0.82023,1.24536 -0.82021,1.24533 -0.52442,-0.003 c -0.31073,-0.002 -0.89268,-0.0921 -1.42803,-0.2212 z"
       id="path742"
       inkscape:connector-curvature="0" />
    <path
       style="fill:#f5620e;fill-opacity:0.980392;stroke-width:0.076431"
       d="m 139.25157,114.35624 c -0.35634,-0.0978 -0.44245,-0.36029 -0.41002,-1.25035 0.0358,-0.98662 0.061,-1.01082 1.04859,-1.01082 0.8562,0 0.9965,0.0738 1.01188,0.53262 0.008,0.23993 -0.0177,0.28888 -0.16191,0.30831 -0.11064,0.0148 -0.20289,-0.0324 -0.25999,-0.1334 -0.0787,-0.13899 -0.14735,-0.15406 -0.61425,-0.13462 l -0.52573,0.022 v 0.55762 0.55761 h 0.54892 c 0.46033,0 0.55321,-0.0209 0.5754,-0.13011 0.0218,-0.10672 -0.031,-0.13011 -0.29355,-0.13011 -0.31417,0 -0.32004,-0.004 -0.32004,-0.26363 v -0.26357 l 0.53036,0.0221 0.53035,0.022 0.0203,0.40892 c 0.0253,0.50967 -0.10296,0.75511 -0.45453,0.8694 -0.32042,0.10421 -0.87846,0.11161 -1.22581,0.0163 z m -3.62599,-1.12734 0.0217,-1.13383 h 0.23573 0.23571 l 0.0217,1.13383 0.0217,1.13381 h -0.2791 -0.27909 z m 0.76813,-0.0185 v -1.15241 h 0.39747 0.39747 l 0.44717,0.87361 0.44719,0.8736 0.0393,-0.85501 c 0.0391,-0.85254 0.0398,-0.85503 0.23572,-0.85503 h 0.19644 l 0.0217,1.13383 0.0217,1.13381 h -0.4185 -0.41852 l -0.44047,-0.87359 -0.44048,-0.87358 -0.007,0.87358 -0.007,0.87359 h -0.23571 -0.23571 z m 4.79287,0 v -1.15241 h 0.86429 0.86428 v 0.2974 0.2974 h -0.62858 c -0.57618,0 -0.62855,0.0125 -0.62855,0.1487 0,0.13546 0.0524,0.1487 0.58928,0.1487 h 0.58929 v 0.26021 0.26023 h -0.58929 c -0.53691,0 -0.58928,0.0131 -0.58928,0.1487 0,0.1363 0.0524,0.1487 0.62855,0.1487 h 0.62858 v 0.29738 0.29739 h -0.86428 -0.86429 z m 1.96429,0 v -1.15241 h 0.39747 0.39747 l 0.44716,0.87361 0.44719,0.8736 0.0224,-0.81682 c 0.0123,-0.44923 0.054,-0.84661 0.0925,-0.88303 0.0386,-0.0364 0.16095,-0.0445 0.27215,-0.0182 l 0.20219,0.0482 v 1.11381 1.11383 h -0.45574 -0.45576 l -0.44047,-0.8736 -0.44047,-0.87361 -0.007,0.87361 -0.007,0.8736 h -0.23571 -0.23571 z m 2.45332,0.0185 0.0217,-1.13383 0.21609,-0.0234 0.21606,-0.0237 v 1.15734 1.15734 h -0.23775 -0.23778 z m 0.76812,-0.0185 v -1.15241 h 0.86429 0.86428 v 0.2974 0.2974 h -0.62858 c -0.57618,0 -0.62856,0.0125 -0.62856,0.1487 0,0.13546 0.0524,0.1487 0.58929,0.1487 h 0.58929 v 0.26021 0.26023 h -0.58929 c -0.53691,0 -0.58929,0.0131 -0.58929,0.1487 0,0.1363 0.0524,0.1487 0.62856,0.1487 h 0.62858 v 0.29738 0.29739 h -0.86428 -0.86429 z m 1.96428,-0.006 v -1.15899 l 0.86056,0.0251 c 0.54534,0.016 0.89603,0.0589 0.95741,0.11701 0.15908,0.15084 0.18659,0.95418 0.0398,1.16601 -0.0828,0.11948 -0.0959,0.19011 -0.0386,0.20815 0.0476,0.0148 0.10419,0.20149 0.12581,0.41447 l 0.0393,0.38718 h -0.24097 c -0.22097,0 -0.24299,-0.0228 -0.26535,-0.27445 l -0.0244,-0.27445 -0.49097,-0.004 -0.49099,-0.004 -8e-5,0.27881 c -8e-5,0.2602 -0.0159,0.2788 -0.2358,0.2788 h -0.23571 v -1.15898 z m 1.47937,-0.29021 c -0.0249,-0.19604 -0.0435,-0.20375 -0.51691,-0.21351 l -0.49112,-0.0106 5e-5,0.23794 c 5e-5,0.23748 8.9e-4,0.23796 0.45183,0.26021 0.53055,0.0262 0.59051,-0.003 0.55615,-0.27449 z m 0.65965,0.31537 0.0217,-1.13382 h 0.23571 0.23572 l 0.0217,1.13382 0.0217,1.13382 h -0.2791 -0.27908 z m 0.93572,0.29739 c 0.17602,-0.46004 0.37336,-0.98029 0.43853,-1.15615 0.11827,-0.31909 0.11916,-0.31967 0.47545,-0.29737 l 0.35694,0.0223 0.42003,1.11522 c 0.23103,0.61337 0.42005,1.12359 0.42005,1.13381 0,0.0106 -0.11993,0.0186 -0.26649,0.0186 -0.21872,0 -0.27533,-0.0333 -0.31579,-0.18586 -0.047,-0.17725 -0.0762,-0.18588 -0.62857,-0.18588 -0.55236,0 -0.58156,0.01 -0.62858,0.18588 -0.0407,0.15334 -0.0968,0.18586 -0.32046,0.18586 h -0.27117 z m 1.21822,-0.22738 c -0.0935,-0.35269 -0.29871,-0.73788 -0.35931,-0.67458 -0.0518,0.0542 -0.31935,0.74284 -0.31935,0.82227 0,0.0131 0.16295,0.0239 0.3621,0.0239 0.33896,0 0.35918,-0.011 0.31656,-0.17161 z"
       id="path744"
       inkscape:connector-curvature="0" />
  </g>
</svg>
