<?xml version="1.0" encoding="UTF-8" standalone="no"?>
<!-- Created with Inkscape (http://www.inkscape.org/) -->

<svg
   width="32"
   height="32"
   viewBox="0 0 8.4666663 8.466667"
   version="1.1"
   id="svg8"
   inkscape:version="1.3.2 (091e20ef0f, 2023-11-25)"
   sodipodi:docname="favicon-32x32.svg"
   xmlns:inkscape="http://www.inkscape.org/namespaces/inkscape"
   xmlns:sodipodi="http://sodipodi.sourceforge.net/DTD/sodipodi-0.dtd"
   xmlns="http://www.w3.org/2000/svg"
   xmlns:svg="http://www.w3.org/2000/svg"
   xmlns:rdf="http://www.w3.org/1999/02/22-rdf-syntax-ns#"
   xmlns:cc="http://creativecommons.org/ns#"
   xmlns:dc="http://purl.org/dc/elements/1.1/">
  <defs
     id="defs2" />
  <sodipodi:namedview
     id="base"
     pagecolor="#ffffff"
     bordercolor="#666666"
     borderopacity="1.0"
     inkscape:pageopacity="0.0"
     inkscape:pageshadow="2"
     inkscape:zoom="11.313708"
     inkscape:cx="13.611806"
     inkscape:cy="16.484427"
     inkscape:document-units="px"
     inkscape:current-layer="layer1"
     showgrid="true"
     inkscape:window-width="1440"
     inkscape:window-height="831"
     inkscape:window-x="0"
     inkscape:window-y="32"
     inkscape:window-maximized="1"
     inkscape:showpageshadow="2"
     inkscape:pagecheckerboard="0"
     inkscape:deskcolor="#d1d1d1">
    <inkscape:grid
       type="xygrid"
       id="grid608"
       originx="-120.66768"
       originy="34.68457"
       spacingy="1"
       spacingx="1"
       units="mm"
       visible="true" />
  </sodipodi:namedview>
  <metadata
     id="metadata5">
    <rdf:RDF>
      <cc:Work
         rdf:about="">
        <dc:format>image/svg+xml</dc:format>
        <dc:type
           rdf:resource="http://purl.org/dc/dcmitype/StillImage" />
      </cc:Work>
    </rdf:RDF>
  </metadata>
  <g
     inkscape:label="Capa 1"
     inkscape:groupmode="layer"
     id="layer1"
     transform="translate(-120.66769,-81.267389)">
    <path
       style="fill:#ffffff;fill-opacity:1;stroke-width:0.010906"
       d="m 121.57307,89.46229 c -0.0422,-0.0086 -0.12351,-0.03825 -0.18075,-0.06587 -0.0869,-0.04194 -0.11958,-0.06561 -0.19828,-0.143635 -0.0787,-0.07808 -0.10251,-0.11033 -0.14483,-0.196564 -0.0915,-0.186602 -0.084,0.120546 -0.084,-3.463827 0,-3.584373 -0.008,-3.277224 0.084,-3.463826 0.0423,-0.08623 0.0661,-0.118477 0.14483,-0.196566 0.0787,-0.07808 0.11133,-0.101642 0.19828,-0.143568 0.18818,-0.0907 -0.11641,-0.08334 3.45043,-0.08334 3.56682,0 3.26224,-0.0073 3.4504,0.08334 0.0871,0.04193 0.11958,0.06548 0.19831,0.143568 0.0787,0.07809 0.1025,0.110333 0.14481,0.196566 0.0915,0.186602 0.084,-0.120547 0.084,3.463826 0,3.584373 0.008,3.277225 -0.084,3.463827 -0.0423,0.08623 -0.0661,0.118479 -0.14481,0.196564 -0.0788,0.07809 -0.11133,0.101642 -0.19831,0.143572 -0.18827,0.09075 0.11776,0.08346 -3.45816,0.08246 -2.72774,-7.91e-4 -3.19626,-0.0031 -3.26192,-0.01653 z"
       id="path1701"
       inkscape:connector-curvature="0" />
    <path
       style="fill:#000000;fill-opacity:0.941176;stroke-width:0.0124944"
       d="m 123.88054,86.377619 c -0.0535,-0.01539 -0.10218,-0.06703 -0.12092,-0.128231 -0.0111,-0.0368 -0.0157,-0.172216 -0.0157,-0.480618 v -0.429392 l 0.0313,-0.06222 c 0.041,-0.08119 0.0891,-0.105749 0.20717,-0.105775 0.1047,-2.4e-5 0.1632,0.02584 0.2005,0.08851 0.0236,0.0396 0.0253,0.06856 0.0291,0.477768 0.004,0.480711 -0.001,0.541271 -0.0587,0.59578 -0.0569,0.05401 -0.1731,0.07285 -0.2727,0.04418 z m 0.12672,-0.602797 c 0,-0.439592 -4.6e-4,-0.447889 -0.0251,-0.447889 -0.0245,0 -0.0252,0.0094 -0.0284,0.435542 -0.002,0.23955 -4.9e-4,0.442988 0.003,0.452094 0.003,0.0091 0.0163,0.01467 0.0284,0.01234 0.0203,-0.0039 0.022,-0.03513 0.022,-0.452091 z m 1.63823,0.594889 c -0.029,-0.01422 -0.0508,-0.03875 -0.0686,-0.07751 -0.0241,-0.05252 -0.0264,-0.08479 -0.0308,-0.437275 -0.005,-0.512858 0.009,-0.606627 0.11044,-0.660388 0.0603,-0.03196 0.20356,-0.03196 0.2638,0 0.0694,0.0368 0.0921,0.08842 0.0981,0.222085 l 0.004,0.115665 h -0.10129 -0.1013 l -0.003,-0.102679 c -0.003,-0.09318 -0.005,-0.102679 -0.0287,-0.102679 -0.0247,0 -0.0252,0.0083 -0.0252,0.448057 0,0.439763 4.9e-4,0.448062 0.0252,0.448062 0.0241,0 0.0253,-0.0094 0.0285,-0.227141 0.002,-0.196589 9.7e-4,-0.227141 -0.0157,-0.227141 -0.0149,0 -0.019,-0.0161 -0.019,-0.07468 v -0.07468 h 0.1192 0.1192 v 0.379604 0.379605 h -0.0506 c -0.0407,0 -0.0528,-0.0054 -0.062,-0.028 -0.005,-0.0154 -0.0121,-0.02164 -0.0121,-0.01387 -0.001,0.02421 -0.0833,0.05432 -0.14694,0.05403 -0.0334,-1.26e-4 -0.08,-0.0096 -0.10339,-0.02108 z m 2.4438,0.01027 c -0.0652,-0.02117 -0.0901,-0.04224 -0.11628,-0.09891 -0.0253,-0.05461 -0.0273,-0.08072 -0.0312,-0.440125 -0.008,-0.605542 0.0111,-0.65919 0.22763,-0.667206 0.18461,-0.0069 0.23754,0.05115 0.24481,0.268284 l 0.004,0.12757 h -0.10096 -0.10097 l -0.003,-0.121348 c -0.003,-0.111864 -0.006,-0.121351 -0.0287,-0.121351 -0.0248,0 -0.0251,0.0083 -0.0251,0.448059 0,0.439762 4.7e-4,0.44806 0.0251,0.44806 0.0236,0 0.0253,-0.0094 0.0285,-0.152465 l 0.003,-0.152465 h 0.10119 0.10118 l -0.004,0.164913 c -0.004,0.179504 -0.0187,0.222903 -0.0879,0.274093 -0.0371,0.02741 -0.18042,0.04126 -0.23706,0.02289 z m -6.82265,-0.5988 v -0.597415 h 0.10042 0.10041 v 0.217806 0.217808 h 0.0314 0.0313 v -0.217808 -0.217806 h 0.10031 0.10041 v 0.597411 0.597413 h -0.10041 -0.10031 v -0.298709 -0.298704 h -0.0313 -0.0314 v 0.298704 0.298709 h -0.10041 -0.10042 z m 1.12887,4.74e-4 v -0.600204 l 0.17875,0.0043 c 0.16072,0.0039 0.18267,0.0071 0.21783,0.03196 0.0719,0.05092 0.0738,0.06498 0.0738,0.56351 0,0.40239 -0.002,0.459662 -0.0215,0.501399 -0.0318,0.06947 -0.0822,0.08612 -0.28267,0.0933 l -0.1662,0.006 z m 0.26045,0.0058 c 0.002,-0.386778 0.001,-0.424507 -0.0181,-0.438724 -0.0121,-0.0086 -0.0261,-0.01557 -0.0317,-0.01557 -0.006,0 -0.01,0.199218 -0.01,0.442702 v 0.442699 l 0.0282,-0.004 0.0281,-0.004 z m 0.42941,-0.0069 v -0.599157 l 0.16619,0.0046 c 0.18175,0.0051 0.22844,0.0192 0.26957,0.08151 0.0187,0.02842 0.0221,0.06356 0.0221,0.234909 0,0.182444 -0.002,0.204032 -0.0246,0.228363 -0.0243,0.02668 -0.0243,0.02882 0.003,0.290677 0.0157,0.145092 0.0317,0.284807 0.0355,0.310476 l 0.008,0.04668 h -0.1002 -0.1002 l -0.008,-0.06535 c -0.003,-0.03594 -0.017,-0.170354 -0.0289,-0.298706 -0.0121,-0.128352 -0.0263,-0.233364 -0.0318,-0.233364 -0.005,0 -0.0121,0.133019 -0.0135,0.295596 l -0.003,0.295591 -0.0972,0.0037 -0.0972,0.0037 z m 0.24836,-0.151144 c 0.0241,-0.02385 0.0201,-0.25199 -0.004,-0.276656 -0.0111,-0.01076 -0.025,-0.01956 -0.0313,-0.01956 -0.005,0 -0.0121,0.06813 -0.0121,0.155574 0,0.158317 0.008,0.180482 0.0476,0.140641 z m 1.53274,0.151296 v -0.598011 l 0.0906,0.0037 0.0906,0.0037 0.0473,0.08084 0.0473,0.08085 v -0.08396 -0.08396 h 0.10042 0.1003 v 0.597411 0.597412 h -0.0986 -0.0987 l -0.005,-0.357825 c -0.005,-0.333715 -0.009,-0.363694 -0.0362,-0.444947 l -0.0296,-0.08712 -0.003,0.444949 -0.003,0.444945 h -0.1003 -0.10009 z m 1.37973,4.74e-4 v -0.597412 h 0.19443 0.19442 v 0.07468 0.07468 h -0.094 -0.094 v 0.143129 0.14313 h 0.0879 0.0878 v 0.0809 0.0809 h -0.0878 -0.0879 v 0.217806 0.217804 h 0.094 0.094 v 0.0809 0.0809 h -0.19442 -0.19443 z m 0.57699,0 v -0.597412 h 0.10658 0.10657 v 0.51651 0.516511 h 0.0879 0.0878 v 0.0809 0.0809 h -0.19441 -0.19442 z m 0.55189,0 v -0.597412 h 0.19442 0.19442 v 0.07468 0.07468 h -0.094 -0.094 v 0.143129 0.14313 h 0.0879 0.0878 v 0.0809 0.0809 h -0.0878 -0.0879 v 0.217806 0.217804 h 0.094 0.094 v 0.0809 0.0809 h -0.19442 -0.19442 z m -5.40604,-0.0062 v -0.591225 h 0.10031 0.10042 v 0.591187 0.591189 h -0.10042 -0.10031 z m 2.47099,0 v -0.591225 h 0.10041 0.10042 v 0.591187 0.591189 h -0.10042 -0.10041 z"
       id="path746"
       inkscape:connector-curvature="0" />
    <path
       style="fill:#28aaef;fill-opacity:0.941176;stroke-width:0.0129991"
       d="m 122.75867,84.811757 c 0.0242,-0.07545 0.16728,-0.320068 0.27495,-0.470012 0.13522,-0.188297 0.24184,-0.312228 0.6305,-0.732886 0.41319,-0.447191 0.58798,-0.665803 0.76206,-0.953169 0.15286,-0.252292 0.27985,-0.556562 0.34297,-0.82166 0.0301,-0.126614 0.06,-0.162185 0.11142,-0.132361 0.01,0.0058 0.0382,0.08642 0.0631,0.179351 0.13509,0.504818 0.36831,0.916824 0.80123,1.415424 0.0722,0.08308 0.22771,0.254274 0.532,0.585396 0.1592,0.173251 0.35853,0.423459 0.45072,0.565782 0.0806,0.124456 0.17586,0.29977 0.19781,0.364135 l 0.01,0.028 h -2.09261 -2.09261 z m 1.09907,-0.354716 c 0.0157,-0.135419 0.0816,-0.353521 0.16224,-0.536249 l 0.075,-0.170066 -0.0507,0.04978 c -0.32486,0.31914 -0.53375,0.56372 -0.59355,0.69491 l -0.0208,0.04563 h 0.20905 0.20904 z"
       id="path748"
       inkscape:connector-curvature="0" />
    <path
       style="fill:#ff660f;fill-opacity:0.941176;stroke-width:0.0129991"
       d="m 123.99615,88.867585 c -0.0859,-0.02005 -0.21874,-0.05682 -0.29528,-0.08169 l -0.13916,-0.04522 V 88.48087 88.221068 l -0.0646,-0.03024 c -0.0355,-0.01662 -0.118,-0.06115 -0.18327,-0.09893 l -0.11883,-0.06868 -0.25356,0.123571 c -0.2166,0.10556 -0.25667,0.121184 -0.27495,0.107223 -0.20135,-0.153892 -0.51692,-0.454631 -0.51692,-0.492619 0,-0.01 0.0613,-0.115165 0.13604,-0.233742 l 0.13601,-0.215594 -0.0818,-0.124049 c -0.045,-0.06823 -0.0918,-0.143392 -0.10404,-0.167037 -0.0122,-0.02364 -0.0352,-0.04615 -0.0509,-0.05001 -0.0157,-0.0039 -0.0958,-0.0071 -0.17788,-0.0072 -0.0822,-1.26e-4 -0.19933,-0.0038 -0.26042,-0.0082 l -0.11111,-0.008 -0.0277,-0.06979 c -0.0152,-0.03838 -0.0317,-0.08519 -0.0363,-0.10402 l -0.009,-0.03422 h 0.61649 0.6165 l 0.0312,0.05912 c 0.0485,0.09186 0.16395,0.248383 0.26362,0.35768 0.0497,0.05468 0.0906,0.106488 0.0906,0.115126 0,0.0086 0.005,0.01569 0.0137,0.01569 0.008,0 0.0641,0.03988 0.12561,0.08862 0.33965,0.26939 0.68821,0.425155 1.12998,0.504959 0.18918,0.03418 0.62997,0.03061 0.82137,-0.0067 0.41782,-0.08134 0.77653,-0.24369 1.08876,-0.492761 0.0649,-0.05179 0.12755,-0.09416 0.13917,-0.09416 0.0121,0 0.0211,-0.01057 0.0211,-0.0239 0,-0.01313 0.033,-0.05934 0.0731,-0.102679 0.0852,-0.09187 0.20323,-0.250842 0.26022,-0.350848 l 0.0399,-0.07014 0.61435,-2.8e-5 c 0.39942,-2.5e-5 0.61433,0.0043 0.61433,0.01239 0,0.0091 -0.0742,0.164785 -0.0873,0.18292 -9.6e-4,0.0013 -0.12953,0.01411 -0.28572,0.02837 -0.15621,0.01429 -0.28512,0.02718 -0.2865,0.02869 -10e-4,0.0016 -0.0192,0.03352 -0.0399,0.07114 -0.0206,0.03761 -0.0675,0.112925 -0.1046,0.167364 l -0.0669,0.09898 0.0267,0.04422 c 0.10503,0.173642 0.23319,0.40186 0.23319,0.415281 0,0.02926 -0.24288,0.267101 -0.39578,0.387556 -0.11677,0.09198 -0.1551,0.115809 -0.17247,0.107117 -0.0122,-0.0062 -0.12282,-0.06468 -0.24565,-0.13007 l -0.22333,-0.118895 -0.0415,0.02497 c -0.0228,0.01371 -0.10624,0.05864 -0.18546,0.0998 l -0.14405,0.07483 -0.01,0.257679 c -0.004,0.141721 -0.0121,0.259616 -0.0145,0.26199 -0.0121,0.01131 -0.30002,0.0941 -0.42063,0.120972 -0.17059,0.03801 -0.3536,0.04228 -0.36587,0.0085 -0.004,-0.01197 -0.0615,-0.105463 -0.12697,-0.207747 l -0.11908,-0.185966 -0.21521,-6.33e-4 -0.21518,-6.33e-4 -0.14173,0.208475 -0.14172,0.208471 -0.0906,-4.75e-4 c -0.0537,-3.17e-4 -0.15424,-0.01541 -0.24674,-0.03703 z"
       id="path742"
       inkscape:connector-curvature="0" />
    <path
       style="fill:#f5620e;fill-opacity:0.980392;stroke-width:0.0129991"
       d="m 123.92549,87.120752 c -0.0616,-0.01635 -0.0763,-0.06032 -0.0708,-0.209307 0.005,-0.165164 0.0111,-0.169214 0.18118,-0.169214 0.14795,0 0.17218,0.01235 0.17484,0.08917 10e-4,0.04016 -0.003,0.04836 -0.0279,0.05161 -0.019,0.0025 -0.0351,-0.0054 -0.045,-0.02233 -0.0135,-0.02326 -0.0255,-0.02579 -0.10625,-0.02253 l -0.0908,0.0037 v 0.09335 0.09334 h 0.0948 c 0.0796,0 0.0957,-0.0035 0.0994,-0.02178 0.003,-0.01787 -0.004,-0.02178 -0.0507,-0.02178 -0.0543,0 -0.0553,-7.91e-4 -0.0553,-0.04413 v -0.04412 l 0.0916,0.0037 0.0916,0.0037 0.003,0.06846 c 0.004,0.08532 -0.0177,0.126406 -0.0785,0.145539 -0.0554,0.01744 -0.15179,0.01868 -0.21181,0.0027 z m -0.62655,-0.188718 0.003,-0.189803 h 0.0407 0.0408 l 0.003,0.189803 0.003,0.189801 h -0.0482 -0.0482 z m 0.13273,-0.003 v -0.192915 h 0.0686 0.0687 l 0.0773,0.146243 0.0773,0.146242 0.008,-0.143129 c 0.008,-0.142717 0.008,-0.143134 0.0407,-0.143134 h 0.034 l 0.003,0.189806 0.003,0.189799 h -0.0723 -0.0723 l -0.076,-0.146238 -0.076,-0.146239 -0.001,0.146239 -10e-4,0.146238 h -0.0407 -0.0407 z m 0.82815,0 v -0.192915 h 0.14937 0.14934 v 0.04979 0.04979 h -0.10867 c -0.0995,0 -0.10866,0.0021 -0.10866,0.02489 0,0.02268 0.009,0.02489 0.10184,0.02489 h 0.10185 v 0.04356 0.04356 h -0.10185 c -0.0928,0 -0.10184,0.0022 -0.10184,0.02489 0,0.02282 0.009,0.02489 0.10866,0.02489 h 0.10867 v 0.04978 0.04978 h -0.14934 -0.14937 z m 0.33943,0 v -0.192915 h 0.0686 0.0687 l 0.0773,0.146243 0.0773,0.146242 0.003,-0.136736 c 0.002,-0.0752 0.01,-0.141725 0.0161,-0.14782 0.005,-0.0061 0.0278,-0.0074 0.047,-0.003 l 0.035,0.0081 v 0.186453 0.186457 h -0.0787 -0.0787 l -0.076,-0.146242 -0.076,-0.146243 -0.001,0.146243 -10e-4,0.146242 h -0.0407 -0.0407 z m 0.42392,0.003 0.003,-0.189803 0.0373,-0.0039 0.0373,-0.004 v 0.19374 0.193739 h -0.0411 -0.0411 z m 0.13271,-0.003 v -0.192915 h 0.14935 0.14934 v 0.04979 0.04979 h -0.10867 c -0.0995,0 -0.10866,0.0021 -0.10866,0.02489 0,0.02268 0.009,0.02489 0.10185,0.02489 h 0.10184 v 0.04356 0.04356 h -0.10184 c -0.0928,0 -0.10185,0.0022 -0.10185,0.02489 0,0.02282 0.009,0.02489 0.10866,0.02489 h 0.10867 v 0.04978 0.04978 h -0.14934 -0.14935 z m 0.3394,-0.0012 v -0.194015 l 0.1487,0.0042 c 0.0943,0.0027 0.15484,0.0098 0.16544,0.01959 0.0275,0.02524 0.0322,0.159732 0.008,0.195193 -0.0144,0.02 -0.0165,0.03182 -0.005,0.03484 0.009,0.0025 0.0179,0.03373 0.0217,0.06938 l 0.008,0.06481 h -0.0417 c -0.0382,0 -0.042,-0.0038 -0.0459,-0.04595 l -0.003,-0.04594 -0.0848,-6.33e-4 -0.0848,-6.34e-4 -2e-5,0.04668 c -1e-5,0.04356 -0.002,0.04667 -0.0407,0.04667 h -0.0408 v -0.194013 z m 0.25564,-0.04858 c -0.004,-0.03282 -0.008,-0.03411 -0.0893,-0.03574 l -0.0848,-0.0017 1e-5,0.03983 c 0,0.03975 1.4e-4,0.03984 0.0782,0.04356 0.0916,0.0044 0.10206,-4.74e-4 0.0961,-0.04595 z m 0.11397,0.0528 0.003,-0.189802 h 0.0408 0.0407 l 0.003,0.189802 0.003,0.189805 h -0.0482 -0.0482 z m 0.16169,0.04979 c 0.0303,-0.07701 0.0646,-0.164102 0.0758,-0.19354 0.0204,-0.05341 0.0206,-0.05352 0.0822,-0.04978 l 0.0618,0.0038 0.0726,0.186689 c 0.0399,0.102679 0.0726,0.18809 0.0726,0.189801 0,0.0017 -0.0207,0.0031 -0.0461,0.0031 -0.0377,0 -0.0476,-0.0056 -0.0546,-0.03111 -0.009,-0.02967 -0.0131,-0.03111 -0.10867,-0.03111 -0.0954,0 -0.10052,0.0016 -0.10866,0.03111 -0.008,0.02567 -0.0168,0.03111 -0.0554,0.03111 h -0.0469 z m 0.21051,-0.03807 c -0.0162,-0.05904 -0.0517,-0.123522 -0.0622,-0.112925 -0.009,0.0091 -0.0551,0.124351 -0.0551,0.137648 0,0.0022 0.0282,0.004 0.0626,0.004 0.0585,0 0.0621,-0.0019 0.0547,-0.02873 z"
       id="path744"
       inkscape:connector-curvature="0" />
  </g>
</svg>
