<?xml version="1.0" encoding="UTF-8" standalone="no"?>
<!-- Created with Inkscape (http://www.inkscape.org/) -->

<svg
   width="512"
   height="512"
   viewBox="0 0 135.46666 135.46667"
   version="1.1"
   id="svg8"
   inkscape:version="1.3.2 (091e20ef0f, 2023-11-25)"
   sodipodi:docname="logo.svg"
   xmlns:inkscape="http://www.inkscape.org/namespaces/inkscape"
   xmlns:sodipodi="http://sodipodi.sourceforge.net/DTD/sodipodi-0.dtd"
   xmlns="http://www.w3.org/2000/svg"
   xmlns:svg="http://www.w3.org/2000/svg"
   xmlns:rdf="http://www.w3.org/1999/02/22-rdf-syntax-ns#"
   xmlns:cc="http://creativecommons.org/ns#"
   xmlns:dc="http://purl.org/dc/elements/1.1/">
  <defs
     id="defs2" />
  <sodipodi:namedview
     id="base"
     pagecolor="#ffffff"
     bordercolor="#666666"
     borderopacity="1.0"
     inkscape:pageopacity="0.0"
     inkscape:pageshadow="2"
     inkscape:zoom="0.69999999"
     inkscape:cx="202.85715"
     inkscape:cy="236.42857"
     inkscape:document-units="px"
     inkscape:current-layer="layer1"
     showgrid="true"
     inkscape:window-width="1440"
     inkscape:window-height="831"
     inkscape:window-x="0"
     inkscape:window-y="32"
     inkscape:window-maximized="1"
     inkscape:showpageshadow="2"
     inkscape:pagecheckerboard="0"
     inkscape:deskcolor="#d1d1d1">
    <inkscape:grid
       type="xygrid"
       id="grid608"
       originx="-92.675797"
       originy="56.962456"
       spacingy="1"
       spacingx="1"
       units="mm"
       visible="true" />
  </sodipodi:namedview>
  <metadata
     id="metadata5">
    <rdf:RDF>
      <cc:Work
         rdf:about="">
        <dc:format>image/svg+xml</dc:format>
        <dc:type
           rdf:resource="http://purl.org/dc/dcmitype/StillImage" />
      </cc:Work>
    </rdf:RDF>
  </metadata>
  <g
     inkscape:label="Capa 1"
     inkscape:groupmode="layer"
     id="layer1"
     transform="translate(-92.675801,-80.608948)">
    <path
       style="fill:#04000a;fill-opacity:0.660377;stroke-width:0.190129"
       d="m 103.28429,215.75037 c -0.73571,-0.14987 -2.15462,-0.66622 -3.15311,-1.14744 -1.516373,-0.73079 -2.086248,-1.14298 -3.45938,-2.50224 -1.374283,-1.36038 -1.788745,-1.92211 -2.526682,-3.42438 -1.596831,-3.25084 -1.466764,2.10006 -1.466764,-60.34372 0,-62.443773 -0.130067,-57.092878 1.466764,-60.343703 0.737937,-1.502291 1.152399,-2.064004 2.526682,-3.42439 1.374282,-1.360381 1.941744,-1.770651 3.45938,-2.501121 3.28284,-1.580102 -2.030927,-1.451931 60.19593,-1.451931 62.22685,0 56.91311,-0.128171 60.19593,1.451931 1.51765,0.73047 2.08509,1.14074 3.45938,2.501121 1.37428,1.360386 1.78875,1.922099 2.52667,3.42439 1.59684,3.250825 1.46679,-2.10007 1.46679,60.343703 0,62.44378 0.13005,57.09288 -1.46679,60.34372 -0.73792,1.50227 -1.15239,2.064 -2.52667,3.42438 -1.37429,1.36038 -1.94173,1.77065 -3.45938,2.50112 -3.28461,1.58097 2.05471,1.45383 -60.33119,1.43652 -47.58811,-0.0131 -55.76199,-0.0546 -56.90756,-0.28796 z"
       id="path1701"
       inkscape:connector-curvature="0" />
    <path
       style="fill:#ffffff;fill-opacity:0.941176;stroke-width:0.190129"
       d="m 145.66938,152.15461 c -0.81486,-0.23403 -1.55679,-1.01873 -1.84274,-1.94894 -0.17191,-0.55924 -0.23936,-2.61747 -0.23936,-7.30482 v -6.5262 l 0.47774,-0.94584 c 0.62332,-1.23399 1.35602,-1.60721 3.15612,-1.6076 1.59367,-3.7e-4 2.4864,0.39281 3.05458,1.34524 0.35904,0.60187 0.38597,1.04198 0.44442,7.26149 0.0687,7.30623 -0.0225,8.22662 -0.89604,9.05514 -0.86554,0.82084 -2.63749,1.10725 -4.15472,0.67153 z m 1.93096,-9.16177 c 0,-6.68125 -0.007,-6.80736 -0.38219,-6.80736 -0.37395,0 -0.38327,0.1427 -0.43251,6.61972 -0.0277,3.64081 -0.006,6.73287 0.0471,6.8712 0.0537,0.13833 0.24826,0.22278 0.4325,0.18766 0.31186,-0.0594 0.335,-0.53396 0.335,-6.87122 z m 24.95898,9.04159 c -0.44302,-0.21603 -0.77348,-0.58888 -1.04406,-1.17799 -0.36668,-0.79831 -0.40139,-1.28862 -0.47049,-6.64603 -0.10053,-7.7948 0.13832,-9.22 1.682,-10.03707 0.91777,-0.48576 3.10127,-0.48576 4.01903,0 1.0568,0.55934 1.40397,1.34384 1.49372,3.37541 l 0.0776,1.75796 h -1.54386 -1.54384 l -0.0556,-1.56062 c -0.0504,-1.41619 -0.0909,-1.56061 -0.4377,-1.56061 -0.37511,0 -0.38219,0.12611 -0.38219,6.80993 0,6.68384 0.007,6.80997 0.38219,6.80997 0.36634,0 0.38437,-0.14331 0.43429,-3.45228 0.0451,-2.98788 0.0129,-3.45225 -0.23886,-3.45225 -0.22823,0 -0.29097,-0.24475 -0.29097,-1.135 v -1.13499 h 1.81542 1.81544 v 5.76954 5.76954 h -0.77054 c -0.6205,0 -0.80421,-0.0829 -0.94338,-0.42563 -0.0951,-0.23409 -0.17829,-0.32891 -0.18496,-0.21073 -0.0208,0.36797 -1.26861,0.82573 -2.23861,0.82121 -0.50964,-0.002 -1.21828,-0.14652 -1.57479,-0.32036 z m 37.23232,0.15663 c -0.99466,-0.32182 -1.37227,-0.64207 -1.7726,-1.50333 -0.38582,-0.83002 -0.41407,-1.22686 -0.47628,-6.68935 -0.1048,-9.2035 0.17407,-10.01883 3.46828,-10.1407 2.81271,-0.10406 3.61902,0.77741 3.72995,4.07758 l 0.0652,1.93894 h -1.53926 -1.53925 l -0.0548,-1.84437 c -0.0504,-1.70019 -0.0847,-1.84435 -0.43689,-1.84435 -0.37511,0 -0.3822,0.12611 -0.3822,6.80993 0,6.68384 0.007,6.80997 0.3822,6.80997 0.35847,0 0.38553,-0.14381 0.43585,-2.3173 l 0.0537,-2.31726 h 1.54165 1.54166 l -0.0665,2.50643 c -0.0724,2.72825 -0.28441,3.38785 -1.33895,4.16589 -0.56475,0.41667 -2.7489,0.62707 -3.61172,0.34792 z m -103.94625,-9.10105 v -9.07993 h 1.52878 1.5288 v 3.31039 3.31039 h 0.47773 0.47775 v -3.31039 -3.31039 h 1.52879 1.52878 v 9.07993 9.07993 h -1.52878 -1.52879 v -4.53996 -4.53997 h -0.47775 -0.47773 v 4.53997 4.53996 h -1.5288 -1.52878 z m 17.19884,0.007 v -9.12236 l 2.72315,0.065 c 2.44892,0.0585 2.78315,0.1074 3.31898,0.48575 1.096,0.77389 1.12406,0.98756 1.12406,8.56464 0,6.11583 -0.0374,6.98632 -0.32755,7.62069 -0.48293,1.05592 -1.25111,1.30885 -4.30659,1.41809 l -2.53205,0.0905 v -9.12237 z m 3.96811,0.0877 c 0.0462,-5.87854 0.0226,-6.45193 -0.27538,-6.66807 -0.17931,-0.13004 -0.39557,-0.23645 -0.4806,-0.23645 -0.085,0 -0.15456,3.02783 -0.15456,6.7285 v 6.72854 l 0.42998,-0.0605 0.42996,-0.0605 z m 6.54229,-0.10516 v -9.10645 l 2.53206,0.0707 c 2.7689,0.0773 3.47996,0.29187 4.10681,1.23885 0.28591,0.43195 0.33621,0.9661 0.33621,3.57035 0,2.77291 -0.0352,3.10099 -0.3734,3.47084 -0.37066,0.40542 -0.37023,0.43799 0.0596,4.41795 0.23817,2.20521 0.48168,4.32872 0.54116,4.71887 l 0.10811,0.70937 h -1.5269 -1.52691 l -0.11071,-0.99312 c -0.0609,-0.5462 -0.25895,-2.5892 -0.44017,-4.53996 -0.1812,-1.95076 -0.39965,-3.54685 -0.48543,-3.54685 -0.0858,0 -0.17902,2.02169 -0.2072,4.49268 l -0.0513,4.49267 -1.48101,0.0552 -1.481,0.0552 z m 3.78374,-2.29723 c 0.36628,-0.36256 0.30775,-3.82997 -0.071,-4.20486 -0.16516,-0.16351 -0.38014,-0.29727 -0.47774,-0.29727 -0.0997,0 -0.17744,1.03555 -0.17744,2.36457 0,2.40624 0.11444,2.74311 0.72616,2.13756 z m 23.3522,2.29954 v -9.08823 l 1.38112,0.0555 1.38113,0.0555 0.72096,1.22875 0.72096,1.22872 v -1.27603 -1.27601 h 1.52879 1.52878 v 9.07993 9.07993 h -1.50317 -1.50316 l -0.0997,-5.4385 c -0.0929,-5.07206 -0.13007,-5.52772 -0.55115,-6.76266 l -0.45149,-1.32415 -0.0502,6.76266 -0.0502,6.76265 h -1.52636 -1.52638 z m 21.02081,0.009 v -9.07997 h 2.962 2.96203 v 1.13499 1.13501 h -1.43322 -1.43324 v 2.1754 2.17539 h 1.33767 1.33769 v 1.22958 1.22956 h -1.33769 -1.33767 v 3.3104 3.31039 h 1.43324 1.43322 v 1.22957 1.22957 h -2.96203 -2.962 z m 8.79051,0 v -9.07997 h 1.62433 1.62435 v 7.85037 7.85035 h 1.33767 1.33769 v 1.22957 1.22957 h -2.96202 -2.96202 z m 8.40832,0 v -9.07997 h 2.96202 2.96203 v 1.13499 1.13501 h -1.43324 -1.43323 v 2.1754 2.17539 h 1.33768 1.33768 v 1.22958 1.22956 h -1.33768 -1.33768 v 3.3104 3.31039 h 1.43323 1.43324 v 1.22957 1.22957 h -2.96203 -2.96202 z m -82.36332,-0.0947 v -8.98537 h 1.52878 1.52878 v 8.98534 8.98536 h -1.52878 -1.52878 z m 37.64635,0 v -8.98537 h 1.52878 1.52879 v 8.98534 8.98536 h -1.52879 -1.52878 z"
       id="path746"
       inkscape:connector-curvature="0" />
    <path
       style="fill:#28aaef;fill-opacity:0.941176;stroke-width:0.190129"
       d="m 130.9986,128.35539 c 0.3405,-1.14672 2.35486,-4.8646 3.87042,-7.14357 1.90321,-2.86188 3.40392,-4.74548 8.8747,-11.13899 5.81584,-6.79675 8.27598,-10.119359 10.72651,-14.486974 2.15144,-3.834536 3.93905,-8.459053 4.82734,-12.488244 0.42425,-1.924372 0.84557,-2.465013 1.56773,-2.011712 0.13835,0.08685 0.53791,1.313499 0.88792,2.72591 1.90136,7.672615 5.1841,13.934603 11.2777,21.51271 1.01533,1.26268 3.20522,3.86467 7.48817,8.89731 2.24093,2.63321 5.04663,6.43607 6.34437,8.59921 1.13482,1.89157 2.47527,4.55615 2.78414,5.53435 l 0.13439,0.42562 h -29.45487 -29.45488 z m 15.47044,-5.3912 c 0.22022,-2.05821 1.149,-5.37311 2.28358,-8.15034 l 1.05597,-2.58479 -0.71332,0.75666 c -4.5726,4.85054 -7.51312,8.56786 -8.35476,10.56178 l -0.29273,0.69356 h 2.94232 2.94232 z"
       id="path748"
       inkscape:connector-curvature="0" />
    <path
       style="fill:#ff660f;fill-opacity:0.941176;stroke-width:0.190129"
       d="m 148.40421,189.99906 c -1.2087,-0.3048 -3.07908,-0.8635 -4.15639,-1.24154 l -1.95875,-0.68734 v -3.94871 -3.94871 l -0.90773,-0.45969 c -0.49923,-0.25282 -1.66003,-0.92939 -2.57953,-1.5035 l -1.67182,-1.04384 -3.56898,1.87809 c -3.04886,1.6044 -3.61283,1.84188 -3.87002,1.62963 -2.83408,-2.33893 -7.27614,-6.90981 -7.27614,-7.48716 0,-0.15171 0.86163,-1.75039 1.91472,-3.55261 l 1.91473,-3.27678 -1.1505,-1.88536 c -0.63276,-1.03693 -1.29213,-2.17939 -1.46525,-2.53878 -0.17315,-0.35938 -0.49555,-0.70144 -0.71647,-0.76016 -0.22092,-0.0586 -1.34761,-0.10838 -2.50376,-0.11048 -1.15614,-0.002 -2.80564,-0.0579 -3.66555,-0.1242 l -1.56348,-0.12052 -0.38981,-1.06066 c -0.2144,-0.58337 -0.44459,-1.29476 -0.51156,-1.58086 l -0.12172,-0.5202 h 8.6776 8.6776 l 0.44026,0.89852 c 0.68406,1.39619 2.30784,3.77512 3.71061,5.4363 0.70183,0.8311 1.27605,1.61851 1.27605,1.74977 0,0.13126 0.0877,0.23868 0.19478,0.23868 0.10713,0 0.90258,0.60613 1.76765,1.34698 4.78099,4.09439 9.6872,6.46177 15.90525,7.67473 2.66285,0.51944 8.86732,0.46517 11.56143,-0.10109 5.881,-1.23621 10.9303,-3.70383 15.32503,-7.48937 0.91383,-0.78717 1.79528,-1.43119 1.95876,-1.43119 0.16572,0 0.29725,-0.16071 0.29725,-0.36322 0,-0.19975 0.46336,-0.90203 1.0297,-1.56061 1.20077,-1.39632 2.86038,-3.81251 3.66273,-5.33246 l 0.56277,-1.06609 8.64719,-3.8e-4 c 5.62228,-3.7e-4 8.64718,0.0656 8.64718,0.18822 0,0.13886 -1.04514,2.50452 -1.22824,2.78014 -0.0134,0.0202 -1.82327,0.21422 -4.02186,0.43113 -2.19862,0.21693 -4.01327,0.41322 -4.0326,0.4362 -0.0194,0.023 -0.27254,0.50945 -0.56273,1.08109 -0.29019,0.57164 -0.95179,1.71633 -1.47023,2.54375 l -0.9426,1.50443 0.37649,0.67205 c 1.47854,2.63914 3.28236,6.10782 3.28236,6.31174 0,0.44473 -3.4187,4.05963 -5.57075,5.89042 -1.64339,1.39806 -2.18334,1.76016 -2.42773,1.62807 -0.17285,-0.0935 -1.72883,-0.98307 -3.45772,-1.97694 l -3.14344,-1.80703 -0.58297,0.37953 c -0.32065,0.20874 -1.49543,0.89132 -2.61065,1.51683 l -2.02766,1.13728 -0.13893,3.91638 c -0.0764,2.15401 -0.16836,3.94588 -0.20437,3.98196 -0.17162,0.17198 -4.223,1.4301 -5.92067,1.83864 -2.40112,0.57781 -4.97709,0.64248 -5.1497,0.1293 -0.0613,-0.18207 -0.86553,-1.60295 -1.78731,-3.15751 l -1.67595,-2.82647 -3.02907,-0.0111 -3.02907,-0.0111 -1.99489,3.16852 -1.99488,3.16851 -1.27551,-0.009 c -0.75572,-0.005 -2.17112,-0.23446 -3.47315,-0.56282 z"
       id="path742"
       inkscape:connector-curvature="0" />
    <path
       style="fill:#f5620e;fill-opacity:0.980392;stroke-width:0.190129"
       d="m 147.40848,163.44936 c -0.86666,-0.2487 -1.07606,-0.91671 -0.99721,-3.18125 0.0874,-2.51028 0.14843,-2.57183 2.55033,-2.57183 2.08238,0 2.42361,0.18789 2.46102,1.35518 0.0196,0.61042 -0.0429,0.73497 -0.39379,0.78441 -0.26907,0.0379 -0.49343,-0.0825 -0.63233,-0.33944 -0.19118,-0.35362 -0.35837,-0.39196 -1.49394,-0.34251 l -1.27865,0.0557 v 1.41874 1.41874 h 1.33506 c 1.11958,0 1.34548,-0.0534 1.39947,-0.33103 0.0529,-0.27154 -0.0755,-0.33104 -0.71399,-0.33104 -0.76411,0 -0.7784,-0.0123 -0.7784,-0.67073 v -0.67072 l 1.28992,0.0559 1.2899,0.0559 0.0494,1.0404 c 0.0617,1.2968 -0.25042,1.92121 -1.10548,2.21202 -0.77931,0.26504 -2.13657,0.28394 -2.98137,0.0416 z m -8.81895,-2.86831 0.0529,-2.88477 h 0.5733 0.57328 l 0.0529,2.88477 0.0528,2.88476 h -0.6788 -0.6788 z m 1.8682,-0.0473 v -2.93206 h 0.96671 0.96671 l 1.08759,2.2227 1.0876,2.22269 0.0956,-2.17541 c 0.0953,-2.16909 0.0969,-2.17539 0.57329,-2.17539 h 0.47775 l 0.0528,2.88477 0.0528,2.88477 h -1.01787 -1.01786 l -1.07131,-2.22269 -1.07133,-2.2227 -0.0178,2.2227 -0.0179,2.22269 h -0.5733 -0.57329 z m 11.65698,0 v -2.93206 h 2.10209 2.10207 v 0.75666 0.75667 h -1.52879 c -1.40138,0 -1.52878,0.0315 -1.52878,0.37833 0,0.34469 0.1274,0.37832 1.43325,0.37832 h 1.43322 v 0.66208 0.66209 h -1.43322 c -1.30585,0 -1.43325,0.0336 -1.43325,0.37832 0,0.34681 0.1274,0.37834 1.52878,0.37834 h 1.52879 v 0.75666 0.75666 h -2.10207 -2.10209 z m 4.77746,0 v -2.93206 h 0.96672 0.96671 l 1.08758,2.2227 1.08759,2.22269 0.0547,-2.07821 c 0.0301,-1.14302 0.13127,-2.15402 0.22487,-2.24669 0.0936,-0.0926 0.39147,-0.11346 0.66192,-0.0463 l 0.49174,0.12213 v 2.83387 2.83387 h -1.10843 -1.10843 l -1.07131,-2.22268 -1.07133,-2.22269 -0.0179,2.22269 -0.0179,2.22268 h -0.5733 -0.5733 z m 5.96684,0.0473 0.0529,-2.88477 0.52552,-0.0599 0.52551,-0.0599 v 2.94463 2.94462 h -0.57827 -0.57827 z m 1.86819,-0.0473 v -2.93206 h 2.10208 2.10207 v 0.75666 0.75667 h -1.52878 c -1.40138,0 -1.52878,0.0315 -1.52878,0.37833 0,0.34469 0.1274,0.37832 1.43323,0.37832 h 1.43325 v 0.66208 0.66209 h -1.43325 c -1.30583,0 -1.43323,0.0336 -1.43323,0.37832 0,0.34681 0.1274,0.37834 1.52878,0.37834 h 1.52878 v 0.75666 0.75666 h -2.10207 -2.10208 z m 4.77745,-0.0167 v -2.94878 l 2.09301,0.0641 c 1.32635,0.0405 2.17929,0.14961 2.32855,0.29769 0.38694,0.3838 0.45382,2.42772 0.0971,2.96668 -0.20121,0.30399 -0.23316,0.48369 -0.0942,0.52955 0.11572,0.0381 0.25341,0.51273 0.30601,1.05453 l 0.0956,0.98513 h -0.58607 c -0.53747,0 -0.59099,-0.0579 -0.64538,-0.69828 l -0.0594,-0.69825 -1.19414,-0.0111 -1.19413,-0.0111 -2e-4,0.70938 c -1.9e-4,0.66202 -0.0385,0.70936 -0.57351,0.70936 h -0.57329 v -2.94879 z m 3.59804,-0.73836 c -0.0604,-0.49878 -0.10587,-0.5184 -1.25721,-0.54326 l -1.19447,-0.0259 1.2e-4,0.60536 c 1e-4,0.60423 0.002,0.60544 1.09893,0.66206 1.29036,0.0666 1.43621,-0.009 1.35263,-0.69838 z m 1.60441,0.80239 0.0528,-2.88477 h 0.57329 0.57328 l 0.0529,2.88477 0.0528,2.88479 h -0.6788 -0.6788 z m 2.27576,0.75666 c 0.42812,-1.17045 0.9081,-2.49416 1.06659,-2.94156 0.28764,-0.81192 0.28983,-0.81336 1.15634,-0.75666 l 0.86815,0.0568 1.0216,2.83743 c 0.56188,1.56059 1.02158,2.85875 1.02158,2.88478 0,0.026 -0.29164,0.0474 -0.64811,0.0474 -0.53197,0 -0.66963,-0.0847 -0.76803,-0.47291 -0.11435,-0.45094 -0.18535,-0.47291 -1.52879,-0.47291 -1.34344,0 -1.41445,0.022 -1.52879,0.47291 -0.0989,0.39016 -0.23533,0.47291 -0.77943,0.47291 h -0.65951 z m 2.96291,-0.57852 c -0.22752,-0.89736 -0.7265,-1.87738 -0.87389,-1.71635 -0.12624,0.13794 -0.77671,1.89001 -0.77671,2.09212 0,0.0335 0.3963,0.0608 0.88066,0.0608 0.82444,0 0.87359,-0.028 0.76994,-0.43665 z"
       id="path744"
       inkscape:connector-curvature="0" />
    <path
       style="fill:#ffffff;fill-opacity:0.941176;stroke-width:0.190129"
       d="m 160.98644,210.82466 v -1.0404 h 0.95548 c 0.78495,0 0.9544,-0.0591 0.94933,-0.33105 -0.004,-0.18206 -0.3315,-3.45934 -0.72915,-7.28286 l -0.72299,-6.95181 h 1.09505 1.09504 l 0.10856,1.37145 c 0.0597,0.75429 0.17758,2.52062 0.26191,3.92518 l 0.15334,2.55372 0.15991,-3.92517 0.15992,-3.92518 h 1.12328 c 0.9424,0 1.12325,0.0533 1.12319,0.33104 -3e-5,0.18207 -0.33765,3.62165 -0.75025,7.6435 -0.50611,4.93335 -0.84555,7.49504 -1.04331,7.87361 -0.35134,0.67254 -0.73601,0.79242 -2.55385,0.7958 l -1.38546,0.002 z m -55.41848,-10.30949 v -8.32327 h 1.33768 1.33769 v 3.12121 c 0,2.64833 0.0435,3.12123 0.28665,3.12123 0.24322,0 0.28665,-0.4729 0.28665,-3.12123 v -3.12121 h 1.33769 1.33768 v 8.32327 8.32327 h -1.33768 -1.33769 v -3.97247 c 0,-3.40498 -0.0409,-3.97247 -0.28665,-3.97247 -0.2457,0 -0.28665,0.56749 -0.28665,3.97247 v 3.97247 h -1.33769 -1.33768 z m 6.87953,1.52235 v -6.81898 h 1.24456 1.24456 l -0.0502,6.76265 -0.0502,6.76266 -1.19437,0.0563 -1.19436,0.0563 z m 3.98646,6.4393 -0.45114,-0.36162 v -6.05014 c 0,-5.78319 0.0169,-6.06858 0.38192,-6.46788 0.31942,-0.34939 0.53046,-0.40361 1.28991,-0.33138 l 0.90801,0.0863 v -1.58914 -1.58918 l 1.19435,0.0563 1.19436,0.0563 v 8.22869 8.2287 l -1.19436,0.0563 c -0.76482,0.036 -1.19435,-0.0175 -1.19435,-0.14853 0,-0.14391 -0.10997,-0.1466 -0.36965,-0.01 -0.5657,0.29971 -1.25995,0.23426 -1.75905,-0.16578 z m 2.1287,-6.55409 c 0,-3.04895 -0.0657,-4.60552 -0.19111,-4.52879 -0.11879,0.0728 -0.19109,1.83056 -0.19109,4.64572 0,2.89309 0.069,4.52879 0.19109,4.52879 0.12221,0 0.19111,-1.67467 0.19111,-4.64572 z m 3.43975,0.10579 v -6.80994 h 1.14659 c 0.7644,0 1.14659,0.0756 1.14659,0.22699 0,0.17657 0.051,0.17657 0.22933,0 0.38274,-0.37888 1.57727,-0.2763 1.98646,0.17057 0.31021,0.33882 0.37335,0.7583 0.427,2.83749 l 0.063,2.4399 h -1.05905 -1.05906 l -0.055,-1.74978 c -0.0316,-1.00415 -0.13639,-1.74978 -0.24605,-1.74978 -0.12207,0 -0.20937,2.0669 -0.24168,5.72225 l -0.0507,5.72225 h -1.14378 -1.14378 z m 6.23672,6.56842 c -0.48423,-0.35049 -0.68524,-1.46557 -0.6896,-3.82553 -0.004,-2.50123 0.18889,-2.92209 1.78325,-3.87862 l 1.07795,-0.64669 v -1.47336 c 0,-1.18354 -0.0564,-1.47335 -0.28664,-1.47335 -0.2275,0 -0.28665,0.27325 -0.28665,1.32415 v 1.32416 h -1.16882 -1.1688 l 0.0776,-1.91457 c 0.0736,-1.81253 0.10586,-1.93855 0.60619,-2.36455 0.44607,-0.37982 0.73403,-0.45 1.84653,-0.45 1.59567,0 2.20811,0.24766 2.47309,1.00012 0.12384,0.35165 0.20062,2.87543 0.20062,6.59471 v 6.02506 h -1.1466 c -0.66297,0 -1.14659,-0.0826 -1.14659,-0.19583 0,-0.13498 -0.11483,-0.13498 -0.36962,0 -0.50684,0.26851 -1.39914,0.24588 -1.80198,-0.0458 z m 2.1716,-3.84869 c 0,-1.76468 -0.0349,-1.98071 -0.28664,-1.77392 -0.21465,0.17637 -0.28665,0.64936 -0.28665,1.88331 0,0.90629 0.0573,1.70455 0.12741,1.7739 0.35288,0.34933 0.44588,-0.0436 0.44588,-1.88329 z m 3.8804,3.63391 -0.53618,-0.45631 -0.0595,-6.35364 -0.0595,-6.35363 h 1.15548 1.15549 l 0.0506,5.72224 c 0.0323,3.65534 0.11959,5.72226 0.24167,5.72226 0.12207,0 0.20937,-2.06692 0.24167,-5.72226 l 0.0507,-5.72224 h 1.14378 1.14379 v 6.80994 6.80995 h -1.14659 c -0.66297,0 -1.14659,-0.0826 -1.14659,-0.19583 0,-0.13498 -0.11484,-0.13498 -0.36964,0 -0.60572,0.3209 -1.2951,0.22462 -1.86511,-0.26048 z m 8.92318,-6.35364 v -6.80994 h 1.1466 1.14658 v 6.80994 6.80995 h -1.14658 -1.1466 z m 3.97362,6.52691 c -0.33575,-0.1869 -0.55726,-0.50295 -0.63143,-0.90096 -0.0629,-0.33719 -0.0881,-3.10005 -0.0562,-6.13968 0.0689,-6.5455 -0.0643,-6.16911 2.21366,-6.2549 2.49768,-0.0941 2.87946,0.39388 2.89779,3.70372 l 0.0107,1.94796 -1.19437,-0.0563 -1.19436,-0.0563 -0.055,-1.74978 c -0.0302,-0.96237 -0.13772,-1.74978 -0.23887,-1.74978 -0.11293,0 -0.18393,1.8254 -0.18393,4.72914 0,2.91234 0.0708,4.72913 0.18442,4.72913 0.10295,0 0.20846,-0.85653 0.23886,-1.93896 l 0.0546,-1.93894 1.19436,-0.0563 1.19437,-0.0563 -0.004,1.94797 c -0.004,2.17128 -0.19875,3.27071 -0.65587,3.72322 -0.43504,0.43062 -3.0645,0.51221 -3.77426,0.11717 z m 5.65868,-0.11457 c -0.3156,-0.34469 -0.37228,-0.76142 -0.42609,-3.13284 -0.072,-3.17535 -0.0351,-3.27617 1.59637,-4.34842 l 1.04551,-0.68715 v -1.48654 c 0,-0.86492 -0.0799,-1.48655 -0.19109,-1.48655 -0.1092,0 -0.19111,0.5675 -0.19111,1.32415 v 1.32417 h -1.16398 -1.16398 l 0.0652,-1.97991 c 0.0828,-2.51654 0.17663,-2.63093 2.2207,-2.7079 1.75758,-0.0662 2.33784,0.17354 2.65891,1.0986 0.15668,0.45143 0.23147,2.50773 0.23888,6.56855 l 0.0107,5.91143 h -1.13531 c -0.62442,0 -1.18861,-0.0853 -1.25374,-0.18968 -0.0791,-0.1268 -0.23713,-0.1268 -0.47647,0 -0.59541,0.31543 -1.44335,0.21933 -1.83454,-0.20791 z m 2.21579,-3.68064 c 0,-1.28343 -0.0683,-1.95559 -0.19109,-1.88047 -0.10667,0.0651 -0.19111,0.94778 -0.19111,1.99738 0,1.12755 0.0766,1.8805 0.19111,1.8805 0.11533,0 0.19109,-0.79191 0.19109,-1.99741 z m 15.75749,3.84177 c -0.0504,-0.13005 -0.0692,-3.85425 -0.0418,-8.27598 l 0.0498,-8.03953 2.05432,-0.0537 2.0543,-0.0537 v 1.1414 1.14139 h -0.66884 -0.66884 v 1.98623 1.98624 h 0.66884 0.66884 v 1.22957 1.22957 h -0.66884 -0.66884 v 2.74289 2.7429 h 0.66884 0.66884 v 1.22958 1.22957 h -2.01252 c -1.43373,0 -2.03889,-0.068 -2.1042,-0.23645 z m 9.27637,-0.007 c -0.26306,-0.1314 -0.58024,-0.53391 -0.70583,-0.89576 -0.2777,-0.80009 -0.33001,-9.92233 -0.0634,-11.06124 0.2835,-1.21121 0.76374,-1.46571 2.62114,-1.3891 2.28741,0.0944 2.24318,0.019 2.31709,3.94909 l 0.0604,3.20954 h -1.35027 -1.35027 v 2.1754 c 0,1.32417 0.0748,2.17541 0.19109,2.17541 0.11148,0 0.1911,-0.63055 0.1911,-1.51332 v -1.51332 h 1.14659 1.1466 v 1.87933 c 0,2.25459 -0.15431,2.73415 -0.97037,3.01575 -0.82048,0.28312 -2.63903,0.26524 -3.23381,-0.0318 z m 1.91098,-9.68701 c 0,-0.94583 -0.0787,-1.60791 -0.19109,-1.60791 -0.11242,0 -0.1911,0.66208 -0.1911,1.60791 0,0.94583 0.0787,1.6079 0.1911,1.6079 0.11241,0 0.19109,-0.66207 0.19109,-1.6079 z m 4.01307,9.68701 c -0.26307,-0.1314 -0.58023,-0.53391 -0.70584,-0.89576 -0.27769,-0.80009 -0.33001,-9.92233 -0.0634,-11.06124 0.2835,-1.21121 0.76374,-1.46571 2.62115,-1.3891 2.21906,0.0916 2.24087,0.1215 2.31969,3.1924 l 0.063,2.45292 h -1.16177 -1.16178 v -1.79707 c 0,-1.07193 -0.0771,-1.79707 -0.19111,-1.79707 -0.12229,0 -0.19109,1.70249 -0.19109,4.72912 0,3.02666 0.0688,4.72914 0.19109,4.72914 0.11527,0 0.19111,-0.78819 0.19111,-1.98625 v -1.98622 h 1.14659 1.14659 v 2.35226 c 0,1.29374 -0.0798,2.56016 -0.17746,2.81426 -0.10285,0.2678 -0.43617,0.55129 -0.7929,0.67439 -0.82048,0.28312 -2.63905,0.26524 -3.2338,-0.0318 z m 6.19152,-0.0259 c -0.32587,-0.14043 -0.66175,-0.41375 -0.74645,-0.60739 -0.0846,-0.19364 -0.19339,-2.67171 -0.24157,-5.50684 -0.0482,-2.83511 -0.16376,-5.15476 -0.25684,-5.15476 -0.0931,0 -0.1692,-0.46817 -0.1692,-1.0404 0,-0.57221 0.0823,-1.04041 0.18305,-1.04041 0.10068,0 0.20818,-0.65971 0.23888,-1.46602 l 0.0558,-1.46604 1.19437,-0.0563 1.19437,-0.0563 v 1.52235 c 0,1.39624 0.0317,1.52235 0.38219,1.52235 0.33587,0 0.38219,0.12611 0.38219,1.04041 0,0.91429 -0.0462,1.04039 -0.38219,1.04039 -0.372,0 -0.38219,0.12614 -0.38219,4.72914 0,4.60302 0.0102,4.72914 0.38219,4.72914 0.33587,0 0.38219,0.12612 0.38219,1.04041 v 1.04041 l -0.81217,-0.007 c -0.44668,-0.004 -1.07877,-0.12224 -1.40463,-0.26271 z m 2.7901,-6.53985 v -6.80995 h 1.14658 c 0.66298,0 1.14659,0.0826 1.14659,0.19583 0,0.13498 0.11484,0.13498 0.36965,0 0.42641,-0.22591 1.34849,-0.25433 1.65605,-0.0511 0.50526,0.33395 0.71262,1.18917 0.8005,3.3015 l 0.0928,2.22868 h -1.17282 -1.17282 v -1.79708 c 0,-1.6602 -0.17374,-2.2293 -0.45729,-1.49784 -0.0638,0.16458 -0.116,2.76086 -0.116,5.76954 v 5.47032 h -1.14658 -1.14659 z m 5.73293,0 v -6.80995 h 1.1466 1.1466 v 6.80995 6.80995 h -1.1466 -1.1466 z m 4.20794,6.57712 c -0.90223,-0.47118 -0.95343,-0.81921 -0.95645,-6.5016 -0.002,-3.23151 0.0758,-5.53903 0.1978,-5.88533 0.26498,-0.75246 0.87743,-1.00014 2.4731,-1.00014 1.11772,0 1.39952,0.0693 1.85422,0.45648 0.52656,0.44831 0.53738,0.49914 0.60361,2.83747 l 0.0674,2.38102 h -1.15907 -1.15906 l -0.055,-1.73448 c -0.0374,-1.1789 -0.13146,-1.75959 -0.29382,-1.81284 -0.18688,-0.0613 -0.23887,0.95809 -0.23887,4.6823 0,3.72425 0.052,4.74359 0.23887,4.68225 0.16525,-0.0543 0.25566,-0.67129 0.29334,-2.00201 l 0.0546,-1.92358 h 1.15865 1.15866 l -0.0665,2.54869 c -0.0612,2.34731 -0.10063,2.58244 -0.49817,2.97576 -0.3537,0.34996 -0.68147,0.43759 -1.81542,0.48531 -0.879,0.0369 -1.55669,-0.032 -1.85777,-0.1893 z m 5.67875,-0.004 c -0.17301,-0.13004 -0.40443,-0.4761 -0.51426,-0.76898 -0.2848,-0.75942 -0.25149,-5.02829 0.0438,-5.61534 0.13082,-0.2601 0.77161,-0.81342 1.42394,-1.22959 l 1.18609,-0.75665 -0.0413,-1.40355 c -0.0272,-0.92407 -0.12292,-1.4303 -0.28018,-1.4818 -0.17606,-0.0576 -0.23889,0.27413 -0.23889,1.26168 v 1.33992 h -1.14658 -1.14658 v -1.57968 c 0,-2.72405 0.36114,-3.14945 2.6737,-3.14945 1.11754,0 1.39959,0.0694 1.85421,0.4563 l 0.53619,0.45633 0.0573,6.35362 0.0573,6.35363 h -1.15615 c -0.66958,0 -1.15615,-0.0824 -1.15615,-0.19581 0,-0.13499 -0.11484,-0.13499 -0.36964,0 -0.50384,0.26691 -1.40092,0.24646 -1.78286,-0.0407 z m 2.11173,-3.92218 c 0.0487,-1.73839 0.0226,-1.92603 -0.23887,-1.71125 -0.38667,0.31766 -0.43864,3.8682 -0.0548,3.74218 0.1656,-0.0543 0.25567,-0.6773 0.29365,-2.03093 z m -72.95874,-4.25909 v -8.22869 h 1.14659 1.14659 v 8.22869 8.2287 h -1.14659 -1.14659 z m 36.30866,0 v -8.22869 h 1.1466 1.14658 v 8.22869 8.2287 h -1.14658 -1.1466 z m -46.70909,-6.19516 c 0.58453,-1.83302 0.50278,-1.7449 1.67609,-1.80651 0.59423,-0.0312 1.08042,0.001 1.08042,0.0715 0,0.0707 -0.26429,0.58556 -0.58732,1.14443 -0.57322,0.99176 -0.60793,1.01614 -1.44612,1.01614 -0.80342,0 -0.85003,-0.0273 -0.72307,-0.42562 z m 51.59652,0 c 0.58452,-1.83302 0.50278,-1.7449 1.67607,-1.80651 0.59424,-0.0312 1.08042,-0.0123 1.08042,0.0431 0,0.0549 -0.23288,0.56991 -0.51754,1.14443 l -0.51756,1.0446 h -0.92856 c -0.87577,0 -0.92084,-0.0242 -0.79283,-0.42562 z m -68.52313,-0.99292 v -1.04041 h 1.24215 1.24213 v 1.04041 1.04041 h -1.24213 -1.24215 z m 30.76681,0 v -1.04041 h 1.1466 1.14658 v 1.04041 1.04041 h -1.14658 -1.1466 z m 57.52055,0 v -1.04041 h 1.1466 1.1466 v 1.04041 1.04041 h -1.1466 -1.1466 z"
       id="path740"
       inkscape:connector-curvature="0" />
  </g>
</svg>
