<?xml version="1.0" encoding="UTF-8" standalone="no"?>
<!-- Created with Inkscape (http://www.inkscape.org/) -->

<svg
   width="150"
   height="150"
   viewBox="0 0 39.687498 39.687502"
   version="1.1"
   id="svg8"
   inkscape:version="1.3.2 (091e20ef0f, 2023-11-25)"
   sodipodi:docname="mstile-150x150.svg"
   xmlns:inkscape="http://www.inkscape.org/namespaces/inkscape"
   xmlns:sodipodi="http://sodipodi.sourceforge.net/DTD/sodipodi-0.dtd"
   xmlns="http://www.w3.org/2000/svg"
   xmlns:svg="http://www.w3.org/2000/svg"
   xmlns:rdf="http://www.w3.org/1999/02/22-rdf-syntax-ns#"
   xmlns:cc="http://creativecommons.org/ns#"
   xmlns:dc="http://purl.org/dc/elements/1.1/">
  <defs
     id="defs2" />
  <sodipodi:namedview
     id="base"
     pagecolor="#ffffff"
     bordercolor="#666666"
     borderopacity="1.0"
     inkscape:pageopacity="0.0"
     inkscape:pageshadow="2"
     inkscape:zoom="2.8284271"
     inkscape:cx="93.691649"
     inkscape:cy="71.241008"
     inkscape:document-units="px"
     inkscape:current-layer="layer1"
     showgrid="true"
     inkscape:window-width="1440"
     inkscape:window-height="831"
     inkscape:window-x="0"
     inkscape:window-y="32"
     inkscape:window-maximized="1"
     inkscape:showpageshadow="2"
     inkscape:pagecheckerboard="0"
     inkscape:deskcolor="#d1d1d1">
    <inkscape:grid
       type="xygrid"
       id="grid608"
       originx="-120.66768"
       originy="34.68457"
       spacingy="1"
       spacingx="1"
       units="mm"
       visible="true" />
  </sodipodi:namedview>
  <metadata
     id="metadata5">
    <rdf:RDF>
      <cc:Work
         rdf:about="">
        <dc:format>image/svg+xml</dc:format>
        <dc:type
           rdf:resource="http://purl.org/dc/dcmitype/StillImage" />
      </cc:Work>
    </rdf:RDF>
  </metadata>
  <g
     inkscape:label="Capa 1"
     inkscape:groupmode="layer"
     id="layer1"
     transform="translate(-120.66769,-81.267389)">
    <path
       style="fill:#ffffff;fill-opacity:1;stroke-width:0.0530033"
       d="m 125.03623,120.21249 c -0.20216,-0.0423 -0.59205,-0.18842 -0.86641,-0.32453 -0.41665,-0.20668 -0.57325,-0.32327 -0.95055,-0.70772 -0.37762,-0.38475 -0.4915,-0.54363 -0.69427,-0.96852 -0.43877,-0.91943 -0.40304,0.59396 -0.40304,-17.06713 0,-17.661094 -0.0356,-16.147692 0.40304,-17.067126 0.20277,-0.424897 0.31665,-0.583769 0.69427,-0.968529 0.37762,-0.384758 0.53354,-0.500796 0.95055,-0.707396 0.90205,-0.446904 -0.55805,-0.410653 16.5404,-0.410653 17.09845,0 15.63836,-0.03625 16.54039,0.410653 0.41702,0.2066 0.57295,0.322638 0.95056,0.707396 0.37762,0.38476 0.49151,0.543632 0.69427,0.968529 0.43878,0.919434 0.40305,-0.593968 0.40305,17.067126 0,17.66109 0.0356,16.1477 -0.40305,17.06713 -0.20276,0.42489 -0.31665,0.58377 -0.69427,0.96852 -0.37761,0.38476 -0.53354,0.50079 -0.95056,0.70741 -0.90252,0.44714 0.5646,0.41119 -16.57756,0.40629 -13.07607,-0.004 -15.32205,-0.0155 -15.63682,-0.0814 z"
       id="path1701"
       inkscape:connector-curvature="0" />
    <path
       style="fill:#000000;fill-opacity:0.941176;stroke-width:0.0607233"
       d="m 136.09828,105.01355 c -0.25638,-0.0758 -0.48984,-0.33027 -0.57981,-0.63183 -0.0541,-0.18129 -0.0753,-0.84854 -0.0753,-2.36812 v -2.115714 l 0.15032,-0.306611 c 0.19611,-0.400057 0.42666,-0.521052 0.99304,-0.521177 0.50144,-1.17e-4 0.78234,0.12734 0.96111,0.43611 0.11297,0.195126 0.12144,0.337806 0.13984,2.354082 0.0216,2.36858 -0.008,2.66698 -0.28194,2.93555 -0.27233,0.26612 -0.82988,0.35896 -1.30726,0.21771 z m 0.60757,-2.97012 c 0,-2.165983 -0.002,-2.206868 -0.12025,-2.206868 -0.11766,0 -0.1206,0.04622 -0.13609,2.146028 -0.009,1.18032 -0.002,2.18271 0.0147,2.22757 0.0169,0.0448 0.0781,0.0723 0.13609,0.0608 0.0981,-0.0192 0.1054,-0.17309 0.1054,-2.22756 z m 7.85318,2.93116 c -0.13939,-0.0701 -0.24336,-0.19091 -0.3285,-0.38188 -0.11537,-0.25881 -0.1263,-0.41776 -0.14804,-2.15456 -0.0317,-2.526981 0.0436,-2.98901 0.52924,-3.253901 0.28876,-0.157468 0.9758,-0.157468 1.26457,0 0.33251,0.181344 0.44174,0.435658 0.46998,1.094271 l 0.0245,0.5699 h -0.48577 -0.48576 l -0.0175,-0.50594 c -0.0159,-0.459101 -0.0286,-0.505918 -0.13772,-0.505918 -0.11803,0 -0.12026,0.04092 -0.12026,2.207688 0,2.16683 0.002,2.20771 0.12026,2.20771 0.11527,0 0.12093,-0.0465 0.13664,-1.11917 0.0141,-0.96865 0.005,-1.11919 -0.0751,-1.11919 -0.0718,0 -0.0916,-0.0793 -0.0916,-0.36795 v -0.36795 h 0.57121 0.57122 v 1.87041 1.87041 h -0.24246 c -0.19522,0 -0.25302,-0.0268 -0.29682,-0.13798 -0.0299,-0.0759 -0.0561,-0.10664 -0.0582,-0.0684 -0.008,0.11929 -0.39915,0.26769 -0.70435,0.26624 -0.16036,-6.3e-4 -0.38334,-0.0475 -0.49551,-0.10386 z m 11.71493,0.0507 c -0.31296,-0.10431 -0.43178,-0.20813 -0.55774,-0.48734 -0.1214,-0.26908 -0.13028,-0.39773 -0.14986,-2.16861 -0.0329,-2.983645 0.0548,-3.247983 1.09127,-3.28748 0.88501,-0.03383 1.13871,0.252022 1.17361,1.3219 l 0.0205,0.62857 h -0.4843 -0.48433 l -0.0172,-0.59791 c -0.0159,-0.551182 -0.0267,-0.597929 -0.13746,-0.597929 -0.11804,0 -0.12026,0.04092 -0.12026,2.207699 0,2.16681 0.002,2.2077 0.12026,2.2077 0.11279,0 0.12129,-0.0466 0.13714,-0.75123 l 0.0168,-0.75124 h 0.48507 0.48507 l -0.0209,0.81257 c -0.0228,0.88446 -0.0895,1.0983 -0.42129,1.35053 -0.17771,0.13507 -0.86493,0.20329 -1.13641,0.11277 z m -32.70605,-2.95043 v -2.943595 h 0.48102 0.48103 v 1.073185 1.07319 h 0.15033 0.15031 v -1.07319 -1.073185 h 0.48101 0.48104 v 2.943595 2.94359 h -0.48104 -0.48101 v -1.4718 -1.47179 h -0.15031 -0.15033 v 1.47179 1.4718 h -0.48103 -0.48102 z m 5.41152,0.002 v -2.957353 l 0.85681,0.02097 c 0.77053,0.01894 0.87571,0.03484 1.0443,0.157476 0.34485,0.250876 0.35368,0.32015 0.35368,2.776547 0,1.98267 -0.0118,2.26487 -0.10306,2.47052 -0.15195,0.34232 -0.39367,0.42432 -1.35505,0.45973 l -0.79668,0.0292 z m 1.24853,0.0284 c 0.0145,-1.90575 0.008,-2.09165 -0.0866,-2.161702 -0.0564,-0.04225 -0.12447,-0.0767 -0.15121,-0.0767 -0.0268,0 -0.0486,0.981592 -0.0486,2.181292 v 2.18129 l 0.13528,-0.0196 0.1353,-0.0196 z m 2.05849,-0.0341 v -2.952193 l 0.79669,0.02292 c 0.87123,0.0251 1.09496,0.09461 1.29219,0.401624 0.09,0.14003 0.10578,0.313197 0.10578,1.157459 0,0.89894 -0.0111,1.00531 -0.11748,1.1252 -0.11663,0.13143 -0.11649,0.14199 0.0188,1.43223 0.0749,0.7149 0.15156,1.40332 0.17027,1.52979 l 0.034,0.22999 h -0.48043 -0.48042 l -0.0348,-0.32196 c -0.0193,-0.17709 -0.0815,-0.83938 -0.1385,-1.4718 -0.057,-0.63242 -0.12574,-1.14984 -0.15275,-1.14984 -0.0271,0 -0.0563,0.65541 -0.0652,1.45647 l -0.016,1.45645 -0.46599,0.0179 -0.466,0.0179 z m 1.19054,-0.74473 c 0.11524,-0.11754 0.0968,-1.24162 -0.0223,-1.36315 -0.0519,-0.05301 -0.11961,-0.09637 -0.15032,-0.09637 -0.0314,0 -0.0558,0.33571 -0.0558,0.76655 0,0.78007 0.036,0.88927 0.2285,0.69297 z m 7.34761,0.74547 v -2.946268 l 0.43458,0.01808 0.43456,0.01808 0.22684,0.398327 0.22685,0.398343 v -0.413676 -0.413668 h 0.48101 0.48103 v 2.943592 2.9436 h -0.47296 -0.47296 l -0.0313,-1.7631 c -0.0292,-1.64429 -0.0409,-1.79201 -0.17341,-2.19236 l -0.14207,-0.42928 -0.0158,2.19238 -0.0158,2.19236 h -0.48024 -0.48028 z m 6.61408,0.002 v -2.943596 h 0.93199 0.93198 v 0.36795 0.36795 h -0.45096 -0.45096 v 0.705236 0.70523 h 0.4209 0.42087 v 0.39861 0.39861 h -0.42087 -0.4209 v 1.07319 1.07317 h 0.45096 0.45096 v 0.39863 0.39861 h -0.93198 -0.93199 z m 2.76588,0 v -2.943596 h 0.51109 0.51109 v 2.544976 2.54497 h 0.42089 0.42089 v 0.39863 0.39861 h -0.93198 -0.93198 z m 2.64562,0 v -2.943596 h 0.93198 0.93199 v 0.36795 0.36795 h -0.45096 -0.45096 v 0.705236 0.70523 h 0.42089 0.4209 v 0.39861 0.39861 h -0.4209 -0.42089 v 1.07319 1.07317 h 0.45096 0.45096 v 0.39863 0.39861 h -0.93199 -0.93198 z m -25.91511,-0.0306 v -2.912935 h 0.48102 0.48102 v 2.912925 2.91293 h -0.48102 -0.48102 z m 11.8452,0 v -2.912935 h 0.48101 0.48103 v 2.912925 2.91293 h -0.48103 -0.48101 z"
       id="path746"
       inkscape:connector-curvature="0" />
    <path
       style="fill:#28aaef;fill-opacity:0.941176;stroke-width:0.0631755"
       d="m 130.72184,97.298166 c 0.11595,-0.371769 0.80198,-1.577055 1.31813,-2.315867 0.64818,-0.927783 1.15927,-1.538424 3.02245,-3.611111 1.9807,-2.203421 2.81855,-3.280569 3.65312,-4.696494 0.73272,-1.243107 1.34152,-2.742316 1.64404,-4.048527 0.14449,-0.623857 0.28798,-0.799124 0.53393,-0.652171 0.0471,0.02816 0.1832,0.425819 0.3024,0.883705 0.64754,2.487362 1.76554,4.517418 3.84084,6.974145 0.34578,0.409337 1.09158,1.252868 2.55023,2.884391 0.7632,0.853649 1.71874,2.086488 2.16069,2.787748 0.38649,0.613223 0.84301,1.477039 0.94819,1.794181 l 0.0458,0.137973 h -10.03145 -10.03142 z m 5.26875,-1.747774 c 0.075,-0.667244 0.39131,-1.741885 0.77771,-2.642234 l 0.35963,-0.837953 -0.24294,0.245299 c -1.55727,1.572483 -2.55873,2.777585 -2.84536,3.423994 l -0.0997,0.224838 h 1.00208 1.00206 z"
       id="path748"
       inkscape:connector-curvature="0" />
    <path
       style="fill:#ff660f;fill-opacity:0.941176;stroke-width:0.0631755"
       d="m 136.64961,117.28223 c -0.41164,-0.0988 -1.04864,-0.27993 -1.41553,-0.40249 l -0.6671,-0.22283 v -1.28012 -1.28011 l -0.30915,-0.14902 c -0.17001,-0.0819 -0.56535,-0.30131 -0.8785,-0.48744 l -0.56937,-0.3384 -1.21548,0.60887 c -1.03836,0.52012 -1.23042,0.5971 -1.31801,0.52831 -0.9652,-0.75827 -2.47802,-2.24008 -2.47802,-2.42726 0,-0.0492 0.29342,-0.56744 0.65208,-1.1517 l 0.6521,-1.06229 -0.39182,-0.61121 c -0.2155,-0.33617 -0.44006,-0.70653 -0.49903,-0.82304 -0.0589,-0.11651 -0.16876,-0.2274 -0.244,-0.24643 -0.0752,-0.019 -0.45895,-0.0352 -0.8527,-0.0358 -0.39375,-6.2e-4 -0.95552,-0.0188 -1.24837,-0.0403 l -0.53248,-0.0391 -0.13276,-0.34385 c -0.073,-0.18913 -0.15141,-0.41975 -0.17422,-0.5125 l -0.0414,-0.16864 h 2.95532 2.95532 l 0.14995,0.2913 c 0.23297,0.45262 0.78598,1.22384 1.26371,1.76237 0.23902,0.26942 0.43459,0.52469 0.43459,0.56726 0,0.0426 0.0299,0.0773 0.0663,0.0773 0.0364,0 0.30739,0.19649 0.602,0.43666 1.62826,1.32735 3.29916,2.09484 5.41683,2.48805 0.9069,0.1684 3.01994,0.15081 3.93748,-0.0329 2.00287,-0.40077 3.72251,-1.20073 5.21923,-2.42796 0.31123,-0.25519 0.61141,-0.46396 0.66709,-0.46396 0.0565,0 0.10123,-0.0521 0.10123,-0.11777 0,-0.0647 0.15781,-0.29241 0.35069,-0.50593 0.40894,-0.45265 0.97416,-1.23596 1.24741,-1.72871 l 0.19167,-0.3456 2.94497,-1.3e-4 c 1.91476,-1.2e-4 2.94496,0.0212 2.94496,0.061 0,0.045 -0.35595,0.81193 -0.41832,0.90128 -0.005,0.006 -0.62094,0.0695 -1.36972,0.13978 -0.74877,0.0704 -1.36679,0.13395 -1.37336,0.14138 -0.007,0.008 -0.0928,0.16517 -0.19166,0.35049 -0.0988,0.18532 -0.32415,0.55641 -0.50071,0.82465 l -0.32103,0.48772 0.12823,0.21787 c 0.50355,0.85558 1.11787,1.98007 1.11787,2.04619 0,0.14417 -1.16431,1.31607 -1.89723,1.90959 -0.55968,0.45323 -0.74358,0.57062 -0.8268,0.52779 -0.0589,-0.0303 -0.58879,-0.31868 -1.1776,-0.64089 l -1.07056,-0.58582 -0.19855,0.12305 c -0.10919,0.0676 -0.50929,0.28895 -0.8891,0.49174 l -0.69056,0.36868 -0.0474,1.26965 c -0.0261,0.6983 -0.0574,1.27919 -0.0696,1.29089 -0.0585,0.0557 -1.43823,0.46363 -2.0164,0.59606 -0.81775,0.18732 -1.69505,0.20829 -1.75383,0.042 -0.0209,-0.059 -0.29478,-0.51964 -0.60871,-1.02362 l -0.57077,-0.9163 -1.03161,-0.003 -1.03161,-0.003 -0.6794,1.02721 -0.6794,1.02719 -0.43439,-0.002 c -0.25738,-0.002 -0.73941,-0.0759 -1.18286,-0.18245 z"
       id="path742"
       inkscape:connector-curvature="0" />
    <path
       style="fill:#f5620e;fill-opacity:0.980392;stroke-width:0.0631755"
       d="m 136.31054,108.67515 c -0.29516,-0.0806 -0.36648,-0.29717 -0.33962,-1.03131 0.0297,-0.8138 0.0505,-0.83375 0.86856,-0.83375 0.70921,0 0.82542,0.0609 0.83816,0.43932 0.007,0.19789 -0.0147,0.23828 -0.13411,0.2543 -0.0916,0.0122 -0.16806,-0.0267 -0.21536,-0.11003 -0.0651,-0.11465 -0.12205,-0.12708 -0.50879,-0.11104 l -0.43547,0.0181 v 0.45994 0.45993 h 0.45468 c 0.3813,0 0.45823,-0.0172 0.47661,-0.10731 0.0181,-0.088 -0.0257,-0.10732 -0.24315,-0.10732 -0.26024,0 -0.2651,-0.004 -0.2651,-0.21745 v -0.21739 l 0.43931,0.0182 0.4393,0.0182 0.0168,0.33729 c 0.021,0.42039 -0.0853,0.62283 -0.37649,0.7171 -0.26541,0.0859 -0.72764,0.0921 -1.01536,0.0134 z m -3.00346,-0.92985 0.018,-0.93521 h 0.19525 0.19524 l 0.018,0.93521 0.018,0.93519 h -0.23118 -0.23118 z m 0.63625,-0.0152 v -0.95055 h 0.32924 0.32922 l 0.3704,0.72058 0.37041,0.72057 0.0326,-0.70523 c 0.0324,-0.7032 0.033,-0.70526 0.19524,-0.70526 h 0.16272 l 0.018,0.93522 0.018,0.93519 h -0.34665 -0.34666 l -0.36486,-0.72055 -0.36486,-0.72056 -0.006,0.72056 -0.006,0.72055 h -0.19524 -0.19525 z m 3.97001,0 v -0.95055 h 0.7159 0.7159 v 0.2453 0.24531 h -0.52065 c -0.47727,0 -0.52065,0.0103 -0.52065,0.12265 0,0.11174 0.0434,0.12266 0.48811,0.12266 h 0.48812 v 0.21463 0.21463 h -0.48812 c -0.44473,0 -0.48811,0.0108 -0.48811,0.12266 0,0.11242 0.0434,0.12265 0.52065,0.12265 h 0.52065 v 0.24528 0.2453 h -0.7159 -0.7159 z m 1.62706,0 v -0.95055 h 0.32923 0.32923 l 0.37039,0.72058 0.37041,0.72057 0.0186,-0.67373 c 0.0102,-0.37055 0.0447,-0.69831 0.0766,-0.72835 0.0319,-0.0301 0.13332,-0.0368 0.22542,-0.015 l 0.16747,0.0397 v 0.9187 0.91872 h -0.37748 -0.37752 l -0.36485,-0.72057 -0.36485,-0.72057 -0.006,0.72057 -0.006,0.72057 h -0.19525 -0.19524 z m 2.03212,0.0152 0.018,-0.93521 0.17898,-0.0193 0.17898,-0.0195 v 0.95461 0.9546 h -0.19694 -0.19695 z m 0.63625,-0.0152 v -0.95055 h 0.7159 0.7159 v 0.2453 0.24531 h -0.52066 c -0.47726,0 -0.52065,0.0103 -0.52065,0.12265 0,0.11174 0.0434,0.12266 0.48812,0.12266 h 0.48812 v 0.21463 0.21463 h -0.48812 c -0.44473,0 -0.48812,0.0108 -0.48812,0.12266 0,0.11242 0.0434,0.12265 0.52065,0.12265 h 0.52066 v 0.24528 0.2453 h -0.7159 -0.7159 z m 1.62705,-0.005 v -0.95596 l 0.7128,0.0207 c 0.45172,0.0132 0.74221,0.0486 0.79305,0.0965 0.13177,0.12441 0.15455,0.78703 0.033,0.96176 -0.0685,0.0986 -0.0794,0.1568 -0.032,0.17168 0.0394,0.0122 0.0863,0.1662 0.10421,0.34186 l 0.0325,0.31936 h -0.19959 c -0.18304,0 -0.20128,-0.0188 -0.2198,-0.22637 l -0.0202,-0.22637 -0.40669,-0.003 -0.40669,-0.003 -7e-5,0.22997 c -6e-5,0.21462 -0.0131,0.22996 -0.19531,0.22996 h -0.19525 v -0.95596 z m 1.22538,-0.23937 c -0.0206,-0.1617 -0.036,-0.16806 -0.42816,-0.17611 l -0.40681,-0.008 4e-5,0.19625 c 4e-5,0.19589 7.4e-4,0.19628 0.37427,0.21464 0.43946,0.0216 0.48912,-0.002 0.46066,-0.22641 z m 0.54641,0.26012 0.018,-0.9352 h 0.19525 0.19525 l 0.018,0.9352 0.018,0.93521 h -0.23119 -0.23117 z m 0.77505,0.2453 c 0.14581,-0.37945 0.30927,-0.80857 0.36325,-0.95362 0.098,-0.2632 0.0987,-0.26368 0.39382,-0.24529 l 0.29566,0.0184 0.34793,0.91986 c 0.19136,0.50592 0.34792,0.92677 0.34792,0.9352 0,0.008 -0.0993,0.0153 -0.22073,0.0153 -0.18117,0 -0.22806,-0.0274 -0.26158,-0.1533 -0.039,-0.1462 -0.0631,-0.15331 -0.52065,-0.15331 -0.45753,0 -0.48171,0.008 -0.52066,0.15331 -0.0337,0.12648 -0.0801,0.1533 -0.26544,0.1533 h -0.22462 z m 1.00908,-0.18755 c -0.0775,-0.29091 -0.24742,-0.60862 -0.29762,-0.55641 -0.043,0.0447 -0.26452,0.61271 -0.26452,0.67823 0,0.0108 0.13497,0.0197 0.29993,0.0197 0.28077,0 0.29751,-0.009 0.26221,-0.14156 z"
       id="path744"
       inkscape:connector-curvature="0" />
  </g>
</svg>
