<?xml version="1.0" encoding="UTF-8" standalone="no"?>
<!-- Created with Inkscape (http://www.inkscape.org/) -->

<svg
   width="800"
   height="780.41101"
   viewBox="0 0 211.66666 206.48375"
   version="1.1"
   id="svg8"
   inkscape:version="1.3.2 (091e20ef0f, 2023-11-25)"
   sodipodi:docname="hero-bg.svg"
   xmlns:inkscape="http://www.inkscape.org/namespaces/inkscape"
   xmlns:sodipodi="http://sodipodi.sourceforge.net/DTD/sodipodi-0.dtd"
   xmlns="http://www.w3.org/2000/svg"
   xmlns:svg="http://www.w3.org/2000/svg"
   xmlns:rdf="http://www.w3.org/1999/02/22-rdf-syntax-ns#"
   xmlns:cc="http://creativecommons.org/ns#"
   xmlns:dc="http://purl.org/dc/elements/1.1/">
  <defs
     id="defs2" />
  <sodipodi:namedview
     id="base"
     pagecolor="#ffffff"
     bordercolor="#666666"
     borderopacity="1.0"
     inkscape:pageopacity="0.0"
     inkscape:pageshadow="2"
     inkscape:zoom="0.49497474"
     inkscape:cx="177.78685"
     inkscape:cy="439.41636"
     inkscape:document-units="mm"
     inkscape:current-layer="layer1"
     showgrid="true"
     inkscape:window-width="1440"
     inkscape:window-height="831"
     inkscape:window-x="0"
     inkscape:window-y="32"
     inkscape:window-maximized="1"
     inkscape:showpageshadow="2"
     inkscape:pagecheckerboard="0"
     inkscape:deskcolor="#d1d1d1">
    <inkscape:grid
       type="xygrid"
       id="grid608"
       originx="-92.675797"
       originy="56.962456"
       spacingy="1"
       spacingx="1"
       units="mm"
       visible="true" />
  </sodipodi:namedview>
  <metadata
     id="metadata5">
    <rdf:RDF>
      <cc:Work
         rdf:about="">
        <dc:format>image/svg+xml</dc:format>
        <dc:type
           rdf:resource="http://purl.org/dc/dcmitype/StillImage" />
      </cc:Work>
    </rdf:RDF>
  </metadata>
  <g
     inkscape:label="Capa 1"
     inkscape:groupmode="layer"
     id="layer1"
     transform="translate(-92.675801,-80.608948)">
    <path
       style="fill:#000000;fill-opacity:0.941176;stroke-width:0.157064"
       d="m 221.2529,219.59627 c -0.68544,-0.18985 -1.30954,-0.82648 -1.55006,-1.58114 -0.14462,-0.45369 -0.20135,-2.12352 -0.20135,-5.92631 v -5.29459 l 0.40187,-0.76734 c 0.52431,-1.00112 1.14064,-1.30392 2.65482,-1.30423 1.34055,-3e-4 2.09151,0.31869 2.56943,1.09139 0.30201,0.48828 0.32467,0.84533 0.37382,5.89113 0.0578,5.92744 -0.0187,6.67413 -0.7537,7.3463 -0.72807,0.66593 -2.21859,0.8983 -3.49483,0.54479 z m 1.62427,-7.43281 c 0,-5.42039 -0.005,-5.52269 -0.32149,-5.52269 -0.31456,0 -0.3224,0.11577 -0.36381,5.37045 -0.0233,2.95376 -0.005,5.46231 0.0397,5.57453 0.0452,0.11222 0.20881,0.18072 0.3638,0.15224 0.26233,-0.0482 0.28179,-0.43319 0.28179,-5.57453 z m 20.99476,7.33532 c -0.37266,-0.17527 -0.65061,-0.47776 -0.87823,-0.95568 -0.30844,-0.64768 -0.33764,-1.04544 -0.39575,-5.39183 -0.0846,-6.3238 0.11633,-7.48006 1.41484,-8.14292 0.772,-0.39409 2.60869,-0.39409 3.38069,0 0.88895,0.45378 1.18097,1.09022 1.25648,2.73842 l 0.0654,1.4262 h -1.29866 -1.29864 l -0.0466,-1.26611 c -0.0424,-1.14894 -0.0764,-1.26609 -0.36818,-1.26609 -0.31555,0 -0.32149,0.1023 -0.32149,5.5248 0,5.4225 0.005,5.5248 0.32149,5.5248 0.30814,0 0.32331,-0.11625 0.3653,-2.80076 0.0379,-2.42403 0.0109,-2.80079 -0.20093,-2.80079 -0.19198,0 -0.24475,-0.19855 -0.24475,-0.92079 v -0.9208 h 1.52709 1.52709 v 4.68074 4.68074 h -0.64816 c -0.52193,0 -0.67648,-0.0672 -0.79355,-0.34529 -0.08,-0.18993 -0.14997,-0.26685 -0.15557,-0.17097 -0.0175,0.29852 -1.06711,0.66989 -1.88306,0.66624 -0.42869,-0.002 -1.02478,-0.11889 -1.32468,-0.25991 z m 31.31875,0.12707 c -0.83669,-0.2611 -1.15431,-0.5209 -1.49107,-1.21962 -0.32453,-0.67338 -0.34829,-0.99535 -0.40062,-5.42697 -0.0882,-7.46666 0.14642,-8.12814 2.91742,-8.227 2.36596,-0.0844 3.04421,0.63069 3.13751,3.30806 l 0.0549,1.57305 h -1.29478 -1.29478 l -0.046,-1.49631 c -0.0424,-1.37935 -0.0711,-1.49629 -0.36749,-1.49629 -0.31555,0 -0.32149,0.1023 -0.32149,5.5248 0,5.4225 0.005,5.5248 0.32149,5.5248 0.30153,0 0.32429,-0.11666 0.36662,-1.87997 l 0.0451,-1.87996 h 1.29679 1.2968 l -0.056,2.03344 c -0.0609,2.21337 -0.23925,2.74851 -1.1263,3.37971 -0.47506,0.33805 -2.31229,0.50874 -3.03808,0.28226 z m -87.43657,-7.38355 v -7.36641 h 1.28597 1.28597 v 2.68566 2.68568 h 0.40186 0.40187 v -2.68568 -2.68566 h 1.28597 1.28598 v 7.36641 7.36641 h -1.28598 -1.28597 v -3.6832 -3.68321 h -0.40187 -0.40186 v 3.68321 3.6832 h -1.28597 -1.28597 z m 14.46716,0.006 v -7.40083 l 2.29064,0.0528 c 2.05996,0.0474 2.3411,0.0871 2.79184,0.39407 0.92192,0.62784 0.94551,0.80119 0.94551,6.94837 0,4.96168 -0.0314,5.6679 -0.27552,6.18255 -0.40622,0.85665 -1.05242,1.06185 -3.62257,1.15046 l -2.1299,0.0734 v -7.40073 z m 3.33788,0.071 c 0.0388,-4.76918 0.0189,-5.23437 -0.23166,-5.40972 -0.15083,-0.1055 -0.33274,-0.19183 -0.40426,-0.19183 -0.0715,0 -0.13,2.45644 -0.13,5.45875 v 5.45875 l 0.36166,-0.0491 0.36169,-0.0491 z m 5.50317,-0.0854 v -7.38782 l 2.12988,0.0574 c 2.32915,0.0628 2.92727,0.23679 3.45455,1.00507 0.24049,0.35042 0.28281,0.78379 0.28281,2.89655 0,2.24963 -0.0297,2.5158 -0.31411,2.81585 -0.31178,0.32892 -0.31141,0.35533 0.0502,3.58421 0.20034,1.78907 0.40518,3.51183 0.4552,3.82836 l 0.0909,0.5755 h -1.28438 -1.28437 l -0.0931,-0.80571 c -0.0511,-0.44313 -0.21783,-2.10057 -0.37026,-3.6832 -0.15244,-1.58263 -0.33618,-2.87751 -0.40834,-2.87751 -0.0721,0 -0.15059,1.64018 -0.17429,3.64486 l -0.0431,3.64483 -1.24578,0.0448 -1.24578,0.0448 z m 3.18277,-1.86368 c 0.30811,-0.29415 0.25888,-3.10722 -0.0597,-3.41135 -0.13891,-0.13265 -0.31976,-0.24118 -0.40186,-0.24118 -0.0839,0 -0.14927,0.84013 -0.14927,1.91834 0,1.95215 0.0963,2.22545 0.61084,1.73419 z m 19.6432,1.86556 v -7.37315 l 1.16176,0.0451 1.16177,0.045 0.60644,0.99685 0.60645,0.99686 v -1.03522 -1.03521 h 1.28598 1.28596 v 7.3664 7.36641 h -1.26442 -1.26442 l -0.0838,-4.41217 c -0.0782,-4.11488 -0.10942,-4.48455 -0.46361,-5.48644 l -0.37979,-1.07427 -0.0423,5.48644 -0.0422,5.48644 h -1.28393 -1.28394 z m 17.68208,0.007 v -7.36643 h 2.49157 2.49156 v 0.92079 0.92081 h -1.20559 -1.2056 v 1.76486 1.76488 h 1.12522 1.12523 v 0.99753 0.99754 h -1.12523 -1.12522 v 2.68566 2.68568 h 1.2056 1.20559 v 0.99753 0.99753 h -2.49156 -2.49157 z m 7.39433,0 v -7.36643 h 1.36634 1.36634 v 6.36887 6.36888 h 1.12524 1.12522 v 0.99753 0.99753 h -2.49158 -2.49156 z m 7.07284,0 v -7.36643 h 2.49156 2.49157 v 0.92079 0.92081 h -1.20559 -1.2056 v 1.76486 1.76488 h 1.12522 1.12522 v 0.99753 0.99754 h -1.12522 -1.12522 v 2.68566 2.68568 h 1.2056 1.20559 v 0.99753 0.99753 h -2.49157 -2.49156 z m -69.28165,-0.0767 v -7.28971 h 1.28598 1.28597 v 7.28968 7.28967 h -1.28597 -1.28598 z m 31.66702,0 v -7.28971 h 1.28598 1.28597 v 7.28968 7.28967 h -1.28597 -1.28598 z"
       id="path746"
       inkscape:connector-curvature="0" />
    <path
       style="fill:#28aaef;fill-opacity:0.941176;stroke-width:0.157064"
       d="m 208.68985,200.28833 c 0.28641,-0.93032 1.98083,-3.94658 3.25567,-5.79547 1.60092,-2.3218 2.86328,-3.84995 7.46514,-9.03689 4.89212,-5.51411 6.96152,-8.2097 9.02283,-11.75307 1.80973,-3.11091 3.31342,-6.86271 4.06062,-10.13154 0.35686,-1.56121 0.71128,-1.99983 1.31872,-1.63207 0.11639,0.0705 0.45248,1.06562 0.74691,2.2115 1.59935,6.22467 4.36072,11.30492 9.48647,17.45295 0.85406,1.02438 2.69613,3.13532 6.29882,7.21824 1.88502,2.13628 4.24509,5.22148 5.3367,6.97641 0.95458,1.53459 2.08213,3.69634 2.34195,4.48994 l 0.11304,0.34531 h -24.77659 -24.77659 z m 13.01329,-4.3738 c 0.18523,-1.6698 0.96649,-4.35912 1.92087,-6.61226 l 0.88823,-2.097 -0.60001,0.61386 c -3.84633,3.93518 -6.31982,6.95098 -7.02778,8.56863 l -0.24623,0.56266 h 2.47498 2.47501 z"
       id="path748"
       inkscape:connector-curvature="0" />
    <path
       style="fill:#ff660f;fill-opacity:0.941176;stroke-width:0.157064"
       d="m 223.53165,250.29894 c -1.01672,-0.2473 -2.59002,-0.70056 -3.49623,-1.00726 l -1.64766,-0.55763 v -3.20354 -3.20351 l -0.76353,-0.37294 c -0.41996,-0.20512 -1.39638,-0.75402 -2.16983,-1.21979 l -1.4063,-0.84684 -3.00213,1.52366 c -2.56461,1.30162 -3.039,1.49429 -3.25535,1.3221 -2.38394,-1.89754 -6.12046,-5.60583 -6.12046,-6.07422 0,-0.12309 0.72477,-1.42006 1.6106,-2.88219 l 1.61061,-2.65839 -0.96776,-1.52957 c -0.53227,-0.84125 -1.0869,-1.7681 -1.23254,-2.05967 -0.14563,-0.29156 -0.41683,-0.56907 -0.60266,-0.6167 -0.18583,-0.0476 -1.13357,-0.088 -2.10608,-0.0896 -0.97253,-0.002 -2.36003,-0.0471 -3.08336,-0.10077 l -1.31516,-0.0978 -0.32789,-0.8605 c -0.18035,-0.47327 -0.37398,-1.05041 -0.43031,-1.28253 l -0.10239,-0.42204 h 7.29935 7.29935 l 0.37032,0.72897 c 0.57542,1.1327 1.9413,3.0627 3.12126,4.41038 0.59035,0.67427 1.07337,1.31308 1.07337,1.41958 0,0.10649 0.0738,0.19362 0.16385,0.19362 0.0902,0 0.75922,0.49176 1.4869,1.09279 4.02163,3.32172 8.14859,5.24234 13.37903,6.2264 2.23991,0.42141 7.45894,0.37738 9.72516,-0.0821 4.94689,-1.00292 9.19422,-3.00487 12.89096,-6.07602 0.76869,-0.63861 1.51013,-1.16111 1.64765,-1.16111 0.1394,0 0.25003,-0.1304 0.25003,-0.29466 0,-0.16206 0.38977,-0.73182 0.86616,-1.26611 1.01005,-1.13282 2.40607,-3.09304 3.08098,-4.32614 l 0.47339,-0.8649 7.27376,-3.1e-4 c 4.7293,-3.1e-4 7.27376,0.0531 7.27376,0.15269 0,0.11265 -0.87914,2.03188 -1.03316,2.25548 -0.0113,0.0164 -1.53368,0.1738 -3.38308,0.34979 -1.84939,0.17598 -3.37584,0.33523 -3.39209,0.35387 -0.0164,0.0186 -0.22926,0.41332 -0.47337,0.87707 -0.24409,0.46376 -0.80061,1.39243 -1.2367,2.06371 l -0.7929,1.22052 0.31669,0.54523 c 1.24371,2.14111 2.76104,4.95517 2.76104,5.12062 0,0.36081 -2.87572,3.29351 -4.68596,4.7788 -1.38237,1.13423 -1.83657,1.428 -2.04213,1.32082 -0.1454,-0.0757 -1.45425,-0.79754 -2.90854,-1.60384 l -2.64418,-1.46602 -0.49037,0.30791 c -0.2697,0.16935 -1.25792,0.72311 -2.196,1.23057 l -1.70562,0.92266 -0.11686,3.1773 c -0.0642,1.74751 -0.14162,3.20125 -0.1719,3.23051 -0.14437,0.13953 -3.55226,1.16022 -4.98031,1.49166 -2.01974,0.46877 -4.18657,0.52123 -4.33177,0.10491 -0.0515,-0.14772 -0.72805,-1.30046 -1.50343,-2.56165 l -1.40976,-2.29308 -2.54797,-0.009 -2.54797,-0.009 -1.67804,2.57057 -1.67803,2.57057 -1.07292,-0.007 c -0.6357,-0.004 -1.82629,-0.19022 -2.92152,-0.4566 z"
       id="path742"
       inkscape:connector-curvature="0" />
    <path
       style="fill:#f5620e;fill-opacity:0.980392;stroke-width:0.157064"
       d="m 223.01746,228.75954 c -0.72901,-0.20177 -0.90515,-0.74372 -0.83882,-2.58089 0.0735,-2.03657 0.12485,-2.08649 2.14527,-2.08649 1.75164,0 2.03866,0.15243 2.07012,1.09943 0.0165,0.49523 -0.0362,0.59627 -0.33124,0.63637 -0.22633,0.0307 -0.41505,-0.0669 -0.53189,-0.27536 -0.16082,-0.28691 -0.30146,-0.318 -1.25666,-0.27788 l -1.07558,0.0451 v 1.15101 1.151 h 1.12303 c 0.94175,0 1.13177,-0.0433 1.1772,-0.26856 0.0444,-0.22031 -0.0635,-0.26856 -0.60059,-0.26856 -0.64276,0 -0.65477,-0.01 -0.65477,-0.54417 v -0.54414 l 1.08504,0.0454 1.08503,0.0454 0.0416,0.84407 c 0.0519,1.05207 -0.21064,1.55864 -0.9299,1.79456 -0.65553,0.21503 -1.79722,0.23036 -2.50784,0.0337 z m -7.41825,-2.32702 0.0443,-2.34036 h 0.48225 0.48223 l 0.0444,2.34036 0.0443,2.34038 h -0.57098 -0.57099 z m 1.57149,-0.0383 v -2.37873 h 0.81315 0.81318 l 0.91485,1.80325 0.91486,1.80323 0.0804,-1.76488 c 0.0801,-1.75975 0.0815,-1.76487 0.48224,-1.76487 h 0.40188 l 0.0443,2.34038 0.0444,2.34038 h -0.8562 -0.8562 l -0.90116,-1.80325 -0.90116,-1.80324 -0.015,1.80324 -0.0151,1.80325 h -0.48222 -0.48224 z m 9.80552,0 v -2.37873 h 1.7682 1.76821 v 0.61386 0.61389 h -1.28598 c -1.1788,0 -1.28596,0.0256 -1.28596,0.30693 0,0.27964 0.10716,0.30692 1.20559,0.30692 h 1.2056 v 0.53713 0.53715 h -1.2056 c -1.09843,0 -1.20559,0.0272 -1.20559,0.30692 0,0.28137 0.10716,0.30695 1.28596,0.30695 h 1.28598 v 0.61385 0.61389 h -1.76821 -1.7682 z m 4.01865,0 v -2.37873 h 0.81317 0.81317 l 0.91485,1.80325 0.91485,1.80323 0.046,-1.68603 c 0.0253,-0.92731 0.11041,-1.74753 0.18916,-1.82269 0.0787,-0.0752 0.32928,-0.0921 0.55679,-0.0375 l 0.41362,0.0991 v 2.29908 2.29909 h -0.93237 -0.93238 l -0.90116,-1.80325 -0.90115,-1.80323 -0.0151,1.80323 -0.0151,1.80325 h -0.48223 -0.48225 z m 5.01914,0.0383 0.0444,-2.34036 0.44205,-0.0485 0.44204,-0.0485 v 2.38893 2.38893 h -0.48642 -0.48642 z m 1.57145,-0.0383 v -2.37873 h 1.76822 1.7682 v 0.61386 0.61389 h -1.28597 c -1.17881,0 -1.28597,0.0256 -1.28597,0.30693 0,0.27964 0.10716,0.30692 1.2056,0.30692 h 1.2056 v 0.53713 0.53715 h -1.2056 c -1.09844,0 -1.2056,0.0272 -1.2056,0.30692 0,0.28137 0.10716,0.30695 1.28597,0.30695 h 1.28597 v 0.61385 0.61389 h -1.7682 -1.76822 z m 4.01867,-0.0136 v -2.39231 l 1.76057,0.0519 c 1.11567,0.033 1.83315,0.12138 1.95871,0.2415 0.32548,0.31138 0.38173,1.96958 0.0817,2.40684 -0.16925,0.24661 -0.19614,0.3924 -0.0792,0.4296 0.0973,0.0309 0.21316,0.41597 0.2574,0.85555 l 0.0804,0.7992 h -0.49298 c -0.45212,0 -0.49712,-0.047 -0.54288,-0.56648 l -0.0499,-0.56651 -1.00447,-0.009 -1.00448,-0.009 -1.6e-4,0.57549 c -1.6e-4,0.53709 -0.0324,0.5755 -0.48242,0.5755 h -0.48226 v -2.39233 z m 3.02656,-0.59904 c -0.0508,-0.40464 -0.0891,-0.42056 -1.05753,-0.44072 l -1.00476,-0.0209 1e-4,0.4911 c 1e-4,0.49021 0.002,0.49119 0.9244,0.53715 1.08542,0.054 1.20809,-0.007 1.13779,-0.5666 z m 1.34958,0.65099 0.0444,-2.34038 h 0.48224 0.48225 l 0.0444,2.34038 0.0444,2.34038 h -0.57099 -0.571 z m 1.91431,0.61387 c 0.36013,-0.94958 0.76386,-2.02348 0.89718,-2.38646 0.24197,-0.6587 0.24379,-0.65986 0.97269,-0.61386 l 0.73025,0.0461 0.85933,2.30195 c 0.47264,1.2661 0.85935,2.31926 0.85935,2.34038 0,0.0212 -0.24534,0.0384 -0.54519,0.0384 -0.44748,0 -0.56326,-0.0687 -0.64605,-0.38367 -0.0962,-0.36585 -0.15591,-0.38368 -1.28597,-0.38368 -1.13005,0 -1.18979,0.0178 -1.28597,0.38368 -0.0832,0.31652 -0.19794,0.38367 -0.65563,0.38367 h -0.55476 z m 2.49231,-0.46936 c -0.19139,-0.72802 -0.61111,-1.5231 -0.73508,-1.39245 -0.10621,0.11192 -0.65335,1.53334 -0.65335,1.69731 0,0.0272 0.33333,0.0494 0.74078,0.0494 0.6935,0 0.73483,-0.0225 0.64765,-0.35426 z"
       id="path744"
       inkscape:connector-curvature="0" />
    <path
       style="fill:#000000;fill-opacity:0.941176;stroke-width:0.157064"
       d="m 234.35905,267.19442 v -0.84406 h 0.80373 c 0.66027,0 0.8028,-0.0479 0.79855,-0.26856 -0.002,-0.14772 -0.27886,-2.80653 -0.61335,-5.90849 l -0.60816,-5.63991 h 0.92113 0.92111 l 0.0914,1.11263 c 0.0502,0.61195 0.14936,2.04495 0.2203,3.18445 l 0.12899,2.0718 0.13452,-3.18444 0.13452,-3.18444 h 0.94485 c 0.79273,0 0.94486,0.0433 0.94481,0.26857 -3e-5,0.14772 -0.28402,2.93819 -0.63108,6.20107 -0.42573,4.00235 -0.71127,6.08061 -0.87762,6.38773 -0.29553,0.54563 -0.61911,0.64288 -2.14822,0.64563 l -1.16541,0.002 z m -46.61642,-8.36394 v -6.75255 h 1.12523 1.12521 v 2.53221 c 0,2.14854 0.0365,2.53219 0.24113,2.53219 0.20458,0 0.24112,-0.38365 0.24112,-2.53219 v -2.53221 h 1.12522 1.12522 v 6.75255 6.75254 h -1.12522 -1.12522 v -3.2228 c 0,-2.76241 -0.0345,-3.2228 -0.24112,-3.2228 -0.20666,0 -0.24113,0.46039 -0.24113,3.2228 v 3.2228 h -1.12521 -1.12523 z m 5.78686,1.23506 v -5.53214 h 1.04688 1.04688 l -0.0422,5.48644 -0.0422,5.48646 -1.00468,0.0456 -1.00466,0.0456 z m 3.3533,5.22411 -0.3795,-0.29338 v -4.90838 c 0,-4.69182 0.0142,-4.92336 0.32128,-5.2473 0.26867,-0.28346 0.4462,-0.32744 1.08503,-0.26884 l 0.76377,0.0701 v -1.28926 -1.28927 l 1.00466,0.0457 1.00466,0.0456 v 6.67582 6.67582 l -1.00466,0.0456 c -0.64334,0.0293 -1.00466,-0.0142 -1.00466,-0.12049 0,-0.11675 -0.0925,-0.11892 -0.31093,-0.008 -0.47585,0.24313 -1.05984,0.19004 -1.47965,-0.1345 z m 1.79058,-5.31722 c 0,-2.4736 -0.0552,-3.73641 -0.16074,-3.67416 -0.0999,0.0589 -0.16075,1.48512 -0.16075,3.76899 0,2.34713 0.0581,3.67416 0.16075,3.67416 0.1028,0 0.16074,-1.35864 0.16074,-3.76899 z m 2.89343,0.0858 v -5.52481 h 0.96448 c 0.64299,0 0.96448,0.0613 0.96448,0.18417 0,0.14324 0.043,0.14324 0.1929,0 0.32194,-0.30739 1.32676,-0.22417 1.67096,0.13839 0.26095,0.27487 0.31404,0.61518 0.35916,2.30201 l 0.053,1.97945 h -0.89085 -0.89086 l -0.0462,-1.41958 c -0.0265,-0.81464 -0.11471,-1.41957 -0.20696,-1.41957 -0.10269,0 -0.17612,1.67685 -0.20329,4.64238 l -0.0426,4.64237 h -0.96211 -0.96212 z m 5.24614,5.32888 c -0.4073,-0.28436 -0.5764,-1.18902 -0.58006,-3.10361 -0.005,-2.02921 0.15889,-2.37066 1.50003,-3.14666 l 0.90673,-0.52465 v -1.19532 c 0,-0.96019 -0.0475,-1.19532 -0.24112,-1.19532 -0.19136,0 -0.24111,0.2217 -0.24111,1.07428 v 1.07426 h -0.98318 -0.98317 l 0.0653,-1.55325 c 0.0619,-1.47049 0.0891,-1.57273 0.50989,-1.91834 0.37524,-0.30816 0.61746,-0.36508 1.55327,-0.36508 1.34223,0 1.8574,0.20093 2.0803,0.81139 0.10417,0.28529 0.16874,2.33279 0.16874,5.35019 v 4.88804 h -0.96447 c -0.55768,0 -0.96447,-0.067 -0.96447,-0.15886 0,-0.10951 -0.0966,-0.10951 -0.31093,0 -0.42634,0.21783 -1.17693,0.19947 -1.51578,-0.037 z m 1.8267,-3.1224 c 0,-1.43166 -0.0293,-1.60692 -0.24112,-1.43915 -0.18055,0.14307 -0.24111,0.52683 -0.24111,1.5279 0,0.73525 0.0482,1.38286 0.10716,1.43913 0.29683,0.28341 0.37507,-0.0353 0.37507,-1.52788 z m 3.26407,2.94814 -0.45102,-0.3702 -0.05,-5.15462 -0.05,-5.15461 h 0.97196 0.97195 l 0.0426,4.64238 c 0.0272,2.96552 0.1006,4.64237 0.20329,4.64237 0.10267,0 0.17611,-1.67685 0.20329,-4.64237 l 0.0426,-4.64238 h 0.96213 0.96213 v 5.52481 5.52481 h -0.96449 c -0.55768,0 -0.96448,-0.067 -0.96448,-0.15886 0,-0.10951 -0.0966,-0.10951 -0.31093,0 -0.5095,0.26033 -1.0894,0.18221 -1.56887,-0.21133 z m 7.50593,-5.15462 v -5.52481 h 0.96447 0.96449 v 5.52481 5.52481 h -0.96449 -0.96447 z m 3.3425,5.29518 c -0.28243,-0.15163 -0.46875,-0.40802 -0.53115,-0.73093 -0.0529,-0.27356 -0.0742,-2.51502 -0.0472,-4.98103 0.058,-5.31026 -0.0541,-5.00491 1.86206,-5.07451 2.10098,-0.0762 2.42213,0.31957 2.43755,3.00478 l 0.009,1.58036 -1.00466,-0.0457 -1.00467,-0.0456 -0.0463,-1.41957 c -0.0254,-0.78076 -0.11585,-1.41956 -0.20093,-1.41956 -0.095,0 -0.15471,1.48092 -0.15471,3.83666 0,2.36275 0.0596,3.83668 0.15512,3.83668 0.0866,0 0.17537,-0.6949 0.20094,-1.57303 l 0.0458,-1.57304 1.00467,-0.0456 1.00466,-0.0456 -0.005,1.58037 c -0.005,1.76152 -0.16717,2.65347 -0.55171,3.02058 -0.36592,0.34936 -2.57774,0.41555 -3.1748,0.095 z m 4.75991,-0.093 c -0.26548,-0.27965 -0.31316,-0.61772 -0.35843,-2.54163 -0.0606,-2.57611 -0.0294,-2.6579 1.34283,-3.5278 l 0.87945,-0.55747 v -1.20601 c 0,-0.70169 -0.0672,-1.20602 -0.16073,-1.20602 -0.0919,0 -0.16076,0.46041 -0.16076,1.07428 v 1.07427 h -0.9791 -0.97912 l 0.0549,-1.60628 c 0.0697,-2.04162 0.14858,-2.13443 1.86798,-2.19688 1.47844,-0.0538 1.96653,0.1408 2.23661,0.8913 0.1318,0.36623 0.19471,2.03448 0.20094,5.32896 l 0.009,4.79584 h -0.95499 c -0.52525,0 -0.99982,-0.0692 -1.05461,-0.15388 -0.0666,-0.10287 -0.19946,-0.10287 -0.40079,0 -0.50084,0.25591 -1.2141,0.17795 -1.54318,-0.16868 z m 1.86385,-2.98602 c 0,-1.04124 -0.0574,-1.58656 -0.16073,-1.52563 -0.0897,0.053 -0.16076,0.76893 -0.16076,1.62047 0,0.91477 0.0643,1.52561 0.16076,1.52561 0.097,0 0.16073,-0.64248 0.16073,-1.62045 z m 13.25475,3.11674 c -0.0424,-0.10549 -0.0582,-3.12688 -0.0352,-6.71417 l 0.042,-6.52234 1.72801,-0.0436 1.72802,-0.0436 v 0.92601 0.92598 h -0.5626 -0.56261 v 1.61141 1.61141 h 0.56261 0.5626 v 0.99753 0.99753 h -0.5626 -0.56261 v 2.22527 2.22527 h 0.56261 0.5626 v 0.99754 0.99754 h -1.69286 c -1.20604,0 -1.71507,-0.0551 -1.77,-0.19185 z m 7.80301,-0.006 c -0.22128,-0.1066 -0.48807,-0.43314 -0.59372,-0.72672 -0.23358,-0.6491 -0.27759,-8.04984 -0.0534,-8.97381 0.23848,-0.98264 0.64244,-1.18913 2.20484,-1.12696 1.9241,0.0765 1.88689,0.0154 1.94907,3.20384 l 0.0508,2.60385 h -1.13585 -1.13581 v 1.76486 c 0,1.07429 0.0629,1.76489 0.16074,1.76489 0.0938,0 0.16075,-0.51156 0.16075,-1.22773 v -1.22775 h 0.96448 0.96448 v 1.52469 c 0,1.82911 -0.12981,2.21817 -0.81625,2.44662 -0.69016,0.22971 -2.21988,0.21519 -2.72018,-0.0258 z m 1.60747,-7.85893 c 0,-0.76733 -0.0662,-1.30447 -0.16075,-1.30447 -0.0945,0 -0.16074,0.53714 -0.16074,1.30447 0,0.76733 0.0662,1.30447 0.16074,1.30447 0.0946,0 0.16075,-0.53714 0.16075,-1.30447 z m 3.37568,7.85893 c -0.2213,-0.1066 -0.48809,-0.43314 -0.59374,-0.72672 -0.23359,-0.6491 -0.2776,-8.04984 -0.0534,-8.97381 0.23848,-0.98264 0.64243,-1.18913 2.20484,-1.12696 1.86661,0.0742 1.88494,0.0986 1.95126,2.58993 l 0.0529,1.99003 h -0.97725 -0.97726 v -1.45793 c 0,-0.86966 -0.0648,-1.45794 -0.16073,-1.45794 -0.10289,0 -0.16075,1.3812 -0.16075,3.83667 0,2.45548 0.0579,3.83668 0.16075,3.83668 0.097,0 0.16073,-0.63944 0.16073,-1.6114 v -1.6114 h 0.96449 0.96447 v 1.90834 c 0,1.0496 -0.0671,2.07702 -0.14927,2.28317 -0.0865,0.21726 -0.36689,0.44726 -0.66696,0.54712 -0.69017,0.22971 -2.21989,0.21519 -2.72017,-0.0258 z m 5.20812,-0.021 c -0.27411,-0.11391 -0.55666,-0.33566 -0.62789,-0.49275 -0.0712,-0.15711 -0.16267,-2.16752 -0.2032,-4.46762 -0.0405,-2.30007 -0.13774,-4.18196 -0.21604,-4.18196 -0.0783,0 -0.14234,-0.37984 -0.14234,-0.84407 0,-0.46424 0.0692,-0.84407 0.15398,-0.84407 0.0847,0 0.17511,-0.53522 0.20093,-1.18937 l 0.0469,-1.18937 1.00466,-0.0456 1.00467,-0.0456 v 1.23506 c 0,1.13275 0.0266,1.23507 0.32148,1.23507 0.28254,0 0.32151,0.10231 0.32151,0.84405 0,0.74176 -0.039,0.84407 -0.32151,0.84407 -0.3129,0 -0.32148,0.10232 -0.32148,3.83668 0,3.73436 0.008,3.83667 0.32148,3.83667 0.28254,0 0.32151,0.10231 0.32151,0.84408 v 0.84405 l -0.68318,-0.006 c -0.37575,-0.003 -0.90744,-0.0992 -1.18153,-0.21313 z m 2.34696,-5.30566 v -5.52481 h 0.96446 c 0.55768,0 0.96448,0.067 0.96448,0.15887 0,0.10951 0.0966,0.10951 0.31093,0 0.35869,-0.18328 1.13433,-0.20633 1.39303,-0.0415 0.42501,0.27094 0.59944,0.96477 0.67337,2.67846 l 0.078,1.80811 h -0.98654 -0.98655 v -1.45794 c 0,-1.3469 -0.14613,-1.8086 -0.38465,-1.21518 -0.0536,0.13351 -0.0976,2.23984 -0.0976,4.68073 v 4.438 h -0.96448 -0.96446 z m 4.82238,0 v -5.52481 h 0.96447 0.96447 v 5.52481 5.5248 h -0.96447 -0.96447 z m 3.53958,5.33591 c -0.75893,-0.38226 -0.80201,-0.66462 -0.80453,-5.27464 -7.4e-4,-2.62169 0.0638,-4.49373 0.16638,-4.77469 0.22289,-0.61046 0.73805,-0.81139 2.08029,-0.81139 0.94021,0 1.17725,0.0562 1.55972,0.37033 0.44294,0.36369 0.45202,0.40496 0.50774,2.302 l 0.0567,1.93168 h -0.97498 -0.97496 l -0.0462,-1.40716 c -0.0314,-0.95641 -0.11059,-1.42752 -0.24716,-1.47072 -0.15718,-0.0497 -0.20093,0.77728 -0.20093,3.79868 0,3.02142 0.0437,3.8484 0.20093,3.79863 0.139,-0.044 0.21505,-0.5446 0.24675,-1.62419 l 0.0458,-1.56058 h 0.97461 0.97462 l -0.056,2.06772 c -0.0515,1.90432 -0.0847,2.09509 -0.41906,2.41419 -0.29752,0.28392 -0.57323,0.355 -1.52707,0.39372 -0.73939,0.03 -1.30946,-0.0261 -1.56271,-0.15358 z m 4.7768,-0.003 c -0.14553,-0.10551 -0.34019,-0.38624 -0.43258,-0.62386 -0.23957,-0.6161 -0.21154,-4.07939 0.0369,-4.55564 0.11005,-0.21102 0.64907,-0.65991 1.1978,-0.99754 l 0.9977,-0.61387 -0.0347,-1.13869 c -0.023,-0.74967 -0.10341,-1.16036 -0.2357,-1.20215 -0.14808,-0.0468 -0.20092,0.2224 -0.20092,1.02358 v 1.08706 h -0.96449 -0.96447 v -1.28157 c 0,-2.20998 0.30379,-2.55512 2.24904,-2.55512 0.94005,0 1.17731,0.0562 1.55972,0.37022 l 0.45102,0.37019 0.0482,5.15461 0.0483,5.1546 h -0.97251 c -0.56323,0 -0.97253,-0.0668 -0.97253,-0.15886 0,-0.10951 -0.0966,-0.10951 -0.31093,0 -0.42381,0.21656 -1.1784,0.19996 -1.49969,-0.0329 z m 1.77634,-3.182 c 0.041,-1.41034 0.0189,-1.56257 -0.20093,-1.38831 -0.32526,0.25772 -0.36899,3.1382 -0.0461,3.03597 0.13931,-0.0441 0.21507,-0.54947 0.24703,-1.64766 z m -61.37079,-3.45551 v -6.67581 h 0.96449 0.96447 v 6.67581 6.67582 h -0.96447 -0.96449 z m 30.54179,0 v -6.67581 h 0.96448 0.96448 v 6.67581 6.67582 h -0.96448 -0.96448 z m -39.29032,-5.02604 c 0.49169,-1.4871 0.42292,-1.41561 1.40987,-1.46559 0.49985,-0.0253 0.90881,5.5e-4 0.90881,0.058 0,0.0573 -0.2223,0.47505 -0.49403,0.92846 -0.48218,0.8046 -0.51136,0.82438 -1.21643,0.82438 -0.67581,0 -0.71502,-0.0223 -0.60822,-0.3453 z m 43.40148,0 c 0.4917,-1.4871 0.42293,-1.41561 1.40987,-1.46559 0.49985,-0.0253 0.90882,-0.01 0.90882,0.035 0,0.0445 -0.1959,0.46235 -0.43535,0.92845 l -0.43535,0.84746 h -0.78107 c -0.73667,0 -0.77459,-0.0196 -0.66692,-0.34529 z m -57.63966,-0.80555 v -0.84406 h 1.04485 1.04484 v 0.84406 0.84407 h -1.04484 -1.04485 z m 25.88015,0 v -0.84406 h 0.96447 0.96449 v 0.84406 0.84407 h -0.96449 -0.96447 z m 48.38463,0 v -0.84406 h 0.96447 0.96447 v 0.84406 0.84407 h -0.96447 -0.96447 z"
       id="path740"
       inkscape:connector-curvature="0" />
    <rect
       style="fill:#ffffff;fill-opacity:0.9038;stroke-width:0.244205"
       id="rect1"
       width="113.21276"
       height="121.11382"
       x="178.57928"
       y="156.24965" />
  </g>
</svg>
