<?xml version="1.0" encoding="UTF-8" standalone="no"?>
<!-- Created with Inkscape (http://www.inkscape.org/) -->

<svg
   width="800"
   height="780.41101"
   viewBox="0 0 211.66666 206.48375"
   version="1.1"
   id="svg8"
   inkscape:version="1.3.2 (091e20ef0f, 2023-11-25)"
   sodipodi:docname="hero-header.svg"
   xmlns:inkscape="http://www.inkscape.org/namespaces/inkscape"
   xmlns:sodipodi="http://sodipodi.sourceforge.net/DTD/sodipodi-0.dtd"
   xmlns="http://www.w3.org/2000/svg"
   xmlns:svg="http://www.w3.org/2000/svg"
   xmlns:rdf="http://www.w3.org/1999/02/22-rdf-syntax-ns#"
   xmlns:cc="http://creativecommons.org/ns#"
   xmlns:dc="http://purl.org/dc/elements/1.1/">
  <defs
     id="defs2" />
  <sodipodi:namedview
     id="base"
     pagecolor="#ffffff"
     bordercolor="#666666"
     borderopacity="1.0"
     inkscape:pageopacity="0.0"
     inkscape:pageshadow="2"
     inkscape:zoom="0.49497474"
     inkscape:cx="177.78685"
     inkscape:cy="439.41636"
     inkscape:document-units="mm"
     inkscape:current-layer="layer1"
     showgrid="true"
     inkscape:window-width="1440"
     inkscape:window-height="831"
     inkscape:window-x="0"
     inkscape:window-y="32"
     inkscape:window-maximized="1"
     inkscape:showpageshadow="2"
     inkscape:pagecheckerboard="0"
     inkscape:deskcolor="#d1d1d1">
    <inkscape:grid
       type="xygrid"
       id="grid608"
       originx="-92.675797"
       originy="56.962456"
       spacingy="1"
       spacingx="1"
       units="mm"
       visible="true" />
  </sodipodi:namedview>
  <metadata
     id="metadata5">
    <rdf:RDF>
      <cc:Work
         rdf:about="">
        <dc:format>image/svg+xml</dc:format>
        <dc:type
           rdf:resource="http://purl.org/dc/dcmitype/StillImage" />
      </cc:Work>
    </rdf:RDF>
  </metadata>
  <g
     inkscape:label="Capa 1"
     inkscape:groupmode="layer"
     id="layer1"
     transform="translate(-92.675801,-80.608948)">
    <path
       style="fill:#000000;fill-opacity:0.941176;stroke-width:0.142633"
       d="m 229.41429,161.12757 c -0.62535,-0.1716 -1.19474,-0.74706 -1.41418,-1.42921 -0.13194,-0.4101 -0.1837,-1.91948 -0.1837,-5.35688 v -4.78587 l 0.36664,-0.69361 c 0.47834,-0.90492 1.04065,-1.17863 2.42209,-1.17891 1.22303,-2.7e-4 1.90816,0.28807 2.34418,0.98653 0.27553,0.44136 0.2962,0.7641 0.34105,5.32508 0.0527,5.3579 -0.0171,6.03284 -0.68763,6.64043 -0.66424,0.60194 -2.0241,0.81199 -3.18845,0.49244 z m 1.48188,-6.71863 c 0,-4.89957 -0.004,-4.99204 -0.29331,-4.99204 -0.28699,0 -0.29414,0.10465 -0.33192,4.85443 -0.0213,2.66995 -0.004,4.93747 0.0363,5.0389 0.0412,0.10144 0.1905,0.16336 0.33191,0.13762 0.23932,-0.0436 0.25708,-0.39157 0.25708,-5.03891 z m 19.15425,6.63051 c -0.33999,-0.15843 -0.59357,-0.43185 -0.80124,-0.86385 -0.2814,-0.58545 -0.30804,-0.94499 -0.36105,-4.87376 -0.0771,-5.71618 0.10613,-6.76134 1.2908,-7.36051 0.70432,-0.35622 2.38,-0.35622 3.08433,0 0.81101,0.41018 1.07743,0.98547 1.14632,2.4753 l 0.0596,1.28916 h -1.18481 -1.18481 l -0.0425,-1.14445 c -0.0387,-1.03855 -0.0698,-1.14444 -0.3359,-1.14444 -0.28789,0 -0.29331,0.0925 -0.29331,4.99395 0,4.90148 0.004,4.99395 0.29331,4.99395 0.28113,0 0.29496,-0.10508 0.33327,-2.53165 0.0346,-2.19112 0.01,-2.53167 -0.18331,-2.53167 -0.17516,0 -0.22329,-0.17948 -0.22329,-0.83232 v -0.83233 h 1.39321 1.39322 v 4.231 4.23099 h -0.59134 c -0.47618,0 -0.61718,-0.0607 -0.72398,-0.31211 -0.073,-0.17169 -0.13683,-0.24121 -0.14193,-0.15455 -0.016,0.26984 -0.97356,0.60553 -1.71799,0.60223 -0.3911,-0.002 -0.93494,-0.10747 -1.20855,-0.23494 z m 28.57319,0.11486 c -0.76334,-0.23601 -1.05311,-0.47085 -1.36035,-1.10243 -0.29608,-0.60868 -0.31776,-0.89971 -0.3655,-4.90552 -0.0804,-6.74923 0.13359,-7.34715 2.66167,-7.43651 2.15854,-0.0763 2.77733,0.57009 2.86246,2.9902 l 0.0501,1.42191 h -1.18127 -1.18128 l -0.042,-1.35254 c -0.0387,-1.24682 -0.0649,-1.35252 -0.33528,-1.35252 -0.28788,0 -0.29329,0.0925 -0.29329,4.99395 0,4.90148 0.004,4.99395 0.29329,4.99395 0.27511,0 0.29587,-0.10545 0.33449,-1.69933 l 0.0411,-1.69933 h 1.18311 1.18312 l -0.0511,1.83806 c -0.0555,2.0007 -0.21828,2.48442 -1.02757,3.05497 -0.4334,0.30557 -2.10957,0.45986 -2.77174,0.25514 z m -79.77144,-6.6741 v -6.65861 h 1.17323 1.17324 v 2.42761 2.42762 h 0.36663 0.36663 v -2.42762 -2.42761 h 1.17324 1.17324 v 6.65861 6.65861 h -1.17324 -1.17324 v -3.3293 -3.32931 h -0.36663 -0.36663 v 3.32931 3.3293 h -1.17324 -1.17323 z m 13.1989,0.005 v -6.68972 l 2.08982,0.0477 c 1.87937,0.0428 2.13588,0.0787 2.5471,0.3562 0.8411,0.56752 0.86263,0.72421 0.86263,6.28074 0,4.48494 -0.0287,5.1233 -0.25138,5.5885 -0.37061,0.77434 -0.96015,0.95982 -3.30499,1.03992 l -1.94318,0.0663 z m 3.04526,0.0642 c 0.0354,-4.31093 0.0172,-4.73143 -0.21135,-4.88993 -0.13761,-0.0954 -0.30357,-0.1734 -0.36882,-0.1734 -0.0652,0 -0.11861,2.22042 -0.11861,4.93425 v 4.93425 l 0.32995,-0.0444 0.32999,-0.0444 z m 5.02073,-0.0772 v -6.67797 l 1.94317,0.0519 c 2.12496,0.0568 2.67065,0.21404 3.1517,0.9085 0.21941,0.31675 0.25802,0.70847 0.25802,2.61823 0,2.03348 -0.0271,2.27407 -0.28657,2.54529 -0.28445,0.29732 -0.28411,0.32119 0.0458,3.23982 0.18277,1.61717 0.36967,3.1744 0.41529,3.46052 l 0.083,0.5202 h -1.17178 -1.17178 l -0.085,-0.72829 c -0.0466,-0.40056 -0.19873,-1.89874 -0.3378,-3.32931 -0.13907,-1.43056 -0.30671,-2.60102 -0.37254,-2.60102 -0.0658,0 -0.13739,1.48258 -0.15901,3.29464 l -0.0393,3.29462 -1.13658,0.0405 -1.13656,0.0405 z m 2.90375,-1.68461 c 0.2811,-0.26589 0.23619,-2.80867 -0.0544,-3.08357 -0.12673,-0.11991 -0.29172,-0.21801 -0.36663,-0.21801 -0.0765,0 -0.13619,0.75941 -0.13619,1.73402 0,1.76457 0.0878,2.01161 0.5573,1.56756 z m 17.92119,1.6863 v -6.6647 l 1.05991,0.0408 1.05992,0.0407 0.55327,0.90107 0.5533,0.90108 v -0.93575 -0.93574 h 1.17324 1.17323 v 6.6586 6.65861 h -1.15358 -1.15357 l -0.0765,-3.98823 c -0.0713,-3.7195 -0.0999,-4.05365 -0.42298,-4.95928 l -0.34649,-0.97105 -0.0386,4.95928 -0.0385,4.95928 h -1.17138 -1.17137 z m 16.13197,0.006 v -6.65863 h 2.27315 2.27314 v 0.83232 0.83233 h -1.0999 -1.09992 v 1.59529 1.5953 h 1.02659 1.02658 v 0.90168 0.90169 h -1.02658 -1.02659 v 2.42761 2.42763 h 1.09992 1.0999 v 0.90168 0.90169 h -2.27314 -2.27315 z m 6.74611,0 v -6.65863 h 1.24657 1.24656 v 5.75692 5.75693 h 1.02659 1.02658 v 0.90168 0.90169 h -2.27316 -2.27314 z m 6.4528,0 v -6.65863 h 2.27314 2.27315 v 0.83232 0.83233 h -1.0999 -1.09992 v 1.59529 1.5953 h 1.02659 1.02657 v 0.90168 0.90169 h -1.02657 -1.02659 v 2.42761 2.42763 h 1.09992 1.0999 v 0.90168 0.90169 h -2.27315 -2.27314 z m -63.20807,-0.0693 v -6.58928 h 1.17324 1.17324 v 6.58925 6.58925 h -1.17324 -1.17324 z m 28.89093,0 v -6.58928 h 1.17324 1.17324 v 6.58925 6.58925 h -1.17324 -1.17324 z"
       id="path746"
       inkscape:connector-curvature="0" />
    <path
       style="fill:#28aaef;fill-opacity:0.941176;stroke-width:0.142633"
       d="m 217.95258,143.67483 c 0.26129,-0.84093 1.80717,-3.56737 2.97025,-5.23861 1.46058,-2.09871 2.61227,-3.48003 6.81072,-8.16858 4.46325,-4.98429 6.35124,-7.42088 8.23184,-10.62378 1.65108,-2.812 3.02295,-6.20331 3.70464,-9.15806 0.32558,-1.4112 0.64894,-1.80767 1.20312,-1.47525 0.10624,0.0637 0.41281,0.96323 0.68143,1.99901 1.45915,5.62657 3.97844,10.21869 8.65484,15.77599 0.77919,0.92595 2.45978,2.83406 5.74664,6.52467 1.71976,1.93102 3.87294,4.71978 4.86885,6.30609 0.87091,1.38714 1.89961,3.34118 2.13665,4.05852 l 0.10315,0.31213 h -22.60456 -22.60454 z m 11.87248,-3.95354 c 0.16899,-1.50936 0.88176,-3.94028 1.75247,-5.97692 l 0.81037,-1.89551 -0.54742,0.55487 c -3.50914,3.55707 -5.76579,6.2831 -6.41168,7.74532 l -0.22465,0.50859 h 2.25802 2.25804 z"
       id="path748"
       inkscape:connector-curvature="0" />
    <path
       style="fill:#ff660f;fill-opacity:0.941176;stroke-width:0.142633"
       d="m 231.49327,188.88018 c -0.92759,-0.22353 -2.36297,-0.63324 -3.18973,-0.91047 l -1.50322,-0.50405 v -2.89573 -2.8957 l -0.6966,-0.33711 c -0.38314,-0.18541 -1.27396,-0.68157 -1.9796,-1.10259 l -1.28302,-0.76547 -2.73895,1.37726 c -2.33979,1.17656 -2.77259,1.35071 -2.96998,1.19507 -2.17495,-1.71522 -5.58391,-5.0672 -5.58391,-5.49058 0,-0.11126 0.66124,-1.28362 1.46942,-2.60526 l 1.46941,-2.40296 -0.88292,-1.3826 c -0.48561,-0.76042 -0.99162,-1.59821 -1.12449,-1.86177 -0.13287,-0.26354 -0.38029,-0.51439 -0.54983,-0.55744 -0.16954,-0.043 -1.03419,-0.0795 -1.92145,-0.081 -0.88727,-0.002 -2.15314,-0.0426 -2.81306,-0.0911 l -1.19987,-0.0884 -0.29914,-0.77782 c -0.16454,-0.4278 -0.34119,-0.94948 -0.39258,-1.1593 l -0.0935,-0.38149 h 6.65945 6.65945 l 0.33786,0.65893 c 0.52497,1.02386 1.77111,2.76842 2.84763,3.98661 0.53859,0.60948 0.97928,1.18691 0.97928,1.28318 0,0.0963 0.0673,0.17502 0.14948,0.17502 0.0823,0 0.69267,0.44451 1.35655,0.98779 3.66908,3.00255 7.43425,4.73863 12.20616,5.62813 2.04355,0.38092 6.80505,0.34112 8.8726,-0.0742 4.51322,-0.90655 8.38821,-2.71615 11.76088,-5.49221 0.70131,-0.57724 1.37775,-1.04954 1.50321,-1.04954 0.12718,0 0.22811,-0.11787 0.22811,-0.26635 0,-0.14649 0.3556,-0.6615 0.79023,-1.14445 0.9215,-1.02398 2.19514,-2.79585 2.81088,-3.91047 l 0.4319,-0.78179 6.6361,-2.8e-4 c 4.31471,-2.8e-4 6.63611,0.048 6.63611,0.13801 0,0.10183 -0.80207,1.83665 -0.94259,2.03877 -0.01,0.0148 -1.39923,0.1571 -3.0865,0.31618 -1.68726,0.15907 -3.0799,0.30302 -3.09472,0.31987 -0.015,0.0168 -0.20917,0.3736 -0.43188,0.79279 -0.22269,0.4192 -0.73043,1.25864 -1.12828,1.86542 l -0.72339,1.10325 0.28892,0.49284 c 1.13468,1.93538 2.51899,4.47905 2.51899,4.62861 0,0.32614 -2.62361,2.97705 -4.27516,4.31963 -1.26118,1.02524 -1.67557,1.29079 -1.8631,1.19391 -0.13266,-0.0684 -1.32677,-0.72091 -2.65357,-1.44974 l -2.41237,-1.32516 -0.44738,0.27833 c -0.24607,0.15308 -1.14765,0.65363 -2.00349,1.11233 l -1.55611,0.834 -0.10657,2.87201 c -0.0585,1.57961 -0.12921,2.89366 -0.15684,2.92011 -0.13171,0.12613 -3.24085,1.04874 -4.5437,1.34834 -1.84269,0.42372 -3.81956,0.47114 -3.95203,0.0948 -0.047,-0.13353 -0.66423,-1.17551 -1.37164,-2.31552 l -1.28617,-2.07275 -2.3246,-0.008 -2.32461,-0.008 -1.53093,2.32358 -1.53092,2.32358 -0.97887,-0.006 c -0.57996,-0.004 -1.66618,-0.17194 -2.6654,-0.41273 z"
       id="path742"
       inkscape:connector-curvature="0" />
    <path
       style="fill:#f5620e;fill-opacity:0.980392;stroke-width:0.142633"
       d="m 231.02415,169.41039 c -0.6651,-0.18238 -0.82579,-0.67226 -0.76528,-2.3329 0.067,-1.84089 0.1139,-1.88601 1.9572,-1.88601 1.59809,0 1.85994,0.13778 1.88865,0.99379 0.0151,0.44764 -0.0331,0.53898 -0.3022,0.57522 -0.20649,0.0277 -0.37867,-0.0605 -0.48526,-0.2489 -0.14672,-0.25934 -0.27504,-0.28744 -1.1465,-0.25118 l -0.98129,0.0408 v 1.04041 1.04041 h 1.02458 c 0.8592,0 1.03255,-0.0391 1.074,-0.24276 0.0406,-0.19914 -0.058,-0.24275 -0.54793,-0.24275 -0.58642,0 -0.59738,-0.009 -0.59738,-0.49188 v -0.49186 l 0.98992,0.041 0.98992,0.041 0.0379,0.76297 c 0.0474,0.95098 -0.19217,1.40888 -0.84838,1.62213 -0.59806,0.19437 -1.63966,0.20823 -2.28799,0.0305 z m -6.76793,-2.10343 0.0404,-2.11548 h 0.43996 0.43997 l 0.0405,2.11548 0.0404,2.11551 h -0.52092 -0.52094 z m 1.43373,-0.0346 v -2.15017 h 0.74186 0.7419 l 0.83465,1.62999 0.83466,1.62997 0.0734,-1.59531 c 0.0731,-1.59066 0.0744,-1.59529 0.43996,-1.59529 h 0.36665 l 0.0404,2.11551 0.0406,2.1155 h -0.78114 -0.78114 l -0.82217,-1.62998 -0.82216,-1.62998 -0.0137,1.62998 -0.0138,1.62998 H 226.12997 225.69 Z m 8.94593,0 v -2.15017 h 1.61318 1.6132 v 0.55488 0.55491 h -1.17325 c -1.07545,0 -1.17321,0.0231 -1.17321,0.27743 0,0.25278 0.0977,0.27743 1.09989,0.27743 h 1.09992 v 0.48552 0.48554 h -1.09992 c -1.00213,0 -1.09989,0.0246 -1.09989,0.27743 0,0.25434 0.0977,0.27746 1.17321,0.27746 h 1.17325 v 0.55487 0.5549 h -1.6132 -1.61318 z m 3.66635,0 v -2.15017 h 0.74188 0.74188 l 0.83465,1.62999 0.83466,1.62997 0.042,-1.52403 c 0.023,-0.83821 0.10073,-1.57962 0.17257,-1.64756 0.0719,-0.068 0.30041,-0.0833 0.50798,-0.0339 l 0.37736,0.0896 v 2.07818 2.07818 h -0.85063 -0.85065 l -0.82216,-1.62999 -0.82215,-1.62996 -0.0138,1.62996 -0.0138,1.62999 h -0.43995 -0.43998 z m 4.57914,0.0346 0.0406,-2.11548 0.4033,-0.0438 0.40329,-0.0438 v 2.15939 2.15939 h -0.44378 -0.44378 z m 1.43368,-0.0346 v -2.15017 h 1.61321 1.61319 v 0.55488 0.55491 h -1.17323 c -1.07547,0 -1.17324,0.0231 -1.17324,0.27743 0,0.25278 0.0978,0.27743 1.09991,0.27743 h 1.09992 v 0.48552 0.48554 h -1.09992 c -1.00214,0 -1.09991,0.0246 -1.09991,0.27743 0,0.25434 0.0978,0.27746 1.17324,0.27746 h 1.17323 v 0.55487 0.5549 h -1.61319 -1.61321 z m 3.66638,-0.0123 v -2.16244 l 1.60623,0.0469 c 1.01787,0.0298 1.67244,0.10972 1.78699,0.21829 0.29695,0.28147 0.34827,1.78034 0.0745,2.17558 -0.15441,0.22292 -0.17894,0.3547 -0.0723,0.38833 0.0887,0.0279 0.19447,0.376 0.23484,0.77334 l 0.0734,0.72241 h -0.44976 c -0.41248,0 -0.45354,-0.0425 -0.49529,-0.51205 l -0.0455,-0.51208 -0.91642,-0.008 -0.91642,-0.008 -1.4e-4,0.5202 c -1.5e-4,0.48548 -0.0295,0.5202 -0.44013,0.5202 h -0.43999 v -2.16246 z m 2.76124,-0.54148 c -0.0464,-0.36576 -0.0813,-0.38015 -0.96482,-0.39837 l -0.91669,-0.0189 10e-5,0.44392 c 9e-5,0.44311 0.002,0.44399 0.84336,0.48554 0.99026,0.0488 1.10218,-0.006 1.03805,-0.51216 z m 1.23126,0.58844 0.0406,-2.11551 h 0.43997 0.43997 l 0.0406,2.11551 0.0406,2.1155 h -0.52094 -0.52093 z m 1.7465,0.55489 c 0.32855,-0.85834 0.69689,-1.82906 0.81853,-2.15716 0.22075,-0.59541 0.22241,-0.59646 0.88741,-0.55488 l 0.66624,0.0417 0.78399,2.08077 c 0.4312,1.14445 0.78402,2.09641 0.78402,2.1155 0,0.0192 -0.22384,0.0347 -0.4974,0.0347 -0.40825,0 -0.51388,-0.0621 -0.58941,-0.3468 -0.0877,-0.3307 -0.14224,-0.34681 -1.17324,-0.34681 -1.03098,0 -1.08549,0.0161 -1.17324,0.34681 -0.0759,0.28611 -0.18059,0.3468 -0.59815,0.3468 h -0.50612 z m 2.27382,-0.42427 c -0.17462,-0.65806 -0.55754,-1.37675 -0.67065,-1.25865 -0.0969,0.10116 -0.59606,1.38601 -0.59606,1.53422 0,0.0246 0.3041,0.0447 0.67583,0.0447 0.63271,0 0.67041,-0.0203 0.59088,-0.32023 z"
       id="path744"
       inkscape:connector-curvature="0" />
    <path
       style="fill:#000000;fill-opacity:0.941176;stroke-width:0.142633"
       d="m 241.37148,204.15227 v -0.76296 h 0.73328 c 0.60239,0 0.73242,-0.0433 0.72854,-0.24276 -0.002,-0.13352 -0.25441,-2.53686 -0.55958,-5.34077 l -0.55485,-5.098 h 0.84039 0.84035 l 0.0834,1.00572 c 0.0459,0.55315 0.13626,1.84846 0.20099,2.87847 l 0.11768,1.87274 0.12273,-2.87847 0.12272,-2.87846 h 0.86202 c 0.72323,0 0.86203,0.0391 0.86199,0.24276 -4e-5,0.13353 -0.25913,2.65588 -0.57576,5.60524 -0.38841,3.61779 -0.64892,5.49636 -0.80069,5.77397 -0.26962,0.4932 -0.56483,0.58111 -1.95989,0.58359 l -1.06325,0.002 z m -42.52979,-7.5603 v -6.10373 h 1.02659 1.02657 v 2.2889 c 0,1.9421 0.0333,2.28889 0.21999,2.28889 0.18665,0 0.21999,-0.34679 0.21999,-2.28889 v -2.2889 h 1.02657 1.02657 v 6.10373 6.10373 h -1.02657 -1.02657 v -2.91314 c 0,-2.49699 -0.0315,-2.91314 -0.21999,-2.91314 -0.18855,0 -0.21999,0.41615 -0.21999,2.91314 v 2.91314 h -1.02657 -1.02659 z m 5.27956,1.11639 v -5.00058 h 0.9551 0.95511 l -0.0385,4.95927 -0.0385,4.9593 -0.9166,0.0412 -0.91658,0.0412 z m 3.05933,4.72216 -0.34623,-0.26519 v -4.43676 c 0,-4.24101 0.013,-4.4503 0.29311,-4.74312 0.24512,-0.25622 0.40709,-0.29598 0.98992,-0.24301 l 0.69681,0.0634 v -1.16538 -1.1654 l 0.91658,0.0413 0.91659,0.0412 v 6.03438 6.03437 l -0.91659,0.0412 c -0.58694,0.0265 -0.91658,-0.0128 -0.91658,-0.10891 0,-0.10553 -0.0844,-0.1075 -0.28367,-0.007 -0.43413,0.21977 -0.96693,0.17178 -1.34994,-0.12158 z m 1.63361,-4.80632 c 0,-2.23593 -0.0504,-3.3774 -0.14665,-3.32113 -0.0911,0.0532 -0.14666,1.34242 -0.14666,3.40685 0,2.1216 0.053,3.32113 0.14666,3.32113 0.0938,0 0.14665,-1.2281 0.14665,-3.40685 z m 2.63978,0.0776 v -4.99396 h 0.87993 c 0.58662,0 0.87993,0.0554 0.87993,0.16647 0,0.12948 0.0392,0.12948 0.17598,0 0.29372,-0.27785 1.21046,-0.20263 1.52448,0.12509 0.23807,0.24846 0.28651,0.55607 0.32768,2.08082 l 0.0484,1.78926 h -0.81276 -0.81275 l -0.0422,-1.28318 c -0.0241,-0.73637 -0.1047,-1.28317 -0.18881,-1.28317 -0.0937,0 -0.16069,1.51573 -0.18548,4.19632 l -0.0389,4.19631 h -0.87776 -0.87778 z m 4.78624,4.81685 c -0.3716,-0.25704 -0.52587,-1.07477 -0.52921,-2.8054 -0.004,-1.83423 0.14495,-2.14287 1.36853,-2.84431 l 0.82724,-0.47424 v -1.08047 c 0,-0.86793 -0.0433,-1.08047 -0.21998,-1.08047 -0.17459,0 -0.21998,0.2004 -0.21998,0.97106 v 0.97104 h -0.89699 -0.89698 l 0.0596,-1.40401 c 0.0564,-1.32919 0.0813,-1.42161 0.46519,-1.73401 0.34234,-0.27855 0.56332,-0.33 1.4171,-0.33 1.22456,0 1.69457,0.18162 1.89793,0.73342 0.095,0.25788 0.15395,2.10865 0.15395,4.83612 v 4.41838 h -0.87993 c -0.50879,0 -0.87992,-0.0606 -0.87992,-0.1436 0,-0.099 -0.0882,-0.099 -0.28367,0 -0.38897,0.1969 -1.07375,0.1803 -1.3829,-0.0335 z m 1.66656,-2.82238 c 0,-1.2941 -0.0267,-1.45252 -0.21998,-1.30087 -0.16473,0.12932 -0.21998,0.47621 -0.21998,1.38109 0,0.6646 0.044,1.24999 0.0978,1.30085 0.2708,0.25618 0.34219,-0.0319 0.34219,-1.38107 z m 2.97792,2.66486 -0.41148,-0.33462 -0.0456,-4.65934 -0.0456,-4.65933 h 0.88675 0.88674 l 0.0389,4.19631 c 0.0248,2.68058 0.0918,4.19631 0.18546,4.19631 0.0937,0 0.16067,-1.51573 0.18547,-4.19631 l 0.0389,-4.19631 h 0.87778 0.87778 v 4.99396 4.99396 h -0.87993 c -0.50879,0 -0.87993,-0.0606 -0.87993,-0.1436 0,-0.099 -0.0882,-0.099 -0.28368,0 -0.46482,0.23532 -0.99389,0.1647 -1.43132,-0.19103 z m 6.84793,-4.65933 v -4.99396 h 0.87992 0.87993 v 4.99396 4.99396 h -0.87993 -0.87992 z m 3.04947,4.78639 c -0.25767,-0.13706 -0.42765,-0.36882 -0.48458,-0.6607 -0.0483,-0.24727 -0.0677,-2.27336 -0.0431,-4.50243 0.0529,-4.80002 -0.0494,-4.52401 1.69883,-4.58693 1.9168,-0.0689 2.2098,0.28887 2.22386,2.71607 l 0.008,1.42851 -0.91658,-0.0413 -0.9166,-0.0412 -0.0422,-1.28318 c -0.0231,-0.70574 -0.10569,-1.28316 -0.18331,-1.28316 -0.0867,0 -0.14114,1.33863 -0.14114,3.46802 0,2.13572 0.0543,3.46803 0.14152,3.46803 0.079,0 0.15999,-0.62813 0.18332,-1.42188 l 0.0418,-1.4219 0.91659,-0.0412 0.91659,-0.0412 -0.004,1.42852 c -0.004,1.59227 -0.15252,2.39852 -0.50335,2.73035 -0.33384,0.31579 -2.35177,0.37562 -2.89648,0.0859 z m 4.34264,-0.0841 c -0.24221,-0.25278 -0.28571,-0.55837 -0.32701,-2.29742 -0.0553,-2.32859 -0.0268,-2.40252 1.22511,-3.18884 l 0.80236,-0.5039 v -1.09013 c 0,-0.63427 -0.0613,-1.09014 -0.14665,-1.09014 -0.0839,0 -0.14666,0.41617 -0.14666,0.97106 v 0.97105 h -0.89327 -0.89329 l 0.05,-1.45195 c 0.0636,-1.84545 0.13556,-1.92934 1.70422,-1.98579 1.34883,-0.0486 1.79413,0.12727 2.04054,0.80566 0.12024,0.33104 0.17764,1.839 0.18333,4.81693 l 0.008,4.33503 h -0.87128 c -0.4792,0 -0.91216,-0.0625 -0.96215,-0.13909 -0.0607,-0.093 -0.18198,-0.093 -0.36565,0 -0.45694,0.23132 -1.10767,0.16085 -1.4079,-0.15247 z m 1.70046,-2.69911 c 0,-0.9412 -0.0523,-1.43412 -0.14665,-1.37904 -0.0819,0.0479 -0.14666,0.69504 -0.14666,1.46476 0,0.82688 0.0586,1.37903 0.14666,1.37903 0.0885,0 0.14665,-0.58075 0.14665,-1.46475 z m 12.09277,2.81726 c -0.0387,-0.0954 -0.0531,-2.82643 -0.0321,-6.06904 l 0.0384,-5.89564 1.57652,-0.0394 1.57654,-0.0394 v 0.83704 0.837 h -0.51329 -0.51328 v 1.45658 1.45658 h 0.51328 0.51329 v 0.90168 0.90168 h -0.51329 -0.51328 v 2.01146 2.01145 h 0.51328 0.51329 v 0.9017 0.90169 h -1.54446 c -1.10031,0 -1.56472,-0.0498 -1.61483,-0.17342 z m 7.11896,-0.005 c -0.20188,-0.0964 -0.44529,-0.39152 -0.54168,-0.65689 -0.2131,-0.58673 -0.25325,-7.27637 -0.0487,-8.11157 0.21757,-0.88822 0.58611,-1.07487 2.01154,-1.01867 1.75543,0.0692 1.72149,0.0139 1.77821,2.896 l 0.0464,2.35366 h -1.03627 -1.03624 v 1.59528 c 0,0.97107 0.0574,1.59531 0.14666,1.59531 0.0856,0 0.14665,-0.4624 0.14665,-1.10976 v -1.10978 h 0.87993 0.87993 v 1.37819 c 0,1.65336 -0.11843,2.00504 -0.7447,2.21153 -0.62966,0.20764 -2.02527,0.19452 -2.48171,-0.0233 z m 1.46655,-7.10381 c 0,-0.6936 -0.0604,-1.17913 -0.14666,-1.17913 -0.0862,0 -0.14665,0.48553 -0.14665,1.17913 0,0.69361 0.0604,1.17914 0.14665,1.17914 0.0863,0 0.14666,-0.48553 0.14666,-1.17914 z m 3.07975,7.10381 c -0.2019,-0.0964 -0.44531,-0.39152 -0.54169,-0.65689 -0.21312,-0.58673 -0.25326,-7.27637 -0.0487,-8.11157 0.21758,-0.88822 0.58612,-1.07487 2.01156,-1.01867 1.70297,0.0671 1.71969,0.0891 1.78019,2.34108 l 0.0483,1.79881 h -0.89157 -0.8916 v -1.31784 c 0,-0.7861 -0.0592,-1.31786 -0.14664,-1.31786 -0.0939,0 -0.14665,1.24849 -0.14665,3.46803 0,2.21954 0.0528,3.46803 0.14665,3.46803 0.0885,0 0.14664,-0.578 0.14664,-1.45657 v -1.45657 h 0.87993 0.87992 v 1.72498 c 0,0.94875 -0.0612,1.87745 -0.13617,2.06379 -0.0789,0.19639 -0.33473,0.40429 -0.6085,0.49455 -0.62966,0.20764 -2.02528,0.19452 -2.4817,-0.0233 z m 4.75155,-0.019 c -0.25008,-0.10297 -0.50786,-0.30341 -0.57284,-0.4454 -0.0649,-0.14202 -0.14842,-1.95926 -0.18539,-4.03835 -0.0369,-2.07907 -0.12566,-3.78014 -0.1971,-3.78014 -0.0714,0 -0.12986,-0.34335 -0.12986,-0.76297 0,-0.41963 0.0632,-0.76297 0.14047,-0.76297 0.0773,0 0.15977,-0.48379 0.18332,-1.07509 l 0.0428,-1.07509 0.9166,-0.0412 0.91659,-0.0412 v 1.11639 c 0,1.02391 0.0242,1.11639 0.29329,1.11639 0.25778,0 0.29334,0.0925 0.29334,0.76295 0,0.67049 -0.0356,0.76297 -0.29334,0.76297 -0.28546,0 -0.29329,0.0925 -0.29329,3.46804 0,3.37554 0.008,3.46802 0.29329,3.46802 0.25778,0 0.29334,0.0925 0.29334,0.76298 v 0.76295 l -0.6233,-0.005 c -0.34281,-0.003 -0.82789,-0.0897 -1.07794,-0.19265 z m 2.14122,-4.79587 v -4.99396 h 0.87991 c 0.50879,0 0.87993,0.0606 0.87993,0.14361 0,0.099 0.0882,0.099 0.28366,0 0.32725,-0.16567 1.0349,-0.18651 1.27091,-0.0375 0.38776,0.2449 0.54689,0.87207 0.61435,2.4211 l 0.0712,1.63437 h -0.90006 -0.90006 v -1.31785 c 0,-1.21748 -0.13332,-1.63482 -0.35094,-1.09842 -0.0489,0.12068 -0.0891,2.02463 -0.0891,4.23098 v 4.01158 h -0.87993 -0.87991 z m 4.39962,0 v -4.99396 h 0.87992 0.87992 v 4.99396 4.99395 h -0.87992 -0.87992 z m 3.22928,4.82321 c -0.69239,-0.34553 -0.7317,-0.60076 -0.734,-4.76782 -6.7e-4,-2.36979 0.0582,-4.06196 0.15179,-4.31592 0.20336,-0.5518 0.67336,-0.73343 1.89793,-0.73343 0.85778,0 1.07404,0.0508 1.42299,0.33475 0.4041,0.32874 0.41239,0.36605 0.46323,2.08081 l 0.0517,1.74608 h -0.88951 -0.88949 l -0.0422,-1.27196 c -0.0286,-0.86451 -0.10084,-1.29035 -0.22549,-1.3294 -0.1434,-0.0449 -0.18331,0.70259 -0.18331,3.43368 0,2.73111 0.0399,3.47863 0.18331,3.43364 0.12682,-0.0398 0.1962,-0.49227 0.22512,-1.46813 l 0.0418,-1.41063 h 0.88916 0.88919 l -0.0511,1.86904 c -0.047,1.72135 -0.0773,1.89379 -0.38232,2.18223 -0.27144,0.25664 -0.52298,0.32089 -1.3932,0.35589 -0.67458,0.0271 -1.19466,-0.0236 -1.42572,-0.13883 z m 4.35805,-0.003 c -0.13278,-0.0954 -0.31037,-0.34913 -0.39466,-0.56392 -0.21857,-0.5569 -0.193,-3.68742 0.0336,-4.11791 0.1004,-0.19074 0.59217,-0.5965 1.09279,-0.90169 l 0.91024,-0.55489 -0.0316,-1.02928 c -0.0209,-0.67763 -0.0943,-1.04886 -0.21504,-1.08664 -0.13509,-0.0423 -0.1833,0.20103 -0.1833,0.92523 v 0.98261 h -0.87995 -0.87992 v -1.15843 c 0,-1.99763 0.27716,-2.30961 2.05188,-2.30961 0.85764,0 1.0741,0.0508 1.42299,0.33465 l 0.41149,0.33462 0.044,4.65933 0.0441,4.65932 h -0.88726 c -0.51385,0 -0.88727,-0.0604 -0.88727,-0.1436 0,-0.099 -0.0882,-0.099 -0.28366,0 -0.38666,0.19576 -1.0751,0.18075 -1.36823,-0.0297 z m 1.62061,-2.87626 c 0.0374,-1.27483 0.0172,-1.41243 -0.18331,-1.25491 -0.29675,0.23296 -0.33664,2.83666 -0.0421,2.74426 0.12711,-0.0399 0.19622,-0.49668 0.22538,-1.48935 z m -55.99072,-3.12349 v -6.03436 h 0.87994 0.87992 v 6.03436 6.03438 h -0.87992 -0.87994 z m 27.86434,0 v -6.03436 h 0.87993 0.87993 v 6.03436 6.03438 h -0.87993 -0.87993 z m -35.84594,-4.54311 c 0.4486,-1.34421 0.38586,-1.27959 1.28629,-1.32477 0.45602,-0.0229 0.82913,5e-4 0.82913,0.0524 0,0.0518 -0.20281,0.4294 -0.45072,0.83925 -0.43991,0.72729 -0.46653,0.74517 -1.10979,0.74517 -0.61657,0 -0.65234,-0.0202 -0.55491,-0.31212 z m 39.5967,0 c 0.44859,-1.34421 0.38586,-1.27959 1.28628,-1.32477 0.45602,-0.0229 0.82914,-0.009 0.82914,0.0316 0,0.0402 -0.17872,0.41792 -0.39718,0.83924 l -0.39719,0.76603 h -0.71259 c -0.6721,0 -0.70669,-0.0177 -0.60846,-0.31211 z m -52.58668,-0.72815 v -0.76296 h 0.95325 0.95324 v 0.76296 0.76297 h -0.95324 -0.95325 z m 23.61137,0 v -0.76296 h 0.87992 0.87993 v 0.76296 0.76297 h -0.87993 -0.87992 z m 44.14299,0 v -0.76296 h 0.87992 0.87992 v 0.76296 0.76297 h -0.87992 -0.87992 z"
       id="path740"
       inkscape:connector-curvature="0" />
  </g>
</svg>
