<?xml version="1.0" encoding="UTF-8" standalone="no"?>
<!-- Created with Inkscape (http://www.inkscape.org/) -->

<svg
   width="192"
   height="192"
   viewBox="0 0 50.799998 50.800002"
   version="1.1"
   id="svg8"
   inkscape:version="1.3.2 (091e20ef0f, 2023-11-25)"
   sodipodi:docname="logo-icon.svg"
   xmlns:inkscape="http://www.inkscape.org/namespaces/inkscape"
   xmlns:sodipodi="http://sodipodi.sourceforge.net/DTD/sodipodi-0.dtd"
   xmlns="http://www.w3.org/2000/svg"
   xmlns:svg="http://www.w3.org/2000/svg"
   xmlns:rdf="http://www.w3.org/1999/02/22-rdf-syntax-ns#"
   xmlns:cc="http://creativecommons.org/ns#"
   xmlns:dc="http://purl.org/dc/elements/1.1/">
  <defs
     id="defs2" />
  <sodipodi:namedview
     id="base"
     pagecolor="#ffffff"
     bordercolor="#666666"
     borderopacity="1.0"
     inkscape:pageopacity="0.0"
     inkscape:pageshadow="2"
     inkscape:zoom="4"
     inkscape:cx="113.125"
     inkscape:cy="112.875"
     inkscape:document-units="px"
     inkscape:current-layer="layer1"
     showgrid="true"
     inkscape:window-width="1440"
     inkscape:window-height="831"
     inkscape:window-x="0"
     inkscape:window-y="32"
     inkscape:window-maximized="1"
     inkscape:showpageshadow="2"
     inkscape:pagecheckerboard="0"
     inkscape:deskcolor="#d1d1d1">
    <inkscape:grid
       type="xygrid"
       id="grid608"
       originx="-120.66768"
       originy="34.68457"
       spacingy="1"
       spacingx="1"
       units="mm"
       visible="true" />
  </sodipodi:namedview>
  <metadata
     id="metadata5">
    <rdf:RDF>
      <cc:Work
         rdf:about="">
        <dc:format>image/svg+xml</dc:format>
        <dc:type
           rdf:resource="http://purl.org/dc/dcmitype/StillImage" />
      </cc:Work>
    </rdf:RDF>
  </metadata>
  <g
     inkscape:label="Capa 1"
     inkscape:groupmode="layer"
     id="layer1"
     transform="translate(-120.66769,-81.267389)">
    <path
       style="fill:#28aaef;fill-opacity:1;stroke-width:0.125548"
       d="m 126.00566,112.06739 c 0.23052,-0.73853 1.59434,-3.13288 2.62046,-4.60057 1.28861,-1.84306 2.30465,-3.05613 6.00867,-7.17361 3.93769,-4.377178 5.60335,-6.516976 7.26248,-9.329765 1.45666,-2.469482 2.66695,-5.447719 3.26837,-8.042561 0.28727,-1.239315 0.57253,-1.587492 1.06145,-1.295562 0.0936,0.05596 0.36421,0.845905 0.6012,1.755514 1.28731,4.941243 3.50991,8.97403 7.63564,13.854415 0.68741,0.813166 2.1701,2.488872 5.06992,5.729949 1.51725,1.69581 3.41687,4.14489 4.29548,5.53797 0.76835,1.2182 1.67592,2.93421 1.88502,3.56422 l 0.0912,0.27409 h -19.94271 -19.94262 z m 10.47435,-3.47202 c 0.14896,-1.32551 0.77795,-3.46033 1.54612,-5.24891 l 0.71495,-1.66463 -0.48299,0.48731 c -3.09588,3.1238 -5.08679,5.51778 -5.6566,6.80188 l -0.19821,0.44666 h 1.99214 1.99213 z"
       id="path748"
       inkscape:connector-curvature="0" />
    <path
       style="fill:#28aaef;fill-opacity:1;stroke-width:0.582646"
       id="path4"
       sodipodi:type="arc"
       sodipodi:cx="145.8634"
       sodipodi:cy="117.02224"
       sodipodi:rx="19.979437"
       sodipodi:ry="14.233918"
       sodipodi:start="6.2133721"
       sodipodi:end="3.2114058"
       sodipodi:arc-type="arc"
       d="m 165.79417,116.02933 a 19.979437,14.233918 0 0 1 -9.54114,13.1509 19.979437,14.233918 0 0 1 -20.77926,0 19.979437,14.233918 0 0 1 -9.54113,-13.1509"
       sodipodi:open="true" />
    <path
       style="fill:#fd9b0d;fill-opacity:1;stroke-width:0.0733382"
       d="m 141.18328,128.12392 c -0.48774,-0.11239 -1.24249,-0.31839 -1.6772,-0.45778 l -0.79041,-0.25343 v -1.45596 -1.45594 l -0.3663,-0.1695 c -0.20144,-0.0931 -0.66986,-0.34269 -1.0409,-0.55438 l -0.67462,-0.38488 -1.44017,0.69249 c -1.2303,0.59157 -1.45787,0.67913 -1.56165,0.60088 -1.14364,-0.86242 -2.93611,-2.54778 -2.93611,-2.76066 0,-0.056 0.34768,-0.64539 0.77264,-1.3099 l 0.77263,-1.2082 -0.46424,-0.69518 c -0.25534,-0.38232 -0.52141,-0.80357 -0.59127,-0.93608 -0.0699,-0.13251 -0.19998,-0.25863 -0.28912,-0.28028 -0.0891,-0.0216 -0.54379,-0.04 -1.01032,-0.0406 -0.46655,-7e-4 -1.13215,-0.0214 -1.47916,-0.0458 l -0.63089,-0.0445 -0.1573,-0.39108 c -0.0865,-0.21511 -0.1794,-0.4774 -0.20643,-0.58289 l -0.0491,-0.19182 h 3.50164 3.50162 l 0.17767,0.33132 c 0.27603,0.51479 0.93127,1.39194 1.49731,2.00446 0.2832,0.30642 0.51492,0.59675 0.51492,0.64516 0,0.0484 0.0353,0.088 0.0787,0.088 0.0431,0 0.36421,0.22348 0.71329,0.49664 1.92925,1.50967 3.90902,2.38257 6.41816,2.82981 1.07455,0.19152 3.5782,0.17151 4.66534,-0.0375 2.37312,-0.45581 4.41065,-1.36565 6.18403,-2.76146 0.36876,-0.29024 0.72444,-0.52767 0.79042,-0.52767 0.067,0 0.11994,-0.0593 0.11994,-0.13395 0,-0.0736 0.18697,-0.33259 0.41552,-0.57542 0.48453,-0.51484 1.15423,-1.40574 1.47799,-1.96618 l 0.22711,-0.39307 3.48935,-1.5e-4 c 2.26873,-1.3e-4 3.48937,0.0241 3.48937,0.0694 0,0.0512 -0.42175,0.92345 -0.49565,1.02508 -0.006,0.007 -0.73573,0.0791 -1.62292,0.15897 -0.88718,0.08 -1.61944,0.15236 -1.62724,0.16082 -0.008,0.009 -0.11,0.18784 -0.22708,0.39862 -0.1171,0.21077 -0.38407,0.63284 -0.59327,0.93792 l -0.38038,0.55472 0.15194,0.2478 c 0.59663,0.97309 1.32451,2.25203 1.32451,2.32724 0,0.16399 -1.37954,1.49685 -2.24794,2.1719 -0.66314,0.51547 -0.88104,0.64899 -0.97965,0.60027 -0.0697,-0.0345 -0.69763,-0.36244 -1.39528,-0.72891 l -1.26846,-0.6663 -0.23525,0.13996 c -0.12938,0.0769 -0.60344,0.32865 -1.05346,0.55929 l -0.8182,0.41932 -0.0561,1.44404 c -0.0309,0.79422 -0.0681,1.4549 -0.0824,1.46822 -0.0693,0.0633 -1.7041,0.52731 -2.38915,0.67792 -0.96891,0.21305 -2.00837,0.23691 -2.07804,0.0478 -0.0248,-0.0671 -0.34925,-0.59102 -0.72122,-1.16423 l -0.67629,-1.04216 -1.22231,-0.004 -1.2223,-0.004 -0.80499,1.16831 -0.80499,1.16826 -0.51469,-0.003 c -0.30497,-0.002 -0.87611,-0.0863 -1.40152,-0.2075 z"
       id="path742"
       inkscape:connector-curvature="0" />
    <path
       style="fill:#28aaef;fill-opacity:1;stroke-width:0.0366674"
       d="m 132.11816,110.48583 c 0.55503,-1.27007 1.78231,-2.84989 4.17602,-5.37561 0.8189,-0.86408 2.70296,-2.74168 2.72733,-2.718 0.007,0.007 -0.17205,0.43475 -0.39941,0.9495 -0.67959,1.53846 -0.98009,2.31338 -1.33444,3.44112 -0.40707,1.29547 -0.62171,2.25215 -0.73952,3.29608 l -0.0632,0.56024 -2.22096,0.01 -2.22095,0.01 z"
       id="path6" />
    <path
       style="fill:#fd9b0d;fill-opacity:1;stroke-width:0.0733382"
       d="m 140.808,100.32732 c -0.48774,0.11239 -1.24249,0.31839 -1.6772,0.45778 l -0.79042,0.25343 v 1.45597 1.45594 l -0.36629,0.1695 c -0.20145,0.0931 -0.66986,0.34269 -1.0409,0.55438 l -0.67462,0.38488 -1.44018,-0.69249 c -1.23029,-0.59157 -1.45787,-0.67913 -1.56164,-0.60088 -1.14364,0.86242 -2.93611,2.54778 -2.93611,2.76066 0,0.056 0.34768,0.64539 0.77264,1.3099 l 0.77263,1.2082 -0.46424,0.69518 c -0.25534,0.38232 -0.52141,0.80357 -0.59128,0.93608 -0.0699,0.13251 -0.19997,0.25863 -0.28911,0.28028 -0.0891,0.0216 -0.54379,0.04 -1.01033,0.0406 -0.46654,7e-4 -1.13214,0.0214 -1.47915,0.0458 l -0.63089,0.0445 -0.1573,0.39108 c -0.0866,0.21511 -0.1794,0.4774 -0.20643,0.58289 l -0.0491,0.19182 h 3.50164 3.50161 l 0.17768,-0.33132 c 0.27603,-0.51479 0.93127,-1.39194 1.49731,-2.00446 0.2832,-0.30642 0.51492,-0.59675 0.51492,-0.64516 0,-0.0484 0.0353,-0.088 0.0787,-0.088 0.0431,0 0.36421,-0.22348 0.71329,-0.49664 1.92925,-1.50967 3.90902,-2.38257 6.41816,-2.82981 1.07455,-0.19152 3.57819,-0.17151 4.66534,0.0375 2.37312,0.45581 4.41065,1.36565 6.18403,2.76146 0.36876,0.29024 0.72444,0.52767 0.79042,0.52767 0.067,0 0.11994,0.0593 0.11994,0.13395 0,0.0736 0.18697,0.33259 0.41552,0.57542 0.48453,0.51484 1.15423,1.40574 1.47799,1.96618 l 0.22711,0.39307 3.48935,1.5e-4 c 2.26873,1.3e-4 3.48937,-0.0241 3.48937,-0.0694 0,-0.0512 -0.42175,-0.92345 -0.49565,-1.02508 -0.006,-0.007 -0.73574,-0.0791 -1.62292,-0.15897 -0.88718,-0.08 -1.61944,-0.15236 -1.62724,-0.16082 -0.008,-0.009 -0.11,-0.18784 -0.22708,-0.39862 -0.1171,-0.21077 -0.38408,-0.63284 -0.59327,-0.93792 l -0.38038,-0.55472 0.15194,-0.2478 c 0.59663,-0.97309 1.3245,-2.25203 1.3245,-2.32724 0,-0.16399 -1.37953,-1.49685 -2.24793,-2.1719 -0.66314,-0.51547 -0.88105,-0.64899 -0.97965,-0.60027 -0.0697,0.0345 -0.69763,0.36244 -1.39528,0.72891 l -1.26847,0.6663 -0.23524,-0.13996 c -0.12938,-0.0769 -0.60344,-0.32865 -1.05346,-0.55929 l -0.81821,-0.41932 -0.0561,-1.44404 c -0.0309,-0.79422 -0.0681,-1.45491 -0.0824,-1.46823 -0.0693,-0.0633 -1.7041,-0.52731 -2.38915,-0.67792 -0.96891,-0.21305 -2.00838,-0.23691 -2.07804,-0.0478 -0.0248,0.0671 -0.34926,0.59102 -0.72123,1.16424 l -0.67628,1.04216 -1.22231,0.004 -1.2223,0.004 -0.80499,-1.16831 -0.80499,-1.16827 -0.51469,0.003 c -0.30497,0.002 -0.87611,0.0863 -1.40152,0.2075 z"
       id="path5"
       inkscape:connector-curvature="0" />
    <rect
       style="fill:#28aaef;fill-opacity:1;stroke-width:0.341176"
       id="rect6"
       width="40.030605"
       height="6.6154051"
       x="125.8647"
       y="110.8663" />
  </g>
</svg>
