<?xml version="1.0" encoding="UTF-8" standalone="no"?>
<svg
   version="1.1"
   width="512"
   height="512"
   x="0"
   y="0"
   viewBox="0 0 512 512.00011"
   style="enable-background:new 0 0 512 512"
   xml:space="preserve"
   class=""
   id="svg4"
   sodipodi:docname="growth.svg"
   inkscape:version="1.3.2 (091e20ef0f, 2023-11-25)"
   xmlns:inkscape="http://www.inkscape.org/namespaces/inkscape"
   xmlns:sodipodi="http://sodipodi.sourceforge.net/DTD/sodipodi-0.dtd"
   xmlns="http://www.w3.org/2000/svg"
   xmlns:svg="http://www.w3.org/2000/svg"><defs
     id="defs4" /><sodipodi:namedview
     id="namedview4"
     pagecolor="#ffffff"
     bordercolor="#000000"
     borderopacity="0.25"
     inkscape:showpageshadow="2"
     inkscape:pageopacity="0.0"
     inkscape:pagecheckerboard="0"
     inkscape:deskcolor="#d1d1d1"
     inkscape:zoom="0.4025813"
     inkscape:cx="196.23365"
     inkscape:cy="515.42384"
     inkscape:window-width="1440"
     inkscape:window-height="831"
     inkscape:window-x="0"
     inkscape:window-y="32"
     inkscape:window-maximized="1"
     inkscape:current-layer="svg4" /><g
     id="g4"
     style="fill:#f8b400;fill-opacity:1"><path
       d="m101.945312 337.464844h-86.945312c-8.285156 0-15 6.714844-15 15v144.535156c0 8.285156 6.714844 15 15 15h86.949219c8.28125 0 15-6.714844 15-15v-144.535156c-.003907-8.285156-6.71875-15-15.003907-15zm0 0"
       fill="#66bb6a"
       data-original="#000000"
       style="fill:#f8b400;fill-opacity:1"
       class=""
       id="path1" /><path
       d="m263.296875 256.675781h-86.949219c-8.285156 0-15 6.714844-15 15v225.324219c0 8.285156 6.714844 15 15 15h86.949219c8.28125 0 15-6.714844 15-15v-225.324219c0-8.285156-6.71875-15-15-15zm0 0"
       fill="#66bb6a"
       data-original="#000000"
       style="fill:#f8b400;fill-opacity:1"
       class=""
       id="path2" /><path
       d="m424.640625 134.660156h-86.945313c-8.285156 0-15 6.714844-15 15v347.339844c0 8.285156 6.714844 15 15 15h86.945313c8.285156 0 15-6.714844 15-15v-347.339844c0-8.285156-6.714844-15-15-15zm0 0"
       fill="#66bb6a"
       data-original="#000000"
       style="fill:#f8b400;fill-opacity:1"
       class=""
       id="path3" /><path
       d="m15.992188 188.585938c2.351562 0 4.738281-.554688 6.96875-1.726563l156.664062-82.382813 62.359375 32.328126c4.472656 2.320312 9.8125 2.238281 14.210937-.21875l138.925782-77.523438-5.34375 14.101562c-2.9375 7.746094.960937 16.40625 8.707031 19.34375 1.75.660157 3.546875.976563 5.3125.976563 6.054687 0 11.757813-3.691406 14.03125-9.6875l19.859375-52.394531c.484375-1.269532.761719-2.585938.886719-3.914063.089843-.847656.105469-1.714843.039062-2.5625-.148437-2.140625-.738281-4.28125-1.851562-6.277343-2.558594-4.585938-7.164063-7.296876-12.039063-7.644532l-53.742187-10.710937c-8.121094-1.621094-16.023438 3.652343-17.640625 11.777343-1.621094 8.125 3.652344 16.023438 11.777344 17.644532l15.5 3.085937-131.992188 73.65625-62.144531-32.21875c-4.355469-2.257812-9.542969-2.242187-13.882813.042969l-163.601562 86.023438c-7.332032 3.859374-10.148438 12.925781-6.292969 20.257812 2.683594 5.105469 7.894531 8.023438 13.289063 8.023438zm0 0"
       fill="#66bb6a"
       data-original="#000000"
       style="fill:#f8b400;fill-opacity:1"
       class=""
       id="path4" /></g></svg>
