<?xml version="1.0" encoding="UTF-8" standalone="no"?>
<svg
   version="1.1"
   width="512"
   height="512"
   x="0"
   y="0"
   viewBox="0 0 512 512"
   style="enable-background:new 0 0 512 512"
   xml:space="preserve"
   class=""
   id="svg3"
   sodipodi:docname="planting.svg"
   inkscape:version="1.3.2 (091e20ef0f, 2023-11-25)"
   xmlns:inkscape="http://www.inkscape.org/namespaces/inkscape"
   xmlns:sodipodi="http://sodipodi.sourceforge.net/DTD/sodipodi-0.dtd"
   xmlns="http://www.w3.org/2000/svg"
   xmlns:svg="http://www.w3.org/2000/svg"><defs
     id="defs3" /><sodipodi:namedview
     id="namedview3"
     pagecolor="#ffffff"
     bordercolor="#000000"
     borderopacity="0.25"
     inkscape:showpageshadow="2"
     inkscape:pageopacity="0.0"
     inkscape:pagecheckerboard="0"
     inkscape:deskcolor="#d1d1d1"
     inkscape:zoom="0.56933594"
     inkscape:cx="500.58319"
     inkscape:cy="357.43396"
     inkscape:window-width="1440"
     inkscape:window-height="831"
     inkscape:window-x="0"
     inkscape:window-y="32"
     inkscape:window-maximized="1"
     inkscape:current-layer="svg3" /><g
     id="g3"
     style="fill:#f8b400;fill-opacity:1"><g
       id="Planting-2"
       data-name="Planting"
       style="fill:#f8b400;fill-opacity:1"><g
         id="Glyph"
         style="fill:#f8b400;fill-opacity:1"><path
           d="M184,256c40.752,0,80.963-30.278,120.263-30.278,26.977,0,48.533,16.14,56.132,38.8,3.853,11.489,18.351,15.122,27.359,7.015h0A17.033,17.033,0,0,0,391.46,251.1a151.893,151.893,0,0,0-251.574-29.078,18.011,18.011,0,0,0,10.521,29.371C162.474,253.56,174.792,256,184,256Z"
           fill="#66bb6a"
           data-original="#000000"
           style="fill:#f8b400;fill-opacity:1"
           class=""
           id="path1" /><path
           d="M144,512H8a8,8,0,0,1-8-8V416c0-27.835,4.384-67.836,25.271-100.326C47.313,281.386,81.876,264,128,264c11.331,0,43.859,8,56,8,30.143,0,61.131-12.406,88.472-23.352,79.3-31.749,93.867,55.037,51.528,71.061-31.23,11.82-84.6,20.071-109.76,44.271l133.849-35.223,76.632-68.969C435.5,210.87,438.173,144,504,144a8.1,8.1,0,0,1,7.892,9.315c-.831,5-22.24,144.756-26.235,148.342l-128,128c-2.767,3.5-176.379,41.951-180.678,42.943A32.077,32.077,0,0,0,152,504,8,8,0,0,1,144,512Z"
           fill="#66bb6a"
           data-original="#000000"
           style="fill:#f8b400;fill-opacity:1"
           class=""
           id="path2" /><path
           d="M407.38,11.647c-2.6-.846-64.047-20.572-104.946-6.24-23.035,8.072-37.918,19.342-46.2,31.336C248.133,24.605,233.305,13.2,210.176,5.092c-40.516-14.2-101.5,5.714-104.08,6.568a8.088,8.088,0,0,0-4.183,11.963C114.42,42.8,155.8,100.566,215.53,100.566c11.767,0,23.482-3.034,32.47-9.4v53.819a8,8,0,0,0,8,8h0a8,8,0,0,0,8-8V92.1c18.373,12.793,48.013,9.458,69.339,1.985,40.891-14.33,76.733-68.143,78.239-70.426A8.1,8.1,0,0,0,407.38,11.647Z"
           fill="#66bb6a"
           data-original="#000000"
           style="fill:#f8b400;fill-opacity:1"
           class=""
           id="path3" /></g></g></g></svg>
